<svg width="56" height="56" viewBox="0 0 56 56" fill="none" xmlns="http://www.w3.org/2000/svg">
<rect width="55.0254" height="55.0254" rx="10" fill="#828282"/>
<path d="M39.3 29.7924C38.9749 29.1072 38.5598 28.452 38.0696 27.8418C36.3691 25.7261 34.5035 23.0352 34.4835 23.0102C34.2984 22.7401 33.8482 22.7401 33.6632 23.0102C33.6582 23.0202 33.068 23.8655 32.2527 24.9808C32.4278 25.2909 32.5928 25.601 32.7429 25.9161C32.7529 25.9361 32.7579 25.9511 32.7679 25.9711C33.9033 28.3769 34.1083 31.0428 33.3481 33.4686C32.9029 34.8891 32.2027 35.9894 31.3824 36.8397C31.1374 37.0948 30.8823 37.3299 30.6172 37.5399C32.2077 38.6003 33.9833 38.6203 34.0733 38.6203C34.1183 38.6203 38.4647 38.5603 39.6901 34.634C40.1803 33.0635 40.0403 31.3479 39.3 29.7924Z" fill="white"/>
<path d="M32.6341 33.2431C32.9092 32.3528 33.0492 31.4325 33.0492 30.5022C33.0492 29.0618 32.7191 27.6063 32.0639 26.2358C31.5888 25.2405 30.9836 24.2802 30.2633 23.3849C27.7375 20.2439 24.9616 16.2426 24.9366 16.2026C24.7465 15.9325 24.3014 15.9325 24.1113 16.2026C24.0863 16.2426 21.3104 20.2439 18.7846 23.3849C18.0644 24.2802 17.4592 25.2405 16.984 26.2358C15.9087 28.4916 15.7086 30.9774 16.4138 33.2431C18.1794 38.91 24.4564 39 24.5265 39C24.5915 39 30.8685 38.91 32.6341 33.2431ZM23.5512 36.3341C23.4761 36.5292 23.2861 36.6492 23.086 36.6492C23.026 36.6492 22.961 36.6392 22.9009 36.6142C20.5352 35.6689 18.8946 33.9283 18.1644 31.5826C18.0844 31.3175 18.2294 31.0374 18.4945 30.9524C18.7596 30.8724 19.0397 31.0174 19.1197 31.2825C19.7699 33.3632 21.1654 34.8436 23.2711 35.6839C23.5311 35.789 23.6562 36.079 23.5512 36.3341Z" fill="white"/>
</svg>
