<svg width="56" height="56" viewBox="0 0 56 56" fill="none" xmlns="http://www.w3.org/2000/svg">
<rect width="55.0254" height="55.0254" rx="10" fill="#828282"/>
<path d="M36.3027 28.2607C34.8905 29.5622 32.9702 30.4204 30.9765 30.7252V36.4153H35.2506C37.5349 36.4153 39.4039 34.5464 39.4039 32.2619C39.4039 30.3375 38.0887 28.7177 36.3027 28.2607ZM27.5432 30.8775C27.2248 30.8775 26.9202 30.8082 26.6431 30.6698C26.2278 30.4621 25.8817 30.1298 25.6742 29.7007C25.4681 29.2477 25.3785 28.6055 25.3418 28.1084C23.0534 28.172 21.2852 30.04 21.2852 32.2619C21.2852 34.5901 23.1937 36.4153 25.4385 36.4153H29.592V30.8636C29.4676 30.8775 29.3428 30.8775 29.2182 30.8775H27.5432Z" fill="white"/>
<path d="M29.1633 19.1794C28.5681 19.6364 28.0143 20.1762 27.5298 20.7854C26.5053 22.0452 25.813 23.5129 25.4945 25.0634C24.47 23.6927 23.9023 22.0314 23.9023 20.2733V19.1102C23.9023 18.7224 24.2071 18.418 24.5946 18.418H25.7577C26.9483 18.418 28.1112 18.681 29.1633 19.1794Z" fill="white"/>
<path d="M37.2338 18.418H35.3786C32.7343 18.418 30.2698 19.5948 28.6085 21.6439C26.9681 23.6919 26.3859 26.2142 26.8087 28.5662C27.0695 28.3056 31.3536 24.0214 31.2114 24.1636C31.4605 23.8867 31.9313 23.8866 32.1805 24.1636C32.4574 24.4125 32.4576 24.8834 32.1805 25.1326C32.0402 25.2728 27.6457 29.6675 27.8195 29.4938C30.8288 29.4938 33.622 29.2718 35.9463 26.5033C37.2339 24.9389 37.9262 23.0144 37.9262 20.9655V19.1102C37.926 18.7224 37.6216 18.418 37.2338 18.418Z" fill="white"/>
<path d="M21.7298 28.1507C20.6083 29.1613 19.9023 30.6287 19.9023 32.2625C19.9023 33.7024 20.4561 35.0731 21.4392 36.0836C20.9547 36.2774 20.4423 36.3745 19.93 36.3745C18.8638 36.3745 17.7952 35.973 16.9921 35.1699C15.3724 33.5501 15.3724 30.9056 16.9921 29.2858L19.9439 26.3369L21.7298 28.1507Z" fill="white"/>
<path d="M25.1229 26.7385C24.3198 26.7802 23.5584 27.0017 22.894 27.3478L20.9141 25.3679L23.0046 23.2773C23.4478 24.565 24.1538 25.7557 25.1229 26.7385Z" fill="white"/>
</svg>
