<svg width="56" height="56" viewBox="0 0 56 56" fill="none" xmlns="http://www.w3.org/2000/svg">
<rect width="55.0254" height="55.0254" rx="10" fill="#828282"/>
<mask id="mask0_1606_11590" style="mask-type:luminance" maskUnits="userSpaceOnUse" x="14" y="18" width="17" height="20">
<path d="M14 18.002H30.49V37.0863H14V18.002Z" fill="white"/>
</mask>
<g mask="url(#mask0_1606_11590)">
<path d="M21.6531 18.0214C23.4772 17.9309 27.4514 18.1263 28.9269 19.2583C30.7419 20.6502 30.5227 25.2898 30.3185 27.3532C29.8164 32.4169 24.9628 30.9897 21.8136 33.2726C20.4399 34.2683 19.5202 36.0603 18.0026 36.7843C15.0167 38.2091 14.8627 34.2411 14.7282 32.3492C14.5385 29.6835 13.7864 27.0597 14.0652 24.3581C14.5206 19.9448 17.4876 18.2281 21.6531 18.0216V18.0214ZM22.1638 19.7798C22.1412 19.672 22.0526 19.6824 21.9699 19.669C20.8649 19.4906 19.6019 19.7003 18.5936 20.1767C15.9194 21.4396 15.3233 24.4357 16.0621 27.1037C16.1457 27.1939 16.1599 27.0949 16.1712 27.0199C16.3595 25.7424 16.4097 24.5575 16.9394 23.3488C17.8744 21.2172 19.9677 20.1721 22.1638 19.7795V19.7798Z" fill="white"/>
</g>
<mask id="mask1_1606_11590" style="mask-type:luminance" maskUnits="userSpaceOnUse" x="31" y="18" width="12" height="11">
<path d="M31.0195 18.6211H42.8025V28.9348H31.0195V18.6211Z" fill="white"/>
</mask>
<g mask="url(#mask1_1606_11590)">
<path d="M31.666 28.6939C31.5446 28.5624 31.4215 28.0815 31.3865 27.8911C31.1143 26.4057 31.2691 24.5553 31.2074 23.0215C31.1341 21.2005 30.4103 19.7451 32.605 19.0425C34.6691 18.3813 38.5059 18.5424 40.5535 19.278C42.2101 19.8729 43.8811 21.1469 41.9069 22.6861C41.0558 23.3498 40.3306 23.6298 39.5532 24.4931C37.8153 26.4225 37.0609 27.8752 34.3116 28.6271C33.7787 28.7728 32.0511 29.1101 31.666 28.6936V28.6939Z" fill="white"/>
</g>
<path d="M25.1616 32.707C24.011 33.859 22.8933 36.2393 20.9137 35.4837C20.8625 35.4238 20.8957 35.3757 20.9189 35.3165C21.044 34.9991 21.5458 34.4413 21.8067 34.206C22.7123 33.3885 23.9629 32.8871 25.1614 32.7073L25.1616 32.707Z" fill="white"/>
</svg>
