<svg width="56" height="56" viewBox="0 0 56 56" fill="none" xmlns="http://www.w3.org/2000/svg">
<rect width="55.0254" height="55.0254" rx="10" fill="#828282"/>
<path d="M27.1978 24.9626C27.5206 23.9061 27.8138 22.2327 27.8167 22.2167C27.8516 22.0119 28.0481 21.8745 28.25 21.9094C28.4545 21.9444 28.5916 22.1411 28.5567 22.3433C28.5432 22.4135 28.2526 24.0788 27.916 25.1808C27.8894 25.267 27.9244 25.3317 27.9484 25.3641C27.9728 25.3936 28.0237 25.4477 28.1125 25.4477H30.7338C30.9411 25.4477 31.1107 25.6172 31.1107 25.8249C31.1107 26.0325 30.9411 26.202 30.7338 26.202H28.1125C27.8058 26.202 27.526 26.0594 27.343 25.814C27.16 25.5663 27.1087 25.2564 27.1978 24.9626ZM31.1024 29.4359C31.0674 29.6407 30.871 29.7781 30.6665 29.7403L29.0438 29.4548C28.9253 29.433 28.8608 29.5086 28.8394 29.541C28.8176 29.5734 28.7721 29.6596 28.8339 29.7618L29.9374 31.5998C30.0448 31.7777 29.9858 32.0094 29.8079 32.117C29.7489 32.1549 29.6816 32.1709 29.6143 32.1709C29.4877 32.1709 29.3614 32.1062 29.2913 31.9876L28.1881 30.1499C27.9917 29.824 28.0051 29.4276 28.2202 29.1152C28.4356 28.8024 28.8016 28.6489 29.1756 28.7136L30.7982 28.9992C31.003 29.0344 31.1402 29.2311 31.1024 29.4359ZM23.8823 25.7198C23.4839 26.1831 23.0346 26.6359 22.5311 27.0698C22.526 27.0752 22.5205 27.0807 22.5151 27.0833C22.1545 27.396 21.7671 27.7004 21.3552 27.9942C21.0027 28.2474 20.688 28.5573 20.4107 28.9239C20.4079 28.9453 20.4027 28.9642 20.3944 28.9831C20.3623 29.0719 20.3002 29.1447 20.2249 29.1879C19.8912 29.6971 19.6249 30.3008 19.4256 30.9961C19.1083 32.1116 18.9682 33.459 19.006 34.9978C19.0599 37.1079 19.4445 39.0129 19.6006 39.7108H22.0308C21.9177 38.9886 21.7052 37.4742 21.6164 35.9303C21.5437 34.6636 21.5652 33.618 21.6809 32.823C21.845 31.7021 22.2004 31.0474 22.768 30.8209C24.8941 29.9694 26.8049 32.8932 26.8853 33.0197C26.9985 33.195 26.9475 33.4267 26.7725 33.5398C26.5975 33.6532 26.3661 33.602 26.253 33.4267C26.245 33.4132 25.8117 32.7502 25.1768 32.1898C24.8672 31.9177 24.5711 31.7184 24.2858 31.589C24.2509 31.8315 24.2079 32.0712 24.1541 32.3084C23.7907 33.9442 23.7314 34.5774 23.7423 34.82C23.7746 35.464 24.189 36.5741 25.0258 37.4822C25.5319 38.0346 26.1482 38.4739 26.8559 38.7867C27.701 39.1613 28.6804 39.3606 29.7678 39.3741C31.245 39.393 32.5529 38.8431 33.6564 37.7437C34.6896 36.7115 35.5322 35.1865 36.0918 33.3296C36.6408 31.5028 36.9234 29.3549 36.902 27.1185C36.8885 25.4801 36.5331 23.8981 35.8524 22.4135C35.2386 21.0795 34.3534 19.8317 33.2878 18.805C32.3593 17.9103 31.2937 17.1775 30.2063 16.6898C29.1406 16.2126 28.0696 15.9729 27.1062 16.0024C25.4322 16.0511 24.014 16.6923 23.0048 17.8565C21.9876 19.0287 21.4629 20.6834 21.6325 22.1735C21.7132 22.8877 22.0764 23.7471 22.6282 24.5313C22.8218 24.8091 23.0022 25.0972 23.1663 25.3936C23.8365 24.6418 24.2589 23.9628 24.5252 23.4293C25.0502 22.3782 25.0826 21.6697 25.0826 21.6643C25.0877 21.4566 25.2601 21.2951 25.4672 21.3003C25.6745 21.3057 25.8386 21.481 25.8332 21.6883C25.8332 21.7235 25.8037 22.5292 25.2252 23.7148C24.8912 24.3967 24.4419 25.0702 23.8875 25.7172L23.8823 25.7198Z" fill="white"/>
</svg>
