<svg width="56" height="56" viewBox="0 0 56 56" fill="none" xmlns="http://www.w3.org/2000/svg">
<rect width="55.0254" height="55.0254" rx="10" fill="#828282"/>
<path d="M41.5813 25.2399C41.548 25.1372 41.5446 25.0325 41.5706 24.9371C41.8668 23.848 41.646 22.6921 40.9664 21.7671C40.8417 21.5977 40.8257 21.3716 40.9257 21.1908C41.678 19.8329 41.3279 18.1616 40.074 17.1265C39.0216 16.2581 37.3068 15.9266 35.8496 17.1451C35.0065 17.8501 34.4243 18.8292 34.2102 19.9016C34.1802 20.0517 34.0908 20.1791 33.9588 20.2618C32.8303 20.9641 31.9019 21.9585 31.2736 23.1363C31.2283 23.2204 31.1602 23.2931 31.0762 23.3451C30.4026 23.7646 29.823 24.3015 29.3541 24.9398C29.2694 25.0545 29.1347 25.1285 28.9846 25.1432C28.6272 25.1765 28.283 25.2732 27.9609 25.4293C27.7915 25.5113 27.5834 25.494 27.4313 25.3853C26.575 24.775 25.4238 24.775 24.5674 25.3859C24.416 25.494 24.2086 25.5113 24.0392 25.4293C23.7171 25.2732 23.3729 25.1765 23.0155 25.1432C22.8654 25.1285 22.7307 25.0551 22.646 24.9398C22.1771 24.3015 21.5975 23.7653 20.9246 23.3457C20.8399 23.2931 20.7712 23.2197 20.7252 23.1337C20.0969 21.9558 19.1672 20.9621 18.0367 20.2591C17.9093 20.1797 17.8193 20.0497 17.7899 19.9023C17.5758 18.8292 16.9936 17.8501 16.1506 17.1451C14.6933 15.9266 12.9792 16.2574 11.9268 17.1265C10.6729 18.1609 10.3228 19.8323 11.0744 21.1908C11.1744 21.3716 11.1591 21.5977 11.0344 21.7657C10.3541 22.6908 10.1333 23.8466 10.4295 24.9371C10.4555 25.0325 10.4521 25.1372 10.4188 25.2399C9.45705 28.2405 10.1694 31.5125 12.3743 34.2177C12.4777 34.3451 12.517 34.5158 12.4803 34.6865C12.1153 36.4014 13.2073 38.0613 15.0834 38.2581C15.1908 38.2687 15.2909 38.3121 15.3729 38.3834C16.2903 39.1803 17.4621 39.7243 18.6776 39.644C20.4807 39.5282 22.4524 38.012 23.1669 35.3382C23.2162 35.1534 23.3569 35.008 23.533 34.9593C23.7004 34.9126 23.8638 34.8519 24.0205 34.7772C24.206 34.6892 24.414 34.7012 24.5641 34.8086C25.4231 35.4235 26.5763 35.4235 27.4347 34.8093C27.5854 34.7019 27.7948 34.6892 27.9816 34.7779C28.137 34.8519 28.3004 34.9133 28.4664 34.9593C28.6432 35.008 28.7839 35.1534 28.8332 35.3382C29.8077 38.9846 33.4181 41.1708 36.6272 38.3834C36.7092 38.3121 36.8093 38.2687 36.9167 38.2581C38.7953 38.061 39.8841 36.3983 39.5198 34.6865C39.4838 34.5158 39.5224 34.3451 39.6258 34.2177C41.8301 31.5125 42.543 28.2398 41.5813 25.2399ZM14.8582 25.4658C14.8936 25.7584 14.6851 26.0243 14.3926 26.0596C14.1004 26.095 13.8343 25.8869 13.7988 25.5941C13.7693 25.3503 13.7459 24.7214 14.1644 24.1482C14.7008 23.4136 15.6003 23.2894 16.0461 23.3314C16.3395 23.3592 16.5549 23.6195 16.5271 23.9129C16.4993 24.2062 16.238 24.4219 15.9457 24.3938C15.2162 24.3657 14.7845 24.8578 14.8582 25.4658ZM17.5582 31.0215C17.5298 31.0378 16.8545 31.4338 16.8207 32.1928C16.794 32.7932 17.1889 33.2011 17.2684 33.2767C17.4817 33.48 17.4899 33.8177 17.2867 34.0311C17.0841 34.2438 16.7464 34.2533 16.5323 34.0495C15.5432 33.1073 15.432 31.5127 16.5599 30.451C16.0897 29.6503 16.0372 28.6655 16.4481 27.8128C16.5761 27.5473 16.8949 27.4359 17.1605 27.5638C17.4259 27.6917 17.5374 28.0107 17.4095 28.2761C17.1033 28.9114 17.2145 29.6672 17.6926 30.2017C17.9194 30.4549 17.8543 30.8537 17.5582 31.0215ZM24.4649 30.1671C24.4455 30.4612 24.1915 30.6844 23.8973 30.6643C23.8768 30.6629 23.385 30.635 23.0753 31.0069C22.8336 31.2973 22.851 31.6411 22.8621 31.7396C22.8951 32.0325 22.6844 32.2966 22.3916 32.3295C22.0974 32.3626 21.8345 32.1507 21.8016 31.859C21.7721 31.5968 21.7572 30.9223 22.2553 30.3241C22.8846 29.5684 23.7922 29.5881 23.9678 29.5996C24.2618 29.619 24.4844 29.8731 24.4649 30.1671ZM33.8318 31.0215C33.8034 31.0378 33.1281 31.4338 33.0943 32.1928C33.0675 32.7932 33.4625 33.2011 33.5419 33.2767C33.7553 33.48 33.7635 33.8177 33.5602 34.0311C33.3576 34.2438 33.02 34.2533 32.8059 34.0495C31.8168 33.1073 31.7056 31.5127 32.8334 30.451C32.3632 29.6503 32.3107 28.6655 32.7217 27.8128C32.8497 27.5473 33.1685 27.4359 33.4341 27.5638C33.6994 27.6917 33.811 28.0107 33.683 28.2761C33.3768 28.9114 33.488 29.6672 33.9662 30.2017C34.1929 30.4549 34.1279 30.8537 33.8318 31.0215ZM37.3548 24.7231C36.7847 24.8132 36.3832 25.3358 36.4659 25.9224C36.5111 26.2432 36.2623 26.5304 35.9369 26.5304C35.6752 26.5304 35.4467 26.3377 35.4092 26.0712C35.2443 24.9001 36.0518 23.8486 37.1882 23.669C37.4794 23.6228 37.7525 23.8217 37.7985 24.1127C37.8445 24.4039 37.6459 24.6771 37.3548 24.7231Z" fill="#F9F9F9"/>
</svg>
