<svg width="16" height="23" viewBox="0 0 16 23" fill="none" xmlns="http://www.w3.org/2000/svg">
<path d="M8 0C3.58878 0 0 3.7367 0 8.32969C0 14.0297 7.15922 22.3978 7.46403 22.7512C7.75033 23.0832 8.25019 23.0826 8.53597 22.7512C8.84078 22.3978 16 14.0297 16 8.32969C15.9999 3.7367 12.4112 0 8 0ZM8 12.5206C5.7806 12.5206 3.97504 10.6406 3.97504 8.32969C3.97504 6.01882 5.78065 4.13884 8 4.13884C10.2194 4.13884 12.0249 6.01886 12.0249 8.32974C12.0249 10.6406 10.2194 12.5206 8 12.5206Z" fill="#8B5CF6"/>
</svg>
