<svg width="16" height="21" viewBox="0 0 16 21" fill="none" xmlns="http://www.w3.org/2000/svg">
<path d="M2.2875 18.5325C0.7625 16.8875 0 14.84 0 12.39C0 10.64 0.6625 8.73687 1.9875 6.68062C3.3125 4.62437 5.31667 2.3975 8 0C10.6833 2.3975 12.6875 4.62437 14.0125 6.68062C15.3375 8.73687 16 10.64 16 12.39C16 14.84 15.2375 16.8875 13.7125 18.5325C12.1875 20.1775 10.2833 21 8 21C5.71667 21 3.8125 20.1775 2.2875 18.5325ZM5 16.8H11V14.7H5V16.8ZM7 13.65H9V11.55H11V9.45H9V7.35H7V9.45H5V11.55H7V13.65Z" fill="#8B5CF6"/>
</svg>
