<svg width="20" height="21" viewBox="0 0 20 21" fill="none" xmlns="http://www.w3.org/2000/svg">
<path fill-rule="evenodd" clip-rule="evenodd" d="M0.814964 12.4079C1.50485 12.0157 1.93332 11.285 1.93332 10.5C1.93332 9.71551 1.50489 8.98477 0.816982 8.59291C0.110958 8.19232 -0.182697 7.35997 0.119026 6.61394C0.49719 5.67158 1.01209 4.7914 1.64567 3.99751C2.15053 3.36542 3.02751 3.19989 3.73349 3.60306C4.42136 3.99751 5.27824 3.99869 5.96813 3.60602C6.65605 3.21336 7.08245 2.48143 7.08043 1.69512C7.08043 0.890725 7.66375 0.223147 8.47029 0.108015C9.48405 -0.0368955 10.5139 -0.0360906 11.5317 0.11098C12.3362 0.226917 12.9195 0.894114 12.9175 1.6969C12.9175 2.48224 13.344 3.21374 14.0318 3.60602C14.7218 3.99827 15.5766 3.99746 16.2665 3.60344C16.9725 3.20027 17.8494 3.36661 18.3543 3.99869C18.6681 4.39255 18.9577 4.81359 19.2132 5.25091C19.4686 5.68746 19.6919 6.14502 19.8809 6.61013C20.1847 7.35734 19.891 8.19088 19.185 8.59249C18.4951 8.98435 18.0667 9.71547 18.0667 10.5C18.0667 11.2845 18.4951 12.0151 19.183 12.4075C19.889 12.8081 20.1826 13.6401 19.8809 14.3859C19.5028 15.3288 18.9879 16.2091 18.3543 17.0025C17.8494 17.6346 16.9725 17.8001 16.2665 17.3969C15.5786 17.0025 14.7217 17.0017 14.0318 17.394C13.344 17.7866 12.9175 18.5186 12.9175 19.3049C12.9195 20.1091 12.3342 20.7766 11.5297 20.892C11.0248 20.9641 10.5179 21 10.0111 21C9.49615 21 8.98125 20.9631 8.46836 20.889C7.66379 20.7729 7.08052 20.1063 7.08052 19.3035C7.08254 18.5178 6.65613 17.7862 5.96822 17.394C5.27833 17.0017 4.42346 17.0025 3.73357 17.3966C3.02759 17.7997 2.15062 17.6338 1.64576 17.0013C1.33197 16.6072 1.04231 16.1862 0.786896 15.7495C0.533457 15.313 0.306156 14.8554 0.119112 14.3899C-0.184713 13.6427 0.10894 12.8089 0.814964 12.4079ZM7.26348 12.0597C7.68388 12.7812 8.36574 13.2975 9.18233 13.5131C9.99694 13.7286 10.8498 13.6181 11.5799 13.2012C13.0885 12.3412 13.6074 10.4301 12.7365 8.9403C12.1532 7.94096 11.0871 7.38157 9.99496 7.38157C9.45791 7.38157 8.91683 7.51576 8.42003 7.79885C6.9115 8.65861 6.39256 10.5703 7.26348 12.0597Z" fill="#8B5CF6"/>
</svg>
