<svg width="16" height="16" viewBox="0 0 16 16" fill="none" xmlns="http://www.w3.org/2000/svg">
<path d="M11.852 15.25C11.852 15.4489 11.7613 15.6397 11.5997 15.7803C11.4382 15.921 11.2191 16 10.9907 16H2.87101C2.10984 15.9993 1.38008 15.7356 0.841845 15.2669C0.30361 14.7983 0.000854884 14.1628 0 13.5V2.5C0.000854884 1.83719 0.30361 1.20173 0.841845 0.733055C1.38008 0.264376 2.10984 0.000744409 2.87101 0L10.9907 0C11.2191 0 11.4382 0.0790176 11.5997 0.21967C11.7613 0.360322 11.852 0.551088 11.852 0.75C11.852 0.948912 11.7613 1.13968 11.5997 1.28033C11.4382 1.42098 11.2191 1.5 10.9907 1.5H2.87101C2.56654 1.50029 2.27463 1.60574 2.05934 1.79321C1.84404 1.98069 1.72294 2.23487 1.72261 2.5V13.5C1.72293 13.7651 1.84403 14.0193 2.05933 14.2068C2.27462 14.3943 2.56654 14.4997 2.87101 14.5H10.9907C11.2191 14.5 11.4382 14.579 11.5997 14.7197C11.7613 14.8603 11.852 15.0511 11.852 15.25ZM15.7477 7.46969L11.6547 3.90556C11.5751 3.83464 11.48 3.77819 11.3752 3.73946C11.2703 3.70074 11.1576 3.68052 11.0437 3.67997C10.9298 3.67942 10.8169 3.69855 10.7115 3.73626C10.6061 3.77397 10.5104 3.82951 10.4299 3.89966C10.3493 3.9698 10.2855 4.05317 10.2422 4.14492C10.199 4.23668 10.177 4.335 10.1776 4.4342C10.1783 4.53339 10.2015 4.63149 10.246 4.72282C10.2905 4.81414 10.3553 4.89687 10.4368 4.96622L13.0593 7.25H6.27887C6.05044 7.25 5.83137 7.32902 5.66984 7.46967C5.50831 7.61032 5.41757 7.80109 5.41757 8C5.41757 8.19891 5.50831 8.38968 5.66984 8.53033C5.83137 8.67098 6.05044 8.75 6.27887 8.75H13.0593L10.4366 11.0337C10.3563 11.1033 10.2925 11.186 10.2489 11.2771C10.2054 11.3682 10.1829 11.4658 10.1827 11.5645C10.1826 11.6632 10.2048 11.7609 10.2481 11.8521C10.2913 11.9432 10.3549 12.0261 10.435 12.0958C10.5151 12.1656 10.6102 12.2209 10.715 12.2586C10.8197 12.2963 10.9319 12.3157 11.0452 12.3155C11.1585 12.3154 11.2707 12.2958 11.3752 12.2578C11.4798 12.2199 11.5748 12.1644 11.6547 12.0944L15.7477 8.53034C15.9093 8.38969 16 8.19893 16 8.00002C16 7.8011 15.9093 7.61034 15.7477 7.46969Z" fill="#8B5CF6"/>
</svg>
