<svg width="45" height="46" viewBox="0 0 45 46" fill="none" xmlns="http://www.w3.org/2000/svg">
<rect x="0.5" y="0.5" width="44" height="45" rx="22" fill="#E7E1FF"/>
<rect x="0.5" y="0.5" width="44" height="45" rx="22" stroke="#E7E1FF"/>
<path d="M32.5426 33.5532L25.5053 26.3596C24.9468 26.8163 24.3045 27.1779 23.5785 27.4443C22.8524 27.7108 22.0798 27.844 21.2606 27.844C19.2314 27.844 17.514 27.1256 16.1084 25.6887C14.7028 24.2519 14 22.4963 14 20.422C14 18.3476 14.7028 16.5921 16.1084 15.1552C17.514 13.7184 19.2314 13 21.2606 13C23.2899 13 25.0073 13.7184 26.4129 15.1552C27.8185 16.5921 28.5213 18.3476 28.5213 20.422C28.5213 21.2593 28.391 22.0491 28.1303 22.7913C27.8697 23.5335 27.516 24.1901 27.0691 24.761L34.1064 31.9546L32.5426 33.5532ZM21.2606 25.5603C22.6569 25.5603 23.8437 25.0607 24.8211 24.0616C25.7985 23.0625 26.2872 21.8493 26.2872 20.422C26.2872 18.9947 25.7985 17.7815 24.8211 16.7824C23.8437 15.7832 22.6569 15.2837 21.2606 15.2837C19.8644 15.2837 18.6775 15.7832 17.7001 16.7824C16.7227 17.7815 16.234 18.9947 16.234 20.422C16.234 21.8493 16.7227 23.0625 17.7001 24.0616C18.6775 25.0607 19.8644 25.5603 21.2606 25.5603Z" fill="#8B5CF6"/>
</svg>
