<svg width="31" height="33" viewBox="0 0 31 33" fill="none" xmlns="http://www.w3.org/2000/svg">
<path d="M30.6462 8.96845C30.4625 8.41459 29.7148 7.8388 29.5128 7.82724C28.1954 7.88905 26.425 9.27588 26.4066 9.29263C26.2964 9.38235 26.1311 9.38235 26.0148 9.29821C23.8216 7.65977 19.9187 8.31411 18.6201 8.59363C16.8374 9.34287 15.1282 10.6404 14.001 13.0735C13.952 13.1796 13.8352 13.241 13.7189 13.241C13.6761 13.241 13.6394 13.2354 13.5965 13.2187C13.4435 13.1573 13.37 12.995 13.4373 12.8554C15.7102 7.94487 20.3538 7.32961 23.1229 6.96037C24.0787 6.83756 24.9055 6.72551 25.2977 6.49065C25.3345 6.46832 25.4385 6.32317 25.5002 5.90369C25.6165 5.08707 25.4508 3.99092 25.2365 3.76722C24.826 3.34774 21.0709 3.87329 19.8085 4.53321C19.7106 4.58385 19.582 4.57827 19.4841 4.52204C19.3918 4.46064 19.3367 4.35976 19.349 4.25369C19.3796 4.05791 19.4229 3.81188 19.4718 3.53236C19.6126 2.76597 19.9003 1.16661 19.5698 0.853193C19.478 0.797369 18.9266 0.752709 18.2217 0.892669C17.6765 1.00432 17.4255 1.14986 17.3888 1.20568C17.3582 1.51312 17.3765 1.90468 17.3888 2.313C17.4316 3.37565 17.4745 4.57229 16.6288 5.33309C15.6551 6.20554 14.4911 6.7929 13.3639 7.36868C11.4951 8.31411 9.7369 9.20889 8.92186 11.2724C8.86677 11.4179 8.68925 11.4961 8.53009 11.4403C8.37049 11.39 8.29091 11.2277 8.34601 11.0822C8.84229 9.82415 9.66956 8.96845 10.6254 8.28061C10.6193 8.2523 10.607 8.21881 10.6005 8.20206C9.97564 6.58595 10.2638 5.3945 11.5685 4.22578L11.8506 3.97417C12.4876 3.40356 13.8169 2.2181 13.8169 1.84886C13.823 1.70332 13.5108 1.25034 12.8492 0.735962C12.175 0.210018 11.5869 -0.0304256 11.3604 0.00306892C10.2148 0.176523 7.38449 2.22368 6.75354 3.73931C6.96167 4.21461 7.09635 4.63967 7.09635 4.94711C7.10247 5.09823 6.96779 5.22663 6.79639 5.22663C6.60007 5.23261 6.48988 5.1094 6.48376 4.95269C6.47152 3.83421 4.38234 0.735962 3.36529 0.61275C1.98708 0.444878 0.60231 1.7089 0.516609 2.24043C0.406422 2.88918 1.26431 3.98533 2.09115 5.04241C3.04085 6.25579 4.02117 7.50864 4.00849 8.55455C4.0028 9.11917 3.53713 9.54424 2.94291 10.0813C1.92587 11.0096 0.388057 12.408 0.057059 15.5956C-0.402053 19.9467 1.95035 25.8023 5.63855 29.5214C7.20653 31.1044 9.72466 32.9888 12.8064 33H12.8248C15.4098 33 18.1544 31.2551 20.3538 28.2127C23.3069 24.1247 25.1386 17.5809 22.645 12.1281C21.6161 11.9941 20.519 12.1732 19.3979 12.9168C19.2633 13.0061 19.0735 12.9782 18.9694 12.8554C18.871 12.7322 18.9021 12.5532 19.0368 12.4638C22.4368 10.1986 25.6716 12.5755 27.4114 13.8563C27.822 14.1585 28.2138 14.4436 28.4285 14.5329C28.7896 14.399 29.8434 13.3642 29.8189 13.0735C29.4945 12.5867 28.0607 11.4514 27.5338 11.0599C27.4481 10.9929 27.4053 10.8924 27.4298 10.7859C27.4543 10.6854 27.5338 10.6069 27.644 10.5734C27.6628 10.5678 29.7148 10.0032 30.5605 9.39909C30.6156 9.35403 30.7503 9.25913 30.6462 8.96845ZM4.52313 20.6684L4.315 20.8303C4.25378 20.8809 4.18645 20.9033 4.11299 20.9033C4.02729 20.9033 3.94115 20.8698 3.87994 20.8024C3.76975 20.6852 3.78811 20.5117 3.91666 20.4108L4.12523 20.2434C4.65212 19.8295 5.20961 19.3932 5.71201 18.9179C4.91534 18.5654 4.0579 18.4817 3.52489 18.711C3.37141 18.778 3.18777 18.7221 3.11431 18.5822C3.04085 18.4422 3.10819 18.2748 3.26123 18.2074C4.16196 17.8158 5.36877 18.1125 6.14664 18.4873C6.68577 17.9111 7.12695 17.2791 7.33552 16.5633C7.6416 15.5118 7.70281 14.7176 7.54365 13.9236C7.51305 13.7725 7.62323 13.627 7.78851 13.5991C7.96035 13.5712 8.11951 13.6716 8.144 13.8228C8.30928 14.6506 8.24806 15.5063 7.96035 16.5522C9.008 16.7196 9.93279 17.7544 9.93279 18.8338C9.93279 18.9905 9.79811 19.1133 9.62671 19.1133C9.45487 19.1133 9.3202 18.9905 9.3202 18.8338C9.3202 18.0116 8.55457 17.1615 7.78239 17.0889C7.6416 17.4358 7.46407 17.7544 7.24938 18.0622C8.05217 19.1189 8.0583 20.808 7.98484 21.7367C7.97259 21.8818 7.83748 21.9994 7.67833 21.9994C7.6722 21.9994 7.65996 21.9994 7.65384 21.9938C7.48856 21.9827 7.36001 21.8483 7.37225 21.6972C7.42122 21.0484 7.45795 19.5328 6.86985 18.5599C6.18949 19.3597 5.32592 20.042 4.52313 20.6684ZM19.8269 20.5452C19.9681 20.4615 20.1579 20.495 20.2558 20.6178C20.3538 20.7466 20.317 20.92 20.1762 21.0093C19.5637 21.3953 18.8531 21.5855 18.1054 21.5855C17.7438 21.5855 17.3704 21.5353 16.9966 21.4456C17.6336 22.2734 18.1422 23.2128 18.3752 24.4322C18.4058 24.5833 18.2952 24.7284 18.1238 24.7563C18.1115 24.7563 18.0932 24.7619 18.0748 24.7619C17.9279 24.7619 17.7993 24.667 17.7749 24.5271C17.3704 22.4468 16.1452 21.2498 14.7237 19.8574C14.3315 19.4714 13.9275 19.0687 13.5292 18.638C12.6162 22.2678 13.4373 25.1591 16.0346 27.4523C16.1575 27.5583 16.1636 27.7374 16.0407 27.8494C15.9856 27.9052 15.9061 27.9331 15.8204 27.9331C15.7469 27.9331 15.6673 27.9052 15.6122 27.855C14.938 27.2621 14.3805 26.6301 13.9336 25.9645C13.0941 26.3952 12.5427 27.9108 12.4019 28.4647C12.3652 28.5931 12.2423 28.6824 12.1015 28.6824C12.0771 28.6824 12.0526 28.6768 12.0342 28.6768C11.8689 28.6377 11.7649 28.487 11.8016 28.3415C11.8261 28.2466 12.3836 26.1213 13.6332 25.4781C12.9717 24.3373 12.6162 23.09 12.5611 21.7195C11.6053 23.6044 10.3128 25.5004 8.19297 26.697C8.144 26.725 8.0889 26.7365 8.03381 26.7365C7.92974 26.7365 7.8318 26.6915 7.77627 26.6077C7.68445 26.4733 7.7273 26.2999 7.87465 26.2217C8.74434 25.7241 9.47324 25.0977 10.0924 24.3931C9.90218 24.421 9.70017 24.4378 9.4916 24.4378C8.38274 24.4378 7.10859 24.1192 6.44091 23.8448C6.28787 23.7778 6.22053 23.6155 6.28787 23.47C6.36133 23.3304 6.54497 23.269 6.69801 23.3304C7.78239 23.7834 9.92054 24.1303 10.6682 23.6379C10.6866 23.6267 10.705 23.6267 10.7233 23.6155C11.5012 22.5529 12.6039 20.2266 12.6162 20.1983C12.6958 19.5272 12.837 18.8226 13.0451 18.0957C12.5978 17.553 12.2917 16.9549 11.9975 16.3731C11.722 15.836 11.4645 15.3272 11.1029 14.8631C11.0049 14.7343 11.0417 14.5608 11.1768 14.4715C11.3176 14.3822 11.5073 14.4157 11.6053 14.5385C11.9975 15.0477 12.2795 15.6012 12.5489 16.1383C12.8676 16.7591 13.1614 17.3461 13.6149 17.8664C14.1234 18.4478 14.6564 18.9738 15.171 19.477C15.5633 19.8574 15.9367 20.2322 16.2983 20.6178C16.3105 20.6234 16.3228 20.6234 16.335 20.6289C17.07 20.9535 18.5038 21.3786 19.8269 20.5452Z" fill="white"/>
</svg>
