<svg width="27" height="27" viewBox="0 0 27 27" fill="none" xmlns="http://www.w3.org/2000/svg">
<path d="M16.8753 22.365C16.9203 22.7025 16.8078 23.0625 16.549 23.2987C16.4449 23.403 16.3213 23.4858 16.1852 23.5422C16.0491 23.5987 15.9032 23.6277 15.7559 23.6277C15.6086 23.6277 15.4627 23.5987 15.3266 23.5422C15.1905 23.4858 15.0668 23.403 14.9628 23.2987L10.4515 18.7875C10.3289 18.6675 10.2356 18.5208 10.1791 18.3588C10.1225 18.1969 10.1041 18.024 10.1253 17.8538V12.0938L4.73652 5.1975C4.55383 4.96297 4.4714 4.66567 4.50723 4.37055C4.54307 4.07543 4.69426 3.80649 4.92777 3.6225C5.14152 3.465 5.37777 3.375 5.62527 3.375H21.3753C21.6228 3.375 21.859 3.465 22.0728 3.6225C22.3063 3.80649 22.4575 4.07543 22.4933 4.37055C22.5291 4.66567 22.4467 4.96297 22.264 5.1975L16.8753 12.0938V22.365ZM7.92027 5.625L12.3753 11.3175V17.5275L14.6253 19.7775V11.3063L19.0803 5.625H7.92027Z" fill="black"/>
</svg>
