<svg width="24" height="24" viewBox="0 0 24 24" fill="none" xmlns="http://www.w3.org/2000/svg">
<path d="M12.0002 14.9109C13.0611 14.9109 14.0785 14.4895 14.8287 13.7393C15.5788 12.9892 16.0002 11.9718 16.0002 10.9109C15.9727 10.0661 15.7356 9.24138 15.3102 8.51092C14.6402 7.14092 13.9502 5.73092 15.6802 1.51092C15.7884 1.30562 15.8217 1.0691 15.7746 0.84189C15.7275 0.614684 15.6028 0.410932 15.422 0.265546C15.2411 0.12016 15.0154 0.0421901 14.7834 0.044995C14.5513 0.0477999 14.3275 0.131205 14.1502 0.28092C12.4502 1.55092 7.25022 5.41092 8.00022 11.0009C8.0704 12.0302 8.51691 12.9976 9.25463 13.7187C9.99235 14.4398 10.9697 14.8642 12.0002 14.9109Z" fill="#EA8C5A"/>
<path d="M22.5 10.9102H18.5C18.2449 10.9097 17.9992 11.0068 17.8133 11.1815C17.6274 11.3563 17.5153 11.5955 17.5 11.8502C17.5 13.3088 16.9205 14.7078 15.8891 15.7392C14.8576 16.7707 13.4587 17.3502 12 17.3502C10.5413 17.3502 9.14236 16.7707 8.11091 15.7392C7.07946 14.7078 6.5 13.3088 6.5 11.8502C6.48469 11.5955 6.37261 11.3563 6.18671 11.1815C6.00081 11.0068 5.75514 10.9097 5.5 10.9102H1.5C1.10218 10.9102 0.720644 11.0682 0.43934 11.3495C0.158035 11.6308 0 12.0123 0 12.4102L0 22.4102C0 22.808 0.158035 23.1895 0.43934 23.4708C0.720644 23.7521 1.10218 23.9102 1.5 23.9102H22.5C22.8978 23.9102 23.2794 23.7521 23.5607 23.4708C23.842 23.1895 24 22.808 24 22.4102V12.4102C24 12.0123 23.842 11.6308 23.5607 11.3495C23.2794 11.0682 22.8978 10.9102 22.5 10.9102ZM1.5 15.4102C1.5 15.1449 1.60536 14.8906 1.79289 14.7031C1.98043 14.5155 2.23478 14.4102 2.5 14.4102C2.76522 14.4102 3.01957 14.5155 3.20711 14.7031C3.39464 14.8906 3.5 15.1449 3.5 15.4102C3.5 15.6754 3.39464 15.9297 3.20711 16.1173C3.01957 16.3048 2.76522 16.4102 2.5 16.4102C2.23478 16.4102 1.98043 16.3048 1.79289 16.1173C1.60536 15.9297 1.5 15.6754 1.5 15.4102ZM3.5 22.4102C3.23478 22.4102 2.98043 22.3048 2.79289 22.1173C2.60536 21.9297 2.5 21.6754 2.5 21.4102C2.5 21.1449 2.60536 20.8906 2.79289 20.7031C2.98043 20.5155 3.23478 20.4102 3.5 20.4102C3.76522 20.4102 4.01957 20.5155 4.20711 20.7031C4.39464 20.8906 4.5 21.1449 4.5 21.4102C4.5 21.6754 4.39464 21.9297 4.20711 22.1173C4.01957 22.3048 3.76522 22.4102 3.5 22.4102ZM7 18.9002C6.73478 18.9002 6.48043 18.7948 6.29289 18.6073C6.10536 18.4197 6 18.1654 6 17.9002C6 17.6349 6.10536 17.3806 6.29289 17.1931C6.48043 17.0055 6.73478 16.9002 7 16.9002C7.26522 16.9002 7.51957 17.0055 7.70711 17.1931C7.89464 17.3806 8 17.6349 8 17.9002C8 18.1654 7.89464 18.4197 7.70711 18.6073C7.51957 18.7948 7.26522 18.9002 7 18.9002ZM9 22.4102C8.73478 22.4102 8.48043 22.3048 8.29289 22.1173C8.10536 21.9297 8 21.6754 8 21.4102C8 21.1449 8.10536 20.8906 8.29289 20.7031C8.48043 20.5155 8.73478 20.4102 9 20.4102C9.26522 20.4102 9.51957 20.5155 9.70711 20.7031C9.89464 20.8906 10 21.1449 10 21.4102C10 21.6754 9.89464 21.9297 9.70711 22.1173C9.51957 22.3048 9.26522 22.4102 9 22.4102ZM14.5 22.4102C14.2348 22.4102 13.9804 22.3048 13.7929 22.1173C13.6054 21.9297 13.5 21.6754 13.5 21.4102C13.5 21.1449 13.6054 20.8906 13.7929 20.7031C13.9804 20.5155 14.2348 20.4102 14.5 20.4102C14.7652 20.4102 15.0196 20.5155 15.2071 20.7031C15.3946 20.8906 15.5 21.1449 15.5 21.4102C15.5 21.6754 15.3946 21.9297 15.2071 22.1173C15.0196 22.3048 14.7652 22.4102 14.5 22.4102ZM17 18.9002C16.7348 18.9002 16.4804 18.7948 16.2929 18.6073C16.1054 18.4197 16 18.1654 16 17.9002C16 17.6349 16.1054 17.3806 16.2929 17.1931C16.4804 17.0055 16.7348 16.9002 17 16.9002C17.2652 16.9002 17.5196 17.0055 17.7071 17.1931C17.8946 17.3806 18 17.6349 18 17.9002C18 18.1654 17.8946 18.4197 17.7071 18.6073C17.5196 18.7948 17.2652 18.9002 17 18.9002ZM20 22.4102C19.7348 22.4102 19.4804 22.3048 19.2929 22.1173C19.1054 21.9297 19 21.6754 19 21.4102C19 21.1449 19.1054 20.8906 19.2929 20.7031C19.4804 20.5155 19.7348 20.4102 20 20.4102C20.2652 20.4102 20.5196 20.5155 20.7071 20.7031C20.8946 20.8906 21 21.1449 21 21.4102C21 21.6754 20.8946 21.9297 20.7071 22.1173C20.5196 22.3048 20.2652 22.4102 20 22.4102ZM21.5 16.4102C21.2348 16.4102 20.9804 16.3048 20.7929 16.1173C20.6054 15.9297 20.5 15.6754 20.5 15.4102C20.5 15.1449 20.6054 14.8906 20.7929 14.7031C20.9804 14.5155 21.2348 14.4102 21.5 14.4102C21.7652 14.4102 22.0196 14.5155 22.2071 14.7031C22.3946 14.8906 22.5 15.1449 22.5 15.4102C22.5 15.6754 22.3946 15.9297 22.2071 16.1173C22.0196 16.3048 21.7652 16.4102 21.5 16.4102Z" fill="#EA8C5A"/>
</svg>
