<svg width="24" height="22" viewBox="0 0 24 22" fill="none" xmlns="http://www.w3.org/2000/svg">
<g clip-path="url(#clip0_3163_788)">
<path d="M6.83333 12.184H16.5V9.96875H6.83333V12.184ZM6.83333 15.5069H16.5V13.2917H6.83333V15.5069ZM6.83333 18.8299H12.875V16.6146H6.83333V18.8299ZM4.41667 22.1528C3.75208 22.1528 3.18316 21.9359 2.7099 21.502C2.23663 21.0682 2 20.5467 2 19.9375V2.21528C2 1.60608 2.23663 1.08456 2.7099 0.650738C3.18316 0.216913 3.75208 0 4.41667 0H14.0833L21.3333 6.64583V19.9375C21.3333 20.5467 21.0967 21.0682 20.6234 21.502C20.1502 21.9359 19.5812 22.1528 18.9167 22.1528H4.41667ZM12.875 7.75347H18.9167L12.875 2.21528V7.75347Z" fill="white"/>
</g>
<defs>
<clipPath id="clip0_3163_788">
<rect width="24" height="22" fill="white"/>
</clipPath>
</defs>
</svg>
