<svg width="24" height="24" viewBox="0 0 24 24" fill="none" xmlns="http://www.w3.org/2000/svg">
<path d="M11.5 18.25C13.375 18.25 14.9688 17.5938 16.2812 16.2812C17.5938 14.9688 18.25 13.375 18.25 11.5C18.25 9.625 17.5938 8.03125 16.2812 6.71875C14.9688 5.40625 13.375 4.75 11.5 4.75V11.5L6.71875 16.2812C7.375 16.9 8.11094 17.3828 8.92656 17.7297C9.74219 18.0766 10.6 18.25 11.5 18.25ZM11.5 22.75C9.94375 22.75 8.48125 22.4547 7.1125 21.8641C5.74375 21.2734 4.55312 20.4719 3.54062 19.4594C2.52813 18.4469 1.72656 17.2563 1.13594 15.8875C0.545312 14.5187 0.25 13.0562 0.25 11.5C0.25 9.94375 0.545312 8.48125 1.13594 7.1125C1.72656 5.74375 2.52813 4.55312 3.54062 3.54062C4.55312 2.52813 5.74375 1.72656 7.1125 1.13594C8.48125 0.545312 9.94375 0.25 11.5 0.25C13.0562 0.25 14.5187 0.545312 15.8875 1.13594C17.2563 1.72656 18.4469 2.52813 19.4594 3.54062C20.4719 4.55312 21.2734 5.74375 21.8641 7.1125C22.4547 8.48125 22.75 9.94375 22.75 11.5C22.75 13.0562 22.4547 14.5187 21.8641 15.8875C21.2734 17.2563 20.4719 18.4469 19.4594 19.4594C18.4469 20.4719 17.2563 21.2734 15.8875 21.8641C14.5187 22.4547 13.0562 22.75 11.5 22.75Z" fill="#8B5CF6"/>
</svg>
