<svg width="24" height="24" viewBox="0 0 24 24" fill="none" xmlns="http://www.w3.org/2000/svg">
<path d="M13.5891 11.8244C14.0297 11.374 14.25 10.8325 14.25 10.2C14.25 9.5675 14.0297 9.02604 13.5891 8.57562C13.1484 8.12521 12.6187 7.9 12 7.9C11.3813 7.9 10.8516 8.12521 10.4109 8.57562C9.97031 9.02604 9.75 9.5675 9.75 10.2C9.75 10.8325 9.97031 11.374 10.4109 11.8244C10.8516 12.2748 11.3813 12.5 12 12.5C12.6187 12.5 13.1484 12.2748 13.5891 11.8244ZM12 24C8.98125 21.3742 6.72656 18.9352 5.23594 16.6831C3.74531 14.431 3 12.3467 3 10.43C3 7.555 3.90469 5.26458 5.71406 3.55875C7.52344 1.85292 9.61875 1 12 1C14.3812 1 16.4766 1.85292 18.2859 3.55875C20.0953 5.26458 21 7.555 21 10.43C21 12.3467 20.2547 14.431 18.7641 16.6831C17.2734 18.9352 15.0188 21.3742 12 24Z" fill="#8B5CF6"/>
</svg>
