<svg width="31" height="31" viewBox="0 0 31 31" fill="none" xmlns="http://www.w3.org/2000/svg">
<g clip-path="url(#clip0_2435_11855)">
<path d="M7.2354 28.2937V30.008C7.23428 30.2724 7.28047 30.5349 7.3718 30.783H5.2018V25.823C5.2018 25.6175 5.12015 25.4203 4.97481 25.275C4.82947 25.1297 4.63234 25.048 4.4268 25.048C4.22126 25.048 4.02413 25.1297 3.87879 25.275C3.73345 25.4203 3.6518 25.6175 3.6518 25.823V30.783H0.775001C0.569458 30.783 0.372333 30.7014 0.226993 30.556C0.081652 30.4107 5.00355e-07 30.2136 5.00355e-07 30.008V25.0914C-0.00041975 23.8932 0.263892 22.7096 0.77404 21.6254C1.28419 20.5412 2.02757 19.583 2.95105 18.8195C3.87453 18.0559 4.95529 17.5059 6.11607 17.2085C7.27685 16.9112 8.48898 16.874 9.6658 17.0996V17.4716C9.6658 17.4716 9.6658 17.7072 9.6658 17.8219C9.68496 18.1626 9.73476 18.5008 9.8146 18.8325C9.8363 18.9162 9.858 18.9999 9.8828 19.0805L9.9169 19.2014C9.98016 19.4123 10.0557 19.6193 10.1432 19.8214C10.1866 19.9175 10.2331 20.0136 10.2858 20.1314C10.3385 20.2492 10.3788 20.3081 10.4253 20.3856C10.4718 20.4631 10.4966 20.5065 10.5338 20.5685C10.6592 20.7728 10.798 20.9685 10.9492 21.1544C10.9957 21.2133 11.0453 21.2722 11.0949 21.328C9.92014 22.0734 8.95122 23.1017 8.27693 24.3187C7.60263 25.5357 7.24452 26.9024 7.2354 28.2937Z" fill="#8B5CF6"/>
<path d="M31.0002 25.0914V30.008C31.0002 30.2135 30.9185 30.4106 30.7732 30.556C30.6278 30.7013 30.4307 30.783 30.2252 30.783H27.3608V25.823C27.3608 25.6174 27.2791 25.4203 27.1338 25.275C26.9884 25.1296 26.7913 25.048 26.5858 25.048C26.3802 25.048 26.1831 25.1296 26.0377 25.275C25.8924 25.4203 25.8108 25.6174 25.8108 25.823V30.783H23.6408C23.7321 30.5348 23.7783 30.2724 23.7772 30.008V28.2937C23.7767 26.8969 23.4222 25.5231 22.7467 24.3006C22.0712 23.0781 21.0968 22.0469 19.9146 21.3032C20.0107 21.1947 20.0975 21.0831 20.1781 20.9746C20.2184 20.9219 20.2556 20.8723 20.2928 20.8165C20.3808 20.6925 20.4625 20.5642 20.5377 20.4321C20.5749 20.3701 20.6121 20.3081 20.6524 20.2337C20.6927 20.1593 20.7175 20.1128 20.7454 20.0477C20.7857 19.964 20.826 19.8803 20.8601 19.7966C20.8942 19.7129 20.9469 19.5858 20.9872 19.4866C21.0275 19.3874 21.0616 19.2696 21.0957 19.1456C21.1298 19.0216 21.1546 18.9503 21.1794 18.8356C21.2042 18.7209 21.2228 18.6403 21.2414 18.5442C21.26 18.4481 21.2662 18.3954 21.2786 18.3148C21.291 18.2342 21.2972 18.1815 21.3034 18.1133C21.3096 18.0451 21.3034 18.0296 21.3034 17.9893C21.3034 17.949 21.3034 17.8653 21.3034 17.8002V17.7568C21.3034 17.6669 21.3034 17.5801 21.3034 17.4902C21.3034 17.4003 21.3034 17.2391 21.3034 17.1151C21.8063 17.0208 22.3169 16.9731 22.8286 16.9725C23.8983 16.9688 24.9582 17.1759 25.9479 17.582C26.9375 17.988 27.8375 18.5851 28.5963 19.339C29.3551 20.093 29.958 20.9891 30.3705 21.9761C30.7829 22.9631 30.9969 24.0217 31.0002 25.0914Z" fill="#8B5CF6"/>
<path d="M14.9111 20.15C15.0458 20.1797 15.1826 20.1983 15.3203 20.2058C15.1828 20.1966 15.0461 20.1779 14.9111 20.15ZM15.3699 20.2089H15.5001C15.5931 20.2136 15.6862 20.2136 15.7791 20.2089C15.6429 20.2182 15.5062 20.2182 15.3699 20.2089Z" fill="#8B5CF6"/>
<path d="M19.7968 17.4716V17.6917C19.7968 17.6917 19.7968 17.8033 19.7968 17.8591C19.7983 17.8818 19.7983 17.9046 19.7968 17.9273C19.7968 17.9707 19.7968 18.0141 19.7813 18.0544C19.7658 18.0947 19.7627 18.1815 19.7503 18.2435C19.7379 18.3055 19.7224 18.3892 19.7038 18.4636C19.6885 18.536 19.6688 18.6074 19.6449 18.6775C19.6232 18.7643 19.5922 18.8542 19.5612 18.941C19.5302 19.0278 19.5023 19.096 19.4682 19.1735C19.4341 19.251 19.4062 19.3099 19.3721 19.3781V19.3998C19.3535 19.4401 19.3318 19.4773 19.3101 19.5176C19.2884 19.5579 19.2574 19.6106 19.2295 19.6571C19.176 19.7524 19.117 19.8446 19.0528 19.933C19.028 19.9702 19.0032 20.0043 18.9753 20.0384C18.8912 20.1554 18.8001 20.2672 18.7025 20.3732L18.5723 20.5065C18.3775 20.702 18.1635 20.8775 17.9337 21.0304C17.8777 21.0705 17.8198 21.1077 17.7601 21.142C17.6229 21.2253 17.4811 21.3009 17.3354 21.3683H17.3013L17.1339 21.4396C17.0533 21.4737 16.9696 21.5047 16.8859 21.5326L16.7247 21.5822C16.6348 21.607 16.5449 21.6318 16.4519 21.6504C16.3589 21.669 16.3093 21.6814 16.238 21.6907L16.0768 21.7155C15.8978 21.7376 15.7177 21.749 15.5374 21.7496C15.3717 21.7496 15.2061 21.7403 15.0414 21.7217L14.8368 21.6907L14.5702 21.6628C14.4803 21.6442 14.3935 21.6225 14.3067 21.5977L14.1455 21.5481C13.9896 21.4949 13.8364 21.4339 13.6867 21.3652L13.6402 21.3404L13.4666 21.2536H13.4387C13.3829 21.2226 13.3271 21.1916 13.2744 21.1575C13.2147 21.1232 13.1568 21.086 13.1008 21.0459L12.983 20.9653C12.8673 20.8826 12.7557 20.7927 12.6482 20.6956L12.518 20.5747C12.4312 20.491 12.3506 20.4073 12.2731 20.3174C12.2328 20.274 12.1956 20.2275 12.1584 20.181C12.045 20.0426 11.9415 19.8966 11.8484 19.7439C11.8205 19.7005 11.7957 19.6571 11.7709 19.6137C11.7461 19.5703 11.7027 19.4928 11.6717 19.4308C11.6407 19.3688 11.5973 19.282 11.5632 19.2045C11.5001 19.0599 11.4453 18.9119 11.3989 18.7612C11.3989 18.7364 11.3834 18.7116 11.3772 18.6837C11.371 18.6558 11.34 18.5566 11.3245 18.4915C11.2635 18.2455 11.2261 17.9943 11.2129 17.7413C11.2129 17.6576 11.2129 17.5739 11.2129 17.4871C11.2132 16.7723 11.3923 16.069 11.7337 15.4411C11.8328 15.2588 11.9447 15.0837 12.0685 14.9172L12.1956 14.756C12.2828 14.6476 12.3759 14.5441 12.4746 14.446C13.0749 13.8449 13.84 13.4354 14.6731 13.2693C15.5062 13.1032 16.3699 13.1879 17.1548 13.5129C17.9397 13.8378 18.6106 14.3882 19.0825 15.0946C19.5545 15.8009 19.8063 16.6314 19.8061 17.4809L19.7968 17.4716Z" fill="#8B5CF6"/>
<path d="M27.9993 10.7167C27.9999 11.7335 27.6989 12.7277 27.1344 13.5734C26.5699 14.4191 25.7672 15.0783 24.8279 15.4678C23.8886 15.8572 22.8549 15.9592 21.8576 15.761C20.8603 15.5628 19.9441 15.0732 19.2251 14.3542C18.5061 13.6352 18.0166 12.7191 17.8183 11.7218C17.6201 10.7244 17.7222 9.69074 18.1116 8.75144C18.501 7.81214 19.1602 7.00944 20.0059 6.44491C20.8517 5.88038 21.8458 5.57937 22.8626 5.57999C24.2242 5.58245 25.5293 6.12442 26.4921 7.08721C27.4549 8.04999 27.9969 9.35511 27.9993 10.7167Z" fill="#8B5CF6"/>
<path d="M13.2742 10.7167C13.2748 11.7335 12.9738 12.7277 12.4093 13.5734C11.8448 14.4191 11.0421 15.0783 10.1028 15.4678C9.16348 15.8572 8.12978 15.9592 7.13247 15.761C6.13515 15.5628 5.21904 15.0732 4.50004 14.3542C3.78104 13.6352 3.29146 12.7191 3.09324 11.7218C2.89502 10.7244 2.99706 9.69074 3.38647 8.75144C3.77587 7.81214 4.43513 7.00944 5.28084 6.44491C6.12655 5.88038 7.12071 5.57937 8.13753 5.57999C9.49936 5.58163 10.805 6.12334 11.7679 7.0863C12.7309 8.04927 13.2726 9.35485 13.2742 10.7167Z" fill="#8B5CF6"/>
<path d="M15.8438 7.61671C15.7374 7.66968 15.6201 7.69725 15.5013 7.69725C15.3824 7.69725 15.2651 7.66968 15.1587 7.61671C14.7743 7.44001 11.4077 5.69161 11.4077 3.10001C11.4118 2.33451 11.7186 1.60171 12.261 1.06157C12.8035 0.521431 13.5376 0.217821 14.3031 0.217013C14.7161 0.216538 15.1243 0.305368 15.4997 0.477413C15.9396 0.276885 16.4227 0.189817 16.905 0.22417C17.3872 0.258523 17.8531 0.413201 18.2601 0.674063C18.6671 0.934924 19.0023 1.29365 19.2349 1.71744C19.4675 2.14123 19.5902 2.61658 19.5917 3.10001C19.5917 5.69161 16.2282 7.44001 15.8438 7.61671Z" fill="#8B5CF6"/>
<path d="M22.2176 28.2937V30.008C22.2176 30.2135 22.136 30.4106 21.9907 30.556C21.8453 30.7013 21.6482 30.783 21.4426 30.783H19.2726V27.5621C19.2726 27.3565 19.191 27.1594 19.0457 27.0141C18.9003 26.8687 18.7032 26.7871 18.4976 26.7871C18.2921 26.7871 18.095 26.8687 17.9496 27.0141C17.8043 27.1594 17.7226 27.3565 17.7226 27.5621V30.783H13.2679V27.5621C13.2679 27.3565 13.1863 27.1594 13.041 27.0141C12.8956 26.8687 12.6985 26.7871 12.4929 26.7871C12.2874 26.7871 12.0903 26.8687 11.9449 27.0141C11.7996 27.1594 11.7179 27.3565 11.7179 27.5621V30.783H9.54795C9.34241 30.783 9.14528 30.7013 8.99994 30.556C8.8546 30.4106 8.77295 30.2135 8.77295 30.008V28.2937C8.78109 26.6848 9.36323 25.1316 10.4146 23.9138C11.4659 22.6959 12.9175 21.8933 14.5079 21.6504C14.635 21.6318 14.7652 21.6163 14.8954 21.6039C15.0963 21.5832 15.2981 21.5739 15.4999 21.576C15.7008 21.575 15.9015 21.5843 16.1013 21.6039C16.2315 21.6039 16.3586 21.6287 16.4857 21.6504C18.0794 21.8855 19.5353 22.686 20.5876 23.9056C21.64 25.1253 22.2185 26.6828 22.2176 28.2937Z" fill="#8B5CF6"/>
</g>
<defs>
<clipPath id="clip0_2435_11855">
<rect width="31" height="31" fill="white"/>
</clipPath>
</defs>
</svg>
