<svg width="36" height="36" viewBox="0 0 36 36" fill="none" xmlns="http://www.w3.org/2000/svg">
<g clip-path="url(#clip0_2435_11821)">
<path d="M10.7028 20.3354C9.86584 18.2972 9.41134 16.0195 9.34785 13.552C9.34785 13.5326 9.34785 13.5131 9.35003 13.4936C9.56146 11.1517 10.4222 9.53698 11.9098 8.69646C14.1024 7.45622 17.121 8.19218 19.5835 9.23105C18.5078 6.74627 16.4292 4.77302 13.847 3.83941C13.5851 3.74491 13.4488 3.45487 13.544 3.19296C13.6385 2.93034 13.9286 2.79471 14.1905 2.88921C17.2596 3.99881 19.6824 6.44175 20.7696 9.48712C23.323 8.32268 26.6562 7.35659 29.0248 8.69639C30.5125 9.53691 31.3732 11.1516 31.5846 13.4935C31.5868 13.513 31.5868 13.5325 31.5868 13.5513C31.5846 13.6241 31.5824 13.6962 31.5803 13.7685H30.5688H29.7607C29.4815 13.7685 29.2549 13.9943 29.2549 14.2735V16.7114H26.8156C26.5364 16.7114 26.3105 16.9372 26.3105 17.2164V20.0526C26.3105 20.3318 26.5364 20.5583 26.8156 20.5583H29.0349H29.2549V22.3194C28.537 23.5524 27.6531 24.6953 26.6136 25.7321C25.9007 26.4449 24.9874 26.8201 24.0343 26.8201C23.6332 26.8201 23.2248 26.7537 22.8215 26.6181C22.0863 26.3706 21.2941 26.2458 20.4673 26.2458C20.4492 26.2458 20.4319 26.2458 20.4138 26.2465C20.0156 25.9384 19.6173 25.631 19.2184 25.3237C18.1866 24.5272 17.1549 23.7307 16.1225 22.9349L13.5072 20.9162C12.9985 20.5252 12.4401 20.3354 11.8001 20.3354H10.7028V20.3354ZM20.4023 7.69289C20.9636 7.86319 21.5495 7.94974 22.1425 7.94974C25.4578 7.94974 28.1546 5.25213 28.1546 1.93697C28.1546 1.50912 28.1092 1.08204 28.0183 0.667898C27.9793 0.488953 27.8474 0.345375 27.6727 0.292008C27.1128 0.121711 26.5277 0.0351562 25.9339 0.0351562C22.6187 0.0351562 19.9211 2.73206 19.9211 6.04793C19.9211 6.47142 19.9658 6.89787 20.0553 7.31482C20.0935 7.49454 20.2262 7.63952 20.4023 7.69289ZM30.731 26.859C30.1762 26.6671 29.5825 26.701 29.0586 26.9557L21.4795 30.6295C21.4146 30.7391 21.3432 30.8452 21.2645 30.9469C20.7428 31.623 19.9868 32.0544 19.1354 32.164C18.9954 32.1821 18.8562 32.1908 18.7184 32.1908C18.0135 32.1908 17.3346 31.9606 16.7711 31.5248L11.684 27.5986C11.4625 27.4283 11.4221 27.1109 11.5924 26.8901C11.7626 26.6693 12.0801 26.6282 12.3008 26.7985L17.3894 30.7255C17.8497 31.0819 18.424 31.2363 19.0063 31.162C19.5899 31.087 20.1079 30.7919 20.4643 30.3301C20.5574 30.2082 20.6382 30.0784 20.7038 29.9412C20.7146 29.9182 20.7255 29.895 20.7355 29.872C20.7485 29.8439 20.7601 29.8157 20.7709 29.7875C20.7709 29.7868 20.7709 29.7861 20.7716 29.7854C21.1208 28.8878 20.8452 27.8561 20.0667 27.2552C19.6425 26.9269 19.2183 26.5994 18.7933 26.2718C18.7803 26.2616 18.768 26.2523 18.755 26.2422C17.6721 25.4059 16.5884 24.5705 15.5055 23.7343L12.8902 21.7171C12.5612 21.4638 12.2148 21.3455 11.8 21.3455H0.964844V30.5364H6.12487C6.20566 30.5364 6.28645 30.5559 6.35859 30.5935C7.54616 31.2139 8.62476 31.786 9.57637 32.2911C14.1094 34.6965 16.3849 35.9042 18.5227 35.9627C20.6504 36.0211 22.827 34.9374 27.1596 32.7781C28.2728 32.224 29.5339 31.5963 30.9697 30.9001V30.8994C31.4942 30.6461 31.8888 30.2003 32.0815 29.6454C32.2742 29.0899 32.241 28.4954 31.987 27.9709C31.7324 27.447 31.2865 27.0516 30.731 26.859ZM32.5946 17.7215C32.3161 17.7215 32.0895 17.4949 32.0895 17.2164V14.7786H30.2656V17.2164C30.2656 17.4949 30.0391 17.7215 29.7606 17.7215H27.3205V19.5476H29.7606C30.0391 19.5476 30.2656 19.7741 30.2656 20.0526V22.4927H32.0895V20.0526C32.0895 19.7741 32.3161 19.5476 32.5946 19.5476H35.0346V17.7215H32.5946Z" fill="#8B5CF6"/>
</g>
<defs>
<clipPath id="clip0_2435_11821">
<rect width="36" height="36" fill="white"/>
</clipPath>
</defs>
</svg>
