<svg width="31" height="31" viewBox="0 0 31 31" fill="none" xmlns="http://www.w3.org/2000/svg">
<path d="M30.0918 22.917H0.908203C0.406633 22.917 0 23.3236 0 23.8252C0 25.9987 1.76197 27.7607 3.93555 27.7607H27.0645C29.238 27.7607 31 25.9988 31 23.8252C31 23.3236 30.5934 22.917 30.0918 22.917Z" fill="#8B5CF6"/>
<path d="M17.9219 6.14478V5.66113C17.9219 4.32359 16.8375 3.23926 15.5 3.23926C14.1625 3.23926 13.0781 4.32359 13.0781 5.66113V6.14478C13.8727 6.0252 14.6816 5.96387 15.5 5.96387C16.3184 5.96387 17.1273 6.0252 17.9219 6.14478Z" fill="#8B5CF6"/>
<path d="M25.561 11.9477C22.8736 9.26028 19.3005 7.78027 15.4999 7.78027C11.6993 7.78027 8.12629 9.26028 5.43886 11.9477C2.96667 14.4199 1.51724 17.6418 1.30078 21.1006H29.699C29.4826 17.6418 28.0332 14.4199 25.561 11.9477Z" fill="#8B5CF6"/>
</svg>
