<svg width="32" height="32" viewBox="0 0 32 32" fill="none" xmlns="http://www.w3.org/2000/svg">
<g clip-path="url(#clip0_2435_11875)">
<path d="M25 13.5625C21.1746 13.5625 18.0625 16.6746 18.0625 20.5C18.0625 21.7671 18.4042 22.9557 18.9999 23.9791L16.9375 25.5832V13.8114C20.321 13.3523 22.9375 10.4449 22.9375 6.9375C22.9375 3.11212 19.8254 0 16 0C12.1746 0 9.0625 3.11212 9.0625 6.9375C9.0625 10.4449 11.679 13.3523 15.0625 13.8114V25.5832L13.0001 23.9791C13.5958 22.9557 13.9375 21.7671 13.9375 20.5C13.9375 16.6746 10.8254 13.5625 7 13.5625C3.17462 13.5625 0.0625 16.6746 0.0625 20.5C0.0625 24.3254 3.17462 27.4375 7 27.4375C8.88462 27.4375 10.5958 26.6817 11.8474 25.4579L15.0625 27.9585V30.125H12C11.4823 30.125 11.0625 30.5448 11.0625 31.0625C11.0625 31.5802 11.4823 32 12 32H20C20.5177 32 20.9375 31.5802 20.9375 31.0625C20.9375 30.5448 20.5177 30.125 20 30.125H16.9375V27.9585L20.1526 25.4579C21.4042 26.6817 23.1154 27.4375 25 27.4375C28.8254 27.4375 31.9375 24.3254 31.9375 20.5C31.9375 16.6746 28.8254 13.5625 25 13.5625Z" fill="#8B5CF6"/>
</g>
<defs>
<clipPath id="clip0_2435_11875">
<rect width="32" height="32" fill="white"/>
</clipPath>
</defs>
</svg>
