<svg width="60" height="60" viewBox="0 0 60 60" fill="none" xmlns="http://www.w3.org/2000/svg">
<rect width="60" height="60" rx="30" fill="#8B5CF6"/>
<g clip-path="url(#clip0_359_1807)">
<path d="M31.5891 29.8244C32.0297 29.374 32.25 28.8325 32.25 28.2C32.25 27.5675 32.0297 27.026 31.5891 26.5756C31.1484 26.1252 30.6188 25.9 30 25.9C29.3812 25.9 28.8516 26.1252 28.4109 26.5756C27.9703 27.026 27.75 27.5675 27.75 28.2C27.75 28.8325 27.9703 29.374 28.4109 29.8244C28.8516 30.2748 29.3812 30.5 30 30.5C30.6188 30.5 31.1484 30.2748 31.5891 29.8244ZM30 42C26.9812 39.3742 24.7266 36.9352 23.2359 34.6831C21.7453 32.431 21 30.3467 21 28.43C21 25.555 21.9047 23.2646 23.7141 21.5588C25.5234 19.8529 27.6188 19 30 19C32.3812 19 34.4766 19.8529 36.2859 21.5588C38.0953 23.2646 39 25.555 39 28.43C39 30.3467 38.2547 32.431 36.7641 34.6831C35.2734 36.9352 33.0188 39.3742 30 42Z" fill="white"/>
</g>
<defs>
<clipPath id="clip0_359_1807">
<rect width="24" height="24" fill="white" transform="translate(18 18)"/>
</clipPath>
</defs>
</svg>
