<svg width="60" height="60" viewBox="0 0 60 60" fill="none" xmlns="http://www.w3.org/2000/svg">
<rect width="60" height="60" rx="30" fill="#8B5CF6"/>
<g clip-path="url(#clip0_365_2682)">
<path d="M32.2727 39.4545C29.8364 39.4545 27.7727 38.6091 26.0818 36.9182C24.3909 35.2273 23.5455 33.1636 23.5455 30.7273C23.5455 28.3091 24.3909 26.25 26.0818 24.55C27.7727 22.85 29.8364 22 32.2727 22C34.6909 22 36.75 22.85 38.45 24.55C40.15 26.25 41 28.3091 41 30.7273C41 33.1636 40.15 35.2273 38.45 36.9182C36.75 38.6091 34.6909 39.4545 32.2727 39.4545ZM34.7545 34.7909L36.3091 33.2364L33.3636 30.2909V26.3636H31.1818V31.1909L34.7545 34.7909ZM18.0909 27.4545V25.2727H22.4545V27.4545H18.0909ZM17 31.8182V29.6364H22.4545V31.8182H17ZM18.0909 36.1818V34H22.4545V36.1818H18.0909Z" fill="white"/>
</g>
<defs>
<clipPath id="clip0_365_2682">
<rect width="24" height="24" fill="white" transform="translate(17 18)"/>
</clipPath>
</defs>
</svg>
