<svg width="60" height="60" viewBox="0 0 60 60" fill="none" xmlns="http://www.w3.org/2000/svg">
<rect width="60" height="60" rx="30" fill="#8B5CF6"/>
<g clip-path="url(#clip0_362_1929)">
<path d="M23.4545 34.4737C22.8545 34.4737 22.3409 34.2572 21.9136 33.8243C21.4864 33.3914 21.2727 32.8711 21.2727 32.2632C21.2727 31.6553 21.4864 31.1349 21.9136 30.702C22.3409 30.2691 22.8545 30.0526 23.4545 30.0526C24.0545 30.0526 24.5682 30.2691 24.9955 30.702C25.4227 31.1349 25.6364 31.6553 25.6364 32.2632C25.6364 32.8711 25.4227 33.3914 24.9955 33.8243C24.5682 34.2572 24.0545 34.4737 23.4545 34.4737ZM36.5455 34.4737C35.9455 34.4737 35.4318 34.2572 35.0045 33.8243C34.5773 33.3914 34.3636 32.8711 34.3636 32.2632C34.3636 31.6553 34.5773 31.1349 35.0045 30.702C35.4318 30.2691 35.9455 30.0526 36.5455 30.0526C37.1455 30.0526 37.6591 30.2691 38.0864 30.702C38.5136 31.1349 38.7273 31.6553 38.7273 32.2632C38.7273 32.8711 38.5136 33.3914 38.0864 33.8243C37.6591 34.2572 37.1455 34.4737 36.5455 34.4737ZM30 33.3684C29.2364 33.3684 28.5909 33.1013 28.0636 32.5671C27.5364 32.0329 27.2727 31.3789 27.2727 30.6053C27.2727 29.8316 27.5364 29.1776 28.0636 28.6434C28.5909 28.1092 29.2364 27.8421 30 27.8421C30.7636 27.8421 31.4091 28.1092 31.9364 28.6434C32.4636 29.1776 32.7273 29.8316 32.7273 30.6053C32.7273 31.3789 32.4636 32.0329 31.9364 32.5671C31.4091 33.1013 30.7636 33.3684 30 33.3684ZM24.6545 40C24.9091 38.7289 25.5318 37.6743 26.5227 36.8362C27.5136 35.998 28.6727 35.5789 30 35.5789C31.3273 35.5789 32.4864 35.998 33.4773 36.8362C34.4682 37.6743 35.0909 38.7289 35.3455 40H24.6545ZM19.0909 40C19.0909 38.7842 19.5182 37.7434 20.3727 36.8776C21.2273 36.0118 22.2545 35.5789 23.4545 35.5789C23.7636 35.5789 24.0545 35.6066 24.3273 35.6618C24.6 35.7171 24.8636 35.8 25.1182 35.9105C24.5727 36.4447 24.1182 37.0572 23.7545 37.748C23.3909 38.4388 23.1455 39.1895 23.0182 40H19.0909ZM36.9818 40C36.8545 39.1895 36.6091 38.4388 36.2455 37.748C35.8818 37.0572 35.4273 36.4447 34.8818 35.9105C35.1364 35.8 35.4 35.7171 35.6727 35.6618C35.9455 35.6066 36.2364 35.5789 36.5455 35.5789C37.7455 35.5789 38.7727 36.0118 39.6273 36.8776C40.4818 37.7434 40.9091 38.7842 40.9091 40H36.9818ZM19.3091 30.0526L18 28.2842L30 19L34.3636 22.3711V20.1053H37.6364V24.9132L42 28.2842L40.6909 30.0526L30 21.7908L19.3091 30.0526Z" fill="#F9F9F9"/>
</g>
<defs>
<clipPath id="clip0_362_1929">
<rect width="24" height="24" fill="white" transform="translate(18 16)"/>
</clipPath>
</defs>
</svg>
