<svg width="60" height="60" viewBox="0 0 60 60" fill="none" xmlns="http://www.w3.org/2000/svg">
<rect width="60" height="60" rx="30" fill="#8B5CF6"/>
<g clip-path="url(#clip0_350_2725)">
<g clip-path="url(#clip1_350_2725)">
<path d="M26.5101 45.295C26.0397 44.825 25.8044 44.26 25.8044 43.6C25.8044 42.94 26.0397 42.375 26.5101 41.905C26.9805 41.435 27.546 41.2 28.2067 41.2C28.8673 41.2 29.4328 41.435 29.9032 41.905C30.3737 42.375 30.6089 42.94 30.6089 43.6C30.6089 44.26 30.3737 44.825 29.9032 45.295C29.4328 45.765 28.8673 46 28.2067 46C27.546 46 26.9805 45.765 26.5101 45.295ZM38.5212 45.295C38.0508 44.825 37.8155 44.26 37.8155 43.6C37.8155 42.94 38.0508 42.375 38.5212 41.905C38.9916 41.435 39.5571 41.2 40.2178 41.2C40.8784 41.2 41.4439 41.435 41.9143 41.905C42.3848 42.375 42.62 42.94 42.62 43.6C42.62 44.26 42.3848 44.825 41.9143 45.295C41.4439 45.765 40.8784 46 40.2178 46C39.5571 46 38.9916 45.765 38.5212 45.295ZM26.0447 24.4H43.761C44.2215 24.4 44.5718 24.605 44.812 25.015C45.0522 25.425 45.0622 25.84 44.842 26.26L40.5781 33.94C40.3579 34.34 40.0626 34.65 39.6923 34.87C39.3219 35.09 38.9166 35.2 38.4761 35.2H29.5279L28.2067 37.6H42.62V40H28.2067C27.3058 40 26.6252 39.605 26.1648 38.815C25.7043 38.025 25.6843 37.24 26.1047 36.46L27.7262 33.52L23.4022 24.4H21V22H24.9036L26.0447 24.4Z" fill="#8B5CF6"/>
</g>
</g>
<g clip-path="url(#clip2_350_2725)">
<path d="M23.5101 41.295C23.0397 40.825 22.8044 40.26 22.8044 39.6C22.8044 38.94 23.0397 38.375 23.5101 37.905C23.9805 37.435 24.546 37.2 25.2067 37.2C25.8673 37.2 26.4328 37.435 26.9032 37.905C27.3737 38.375 27.6089 38.94 27.6089 39.6C27.6089 40.26 27.3737 40.825 26.9032 41.295C26.4328 41.765 25.8673 42 25.2067 42C24.546 42 23.9805 41.765 23.5101 41.295ZM35.5212 41.295C35.0508 40.825 34.8155 40.26 34.8155 39.6C34.8155 38.94 35.0508 38.375 35.5212 37.905C35.9916 37.435 36.5571 37.2 37.2178 37.2C37.8784 37.2 38.4439 37.435 38.9143 37.905C39.3848 38.375 39.62 38.94 39.62 39.6C39.62 40.26 39.3848 40.825 38.9143 41.295C38.4439 41.765 37.8784 42 37.2178 42C36.5571 42 35.9916 41.765 35.5212 41.295ZM23.0447 20.4H40.761C41.2215 20.4 41.5718 20.605 41.812 21.015C42.0522 21.425 42.0622 21.84 41.842 22.26L37.5781 29.94C37.3579 30.34 37.0626 30.65 36.6923 30.87C36.3219 31.09 35.9166 31.2 35.4761 31.2H26.5279L25.2067 33.6H39.62V36H25.2067C24.3058 36 23.6252 35.605 23.1648 34.815C22.7043 34.025 22.6843 33.24 23.1047 32.46L24.7262 29.52L20.4022 20.4H18V18H21.9036L23.0447 20.4Z" fill="white"/>
</g>
<defs>
<clipPath id="clip0_350_2725">
<rect width="18" height="16" fill="white" transform="translate(21 22)"/>
</clipPath>
<clipPath id="clip1_350_2725">
<rect width="24" height="24" fill="white" transform="translate(21 22)"/>
</clipPath>
<clipPath id="clip2_350_2725">
<rect width="24" height="24" fill="white" transform="translate(18 18)"/>
</clipPath>
</defs>
</svg>
