<svg width="60" height="60" viewBox="0 0 60 60" fill="none" xmlns="http://www.w3.org/2000/svg">
<rect width="60" height="60" rx="30" fill="#F9F9F9"/>
<path d="M34.26 41L30.12 36.5823L31.8 34.7896L34.26 37.4146L40.32 30.9482L42 32.7409L34.26 41ZM24.21 28.7393C23.27 27.7363 22.8 26.5305 22.8 25.122C22.8 23.7134 23.27 22.5076 24.21 21.5046C25.15 20.5015 26.28 20 27.6 20C28.92 20 30.05 20.5015 30.99 21.5046C31.93 22.5076 32.4 23.7134 32.4 25.122C32.4 26.5305 31.93 27.7363 30.99 28.7393C30.05 29.7424 28.92 30.2439 27.6 30.2439C26.28 30.2439 25.15 29.7424 24.21 28.7393ZM31.02 31.9085L26.64 36.5823L30.3 40.4878H18V36.9024C18 36.1982 18.17 35.5366 18.51 34.9177C18.85 34.2988 19.32 33.8293 19.92 33.5091C20.94 32.9543 22.09 32.4848 23.37 32.1006C24.65 31.7165 26.06 31.5244 27.6 31.5244C28.2 31.5244 28.785 31.5564 29.355 31.6204C29.925 31.6845 30.48 31.7805 31.02 31.9085Z" fill="#8B5CF6"/>
</svg>
