<svg width="16" height="16" viewBox="0 0 16 16" fill="none" xmlns="http://www.w3.org/2000/svg">
<g clip-path="url(#clip0_398_2976)">
<path d="M14.125 0C14.375 0 14.5833 0.083333 14.75 0.25C14.9167 0.416666 15 0.625 15 0.875V4.25C15 4.43056 14.9375 4.59375 14.8125 4.73958C14.6875 4.88542 14.5278 4.98611 14.3333 5.04167L11.4583 5.625C11.2639 5.65278 11.066 5.63542 10.8646 5.57292C10.6632 5.51042 10.5 5.41667 10.375 5.29167L8.41667 3.33333C7.88889 3.63889 7.38889 3.97569 6.91667 4.34375C6.44444 4.71181 5.99306 5.11111 5.5625 5.54167C5.10417 5.98611 4.68403 6.44792 4.30208 6.92708C3.92014 7.40625 3.59028 7.90278 3.3125 8.41667L5.33333 10.4583C5.44444 10.5694 5.52083 10.7014 5.5625 10.8542C5.60417 11.0069 5.61111 11.1944 5.58333 11.4167L5.04167 14.3333C5.01389 14.5139 4.92361 14.6701 4.77083 14.8021C4.61806 14.934 4.44444 15 4.25 15H0.875C0.625 15 0.416666 14.9167 0.25 14.75C0.083333 14.5833 0 14.375 0 14.125C0 12.3889 0.378471 10.6736 1.13542 8.97917C1.89236 7.28472 2.96528 5.74306 4.35417 4.35417C5.74306 2.96528 7.28472 1.89236 8.97917 1.13542C10.6736 0.378471 12.3889 0 14.125 0Z" fill="#8B5CF6"/>
</g>
<defs>
<clipPath id="clip0_398_2976">
<rect width="16" height="16" fill="white"/>
</clipPath>
</defs>
</svg>
