<svg width="24" height="24" viewBox="0 0 24 24" fill="none" xmlns="http://www.w3.org/2000/svg">
<path d="M10.8333 23.345V12.67L1.5 7.27419V16.6367C1.5 17.0645 1.60208 17.4534 1.80625 17.8034C2.01042 18.1534 2.29722 18.4353 2.66667 18.6492L10.8333 23.345ZM13.1667 23.345L21.3333 18.6492C21.7028 18.4353 21.9896 18.1534 22.1938 17.8034C22.3979 17.4534 22.5 17.0645 22.5 16.6367V7.27419L13.1667 12.67V23.345ZM17.8042 7.30335L21.2458 5.29085L13.1667 0.653353C12.7972 0.439464 12.4083 0.33252 12 0.33252C11.5917 0.33252 11.2028 0.439464 10.8333 0.653353L8.52917 1.96585L17.8042 7.30335ZM12 10.6575L15.4708 8.67419L6.225 3.30752L2.725 5.32002L12 10.6575Z" fill="#8B5CF6"/>
</svg>
