<svg width="18" height="19" viewBox="0 0 18 19" fill="none" xmlns="http://www.w3.org/2000/svg">
<path d="M2.84035 19V14.915C1.9409 14.0917 1.24265 13.1298 0.745591 12.0294C0.24853 10.929 0 9.76917 0 8.55C0 6.175 0.828434 4.15625 2.4853 2.49375C4.14217 0.83125 6.15408 0 8.52104 0C10.4935 0 12.2411 0.581875 13.7638 1.74562C15.2866 2.90937 16.2768 4.42542 16.7344 6.29375L17.9652 11.1625C18.0441 11.4633 17.9889 11.7365 17.7995 11.9819C17.6101 12.2273 17.3577 12.35 17.0421 12.35H15.1485V15.2C15.1485 15.7225 14.9631 16.1698 14.5923 16.5419C14.2215 16.914 13.7757 17.1 13.255 17.1H11.3614V19H9.46782V15.2H13.255V10.45H15.8113L14.9118 6.76875C14.5489 5.32792 13.7757 4.15625 12.5922 3.25375C11.4087 2.35125 10.0517 1.9 8.52104 1.9C6.69059 1.9 5.1284 2.54125 3.83447 3.82375C2.54053 5.10625 1.89356 6.66583 1.89356 8.5025C1.89356 9.4525 2.08687 10.355 2.47347 11.21C2.86007 12.065 3.40842 12.825 4.1185 13.49L4.73391 14.06V19H2.84035ZM7.57426 12.35H9.46782L9.60984 11.1625C9.73608 11.115 9.85048 11.0596 9.95305 10.9963C10.0556 10.9329 10.1463 10.8617 10.2252 10.7825L11.314 11.2575L12.2608 9.6425L11.314 8.93C11.3456 8.80333 11.3614 8.67667 11.3614 8.55C11.3614 8.42333 11.3456 8.29667 11.314 8.17L12.2608 7.4575L11.314 5.8425L10.2252 6.3175C10.1463 6.23833 10.0556 6.16708 9.95305 6.10375C9.85048 6.04042 9.73608 5.985 9.60984 5.9375L9.46782 4.75H7.57426L7.43224 5.9375C7.306 5.985 7.1916 6.04042 7.08903 6.10375C6.98646 6.16708 6.89573 6.23833 6.81683 6.3175L5.72803 5.8425L4.78125 7.4575L5.72803 8.17C5.69647 8.29667 5.68069 8.42333 5.68069 8.55C5.68069 8.67667 5.69647 8.80333 5.72803 8.93L4.78125 9.6425L5.72803 11.2575L6.81683 10.7825C6.89573 10.8617 6.98646 10.9329 7.08903 10.9963C7.1916 11.0596 7.306 11.115 7.43224 11.1625L7.57426 12.35ZM8.52104 9.975C8.12655 9.975 7.79123 9.83646 7.51508 9.55937C7.23894 9.28229 7.10087 8.94583 7.10087 8.55C7.10087 8.15417 7.23894 7.81771 7.51508 7.54063C7.79123 7.26354 8.12655 7.125 8.52104 7.125C8.91553 7.125 9.25085 7.26354 9.52699 7.54063C9.80314 7.81771 9.94121 8.15417 9.94121 8.55C9.94121 8.94583 9.80314 9.28229 9.52699 9.55937C9.25085 9.83646 8.91553 9.975 8.52104 9.975Z" fill="#3B82F6"/>
</svg>
