<svg width="227" height="195" viewBox="0 0 227 195" fill="none" xmlns="http://www.w3.org/2000/svg">
<path d="M70.1045 62.2544L84.6512 150.689H186.641L193.515 75.5096L70.1045 62.2544Z" fill="white"/>
<path d="M171.271 90.158C171.981 90.221 172.671 90.4244 173.302 90.7564C173.933 91.0883 174.492 91.5423 174.946 92.0919C175.4 92.6416 175.74 93.2759 175.947 93.9581C176.154 94.6403 176.224 95.3569 176.152 96.0662L172.481 132.456C172.385 133.346 171.952 134.166 171.272 134.747C170.591 135.329 169.714 135.628 168.819 135.584C167.925 135.54 167.082 135.155 166.462 134.509C165.842 133.864 165.492 133.005 165.484 132.11L165.408 95.5374C165.407 94.7889 165.561 94.0482 165.862 93.3627C166.162 92.6772 166.602 92.0618 167.154 91.5557C167.705 91.0496 168.356 90.664 169.065 90.4233C169.774 90.1827 170.525 90.0923 171.271 90.158Z" fill="url(#paint0_linear_925_4872)"/>
<path d="M191.329 99.4473L186.641 150.694H159.744C150.851 127.402 166.659 101.979 191.329 99.4473Z" fill="url(#paint1_linear_925_4872)" style="mix-blend-mode:multiply"/>
<path d="M142.7 193.47C147.749 193.47 151.842 189.377 151.842 184.328C151.842 179.279 147.749 175.186 142.7 175.186C137.652 175.186 133.559 179.279 133.559 184.328C133.559 189.377 137.652 193.47 142.7 193.47Z" fill="#101129"/>
<path d="M142.701 187.622C144.521 187.622 145.996 186.147 145.996 184.328C145.996 182.508 144.521 181.033 142.701 181.033C140.881 181.033 139.406 182.508 139.406 184.328C139.406 186.147 140.881 187.622 142.701 187.622Z" fill="#F5F5F5"/>
<path d="M52.6897 193.47C57.7387 193.47 61.8316 189.377 61.8316 184.328C61.8316 179.279 57.7387 175.186 52.6897 175.186C47.6408 175.186 43.5479 179.279 43.5479 184.328C43.5479 189.377 47.6408 193.47 52.6897 193.47Z" fill="#101129"/>
<path d="M52.6902 187.622C54.5099 187.622 55.985 186.147 55.985 184.328C55.985 182.508 54.5099 181.033 52.6902 181.033C50.8706 181.033 49.3955 182.508 49.3955 184.328C49.3955 186.147 50.8706 187.622 52.6902 187.622Z" fill="#F5F5F5"/>
<path d="M52.6901 195C50.5783 195 48.514 194.374 46.7581 193.201C45.0022 192.027 43.6336 190.36 42.8255 188.409C42.0173 186.458 41.8059 184.311 42.2179 182.24C42.6299 180.168 43.6468 178.266 45.14 176.773C46.6333 175.279 48.5358 174.262 50.6071 173.85C52.6783 173.438 54.8251 173.65 56.7762 174.458C58.7272 175.266 60.3948 176.635 61.5681 178.391C62.7413 180.147 63.3675 182.211 63.3675 184.323C63.3675 187.155 62.2426 189.87 60.2402 191.873C58.2378 193.875 55.5219 195 52.6901 195ZM52.6901 176.696C51.1817 176.696 49.7071 177.143 48.4529 177.981C47.1987 178.819 46.2212 180.01 45.6439 181.404C45.0667 182.798 44.9157 184.331 45.2099 185.811C45.5042 187.29 46.2306 188.649 47.2972 189.716C48.3638 190.782 49.7228 191.509 51.2022 191.803C52.6816 192.097 54.2151 191.946 55.6087 191.369C57.0023 190.792 58.1935 189.814 59.0315 188.56C59.8695 187.306 60.3168 185.831 60.3168 184.323C60.3128 182.303 59.5075 180.367 58.0776 178.94C56.6478 177.513 54.7102 176.711 52.6901 176.711V176.696Z" fill="#101129"/>
<path d="M142.716 195C140.604 195 138.539 194.374 136.783 193.201C135.028 192.027 133.659 190.36 132.851 188.409C132.043 186.458 131.831 184.311 132.243 182.24C132.655 180.168 133.672 178.266 135.165 176.773C136.659 175.279 138.561 174.262 140.632 173.85C142.704 173.438 144.851 173.65 146.802 174.458C148.753 175.266 150.42 176.635 151.593 178.391C152.767 180.147 153.393 182.211 153.393 184.323C153.393 187.155 152.268 189.87 150.266 191.873C148.263 193.875 145.547 195 142.716 195ZM142.716 176.696C141.207 176.696 139.733 177.143 138.478 177.981C137.224 178.819 136.247 180.01 135.669 181.404C135.092 182.798 134.941 184.331 135.235 185.811C135.53 187.29 136.256 188.649 137.323 189.716C138.389 190.782 139.748 191.509 141.228 191.803C142.707 192.097 144.241 191.946 145.634 191.369C147.028 190.792 148.219 189.814 149.057 188.56C149.895 187.306 150.342 185.831 150.342 184.323C150.338 182.303 149.533 180.367 148.103 178.94C146.673 177.513 144.736 176.711 142.716 176.711V176.696Z" fill="#101129"/>
<path d="M57.2061 33.3298L63.6802 26.8557L65.837 29.0126L59.3629 35.4867L57.2061 33.3298Z" fill="#101129"/>
<path d="M49.2275 20.4548H52.2782V29.612H49.2275V20.4548Z" fill="#101129"/>
<path d="M63.3467 39.8726H72.5038V42.9232H63.3467V39.8726Z" fill="#101129"/>
<path d="M70.104 62.2544H30.3281L54.1947 150.689H84.6507L70.104 62.2544Z" fill="white"/>
<path d="M188.033 152.219H83.354L68.2734 60.5256L195.172 74.152L188.033 152.219ZM85.9471 149.168H185.247L191.857 76.8672L71.9343 63.9831L85.9471 149.168Z" fill="#101129"/>
<path d="M86.4463 152.219H53.026L28.3154 60.729H71.381L86.4463 152.219ZM55.3649 149.168H82.8566L68.8082 63.7797H32.322L55.3649 149.168Z" fill="#101129"/>
<path d="M73.6385 63.7798H29.6781L10.3164 43.5842H54.6022L73.6385 63.7798ZM30.9797 60.7291H66.5711L53.2853 46.6349H17.4703L30.9797 60.7291Z" fill="#101129"/>
<path d="M50.219 50.3415H5.07386C3.71383 50.2991 2.42369 49.729 1.47664 48.752C0.529596 47.775 0 46.4677 0 45.107C0 43.7463 0.529596 42.4391 1.47664 41.462C2.42369 40.485 3.71383 39.915 5.07386 39.8726H50.219C51.579 39.915 52.8691 40.485 53.8162 41.462C54.7632 42.4391 55.2928 43.7463 55.2928 45.107C55.2928 46.4677 54.7632 47.775 53.8162 48.752C52.8691 49.729 51.579 50.2991 50.219 50.3415ZM5.07386 42.9029C4.51291 42.93 3.98389 43.1719 3.59647 43.5785C3.20904 43.985 2.99293 44.5251 2.99293 45.0867C2.99293 45.6483 3.20904 46.1884 3.59647 46.5949C3.98389 47.0015 4.51291 47.2434 5.07386 47.2705H50.219C50.7799 47.2434 51.3089 47.0015 51.6964 46.5949C52.0838 46.1884 52.2999 45.6483 52.2999 45.0867C52.2999 44.5251 52.0838 43.985 51.6964 43.5785C51.3089 43.1719 50.7799 42.93 50.219 42.9029H5.07386Z" fill="#101129"/>
<path d="M50.2194 41.3774H5.07432C4.11436 41.413 3.20557 41.8193 2.539 42.511C1.87243 43.2027 1.5 44.126 1.5 45.0866C1.5 46.0472 1.87243 46.9704 2.539 47.6621C3.20557 48.3538 4.11436 48.7601 5.07432 48.7957H50.2194C51.1794 48.7601 52.0882 48.3538 52.7547 47.6621C53.4213 46.9704 53.7937 46.0472 53.7937 45.0866C53.7937 44.126 53.4213 43.2027 52.7547 42.511C52.0882 41.8193 51.1794 41.413 50.2194 41.3774Z" fill="#101129"/>
<path d="M86.1767 185.853H52.6699V150.689H55.7206V182.802H83.126V150.689H86.1767V185.853Z" fill="#101129"/>
<path d="M173.742 185.853H83.126V150.689H86.1767V182.802H173.742V185.853Z" fill="#101129"/>
<path d="M84.6507 193.47C89.6996 193.47 93.7926 189.377 93.7926 184.328C93.7926 179.279 89.6996 175.186 84.6507 175.186C79.6018 175.186 75.5088 179.279 75.5088 184.328C75.5088 189.377 79.6018 193.47 84.6507 193.47Z" fill="#101129"/>
<path d="M173.746 193.47C178.795 193.47 182.888 189.377 182.888 184.328C182.888 179.279 178.795 175.186 173.746 175.186C168.697 175.186 164.604 179.279 164.604 184.328C164.604 189.377 168.697 193.47 173.746 193.47Z" fill="#101129"/>
<path d="M84.651 195C82.5393 195 80.4749 194.374 78.719 193.201C76.9631 192.027 75.5946 190.36 74.7864 188.409C73.9783 186.458 73.7668 184.311 74.1788 182.24C74.5908 180.168 75.6077 178.266 77.101 176.773C78.5942 175.279 80.4968 174.262 82.568 173.85C84.6392 173.438 86.7861 173.65 88.7371 174.458C90.6882 175.266 92.3557 176.635 93.529 178.391C94.7022 180.147 95.3285 182.211 95.3285 184.323C95.3285 187.155 94.2035 189.87 92.2011 191.873C90.1987 193.875 87.4829 195 84.651 195ZM84.651 176.696C83.1426 176.696 81.6681 177.143 80.4139 177.981C79.1597 178.819 78.1821 180.01 77.6049 181.404C77.0276 182.798 76.8766 184.331 77.1709 185.811C77.4652 187.29 78.1915 188.649 79.2581 189.716C80.3248 190.782 81.6837 191.509 83.1631 191.803C84.6426 192.097 86.1761 191.946 87.5697 191.369C88.9633 190.792 90.1544 189.814 90.9924 188.56C91.8305 187.306 92.2778 185.831 92.2778 184.323C92.2737 182.303 91.4684 180.367 90.0386 178.94C88.6087 177.513 86.6711 176.711 84.651 176.711V176.696Z" fill="#101129"/>
<path d="M173.731 195C171.619 195 169.555 194.374 167.799 193.201C166.043 192.027 164.675 190.36 163.866 188.409C163.058 186.458 162.847 184.311 163.259 182.24C163.671 180.168 164.688 178.266 166.181 176.773C167.674 175.279 169.577 174.262 171.648 173.85C173.719 173.438 175.866 173.65 177.817 174.458C179.768 175.266 181.436 176.635 182.609 178.391C183.782 180.147 184.409 182.211 184.409 184.323C184.409 187.155 183.284 189.87 181.281 191.873C179.279 193.875 176.563 195 173.731 195ZM173.731 176.696C172.223 176.696 170.748 177.143 169.494 177.981C168.24 178.819 167.262 180.01 166.685 181.404C166.108 182.798 165.957 184.331 166.251 185.811C166.545 187.29 167.272 188.649 168.338 189.716C169.405 190.782 170.764 191.509 172.243 191.803C173.723 192.097 175.256 191.946 176.65 191.369C178.043 190.792 179.234 189.814 180.073 188.56C180.911 187.306 181.358 185.831 181.358 184.323C181.354 182.303 180.548 180.367 179.119 178.94C177.689 177.513 175.751 176.711 173.731 176.711V176.696Z" fill="#101129"/>
<path d="M84.6209 187.622C86.4406 187.622 87.9157 186.147 87.9157 184.328C87.9157 182.508 86.4406 181.033 84.6209 181.033C82.8013 181.033 81.3262 182.508 81.3262 184.328C81.3262 186.147 82.8013 187.622 84.6209 187.622Z" fill="#F5F5F5"/>
<path d="M173.746 187.622C175.566 187.622 177.041 186.147 177.041 184.328C177.041 182.508 175.566 181.033 173.746 181.033C171.926 181.033 170.451 182.508 170.451 184.328C170.451 186.147 171.926 187.622 173.746 187.622Z" fill="#F5F5F5"/>
<path d="M102.691 83.5227C104.237 83.66 105.675 84.3714 106.723 85.5168C107.77 86.6621 108.351 88.1583 108.35 89.7105V132.064C108.309 132.94 107.947 133.771 107.332 134.396C106.717 135.021 105.892 135.397 105.017 135.452C104.142 135.507 103.277 135.236 102.589 134.693C101.9 134.149 101.437 133.371 101.288 132.507L95.9794 90.4884C95.8634 89.568 95.9551 88.6333 96.2475 87.7529C96.54 86.8725 97.0259 86.0688 97.6696 85.4008C98.3133 84.7327 99.0984 84.2173 99.9673 83.8923C100.836 83.5673 101.767 83.441 102.691 83.5227Z" fill="url(#paint2_linear_925_4872)"/>
<path d="M138.76 87.2242C139.577 87.297 140.37 87.53 141.096 87.9099C141.822 88.2898 142.466 88.8092 142.992 89.4382C143.517 90.0672 143.913 90.7936 144.157 91.5758C144.401 92.358 144.488 93.1806 144.414 93.9967L140.916 132.359C140.896 133.303 140.502 134.2 139.82 134.853C139.138 135.507 138.225 135.862 137.281 135.842C136.337 135.822 135.44 135.427 134.786 134.746C134.133 134.064 133.778 133.151 133.798 132.207L131.978 93.7476C131.933 92.8566 132.079 91.9663 132.408 91.1369C132.736 90.3076 133.239 89.5583 133.882 88.9399C134.525 88.3215 135.293 87.8484 136.135 87.5524C136.977 87.2564 137.872 87.1444 138.76 87.2242Z" fill="url(#paint3_linear_925_4872)"/>
<path d="M6.17188 191.949H173.746V195H6.17188V191.949Z" fill="#101129"/>
<path d="M110.276 57.0886V54.0379C111.166 54.101 112.061 54.0446 112.936 53.8701L113.683 56.8242C112.566 57.0733 111.419 57.1623 110.276 57.0886ZM105.192 57.0886H102.141V54.0379H105.192V57.0886ZM118.646 53.3769L116.139 51.6431C116.596 50.9853 116.905 50.2357 117.044 49.4466L120.049 49.955C119.838 51.185 119.359 52.3533 118.646 53.3769ZM116.327 45.6078C115.91 44.9234 115.352 44.3357 114.69 43.8842L116.408 41.3419C117.437 42.0393 118.304 42.9496 118.951 44.0113L116.327 45.6078ZM110.734 42.9232H107.683V39.8725H110.734V42.9232ZM102.599 42.9232C101.492 42.9811 100.381 42.93 99.2838 42.7707L99.8279 39.7657C100.746 39.888 101.674 39.9238 102.599 39.8725V42.9232ZM94.0519 39.964C93.211 39.0945 92.5402 38.0753 92.074 36.9591L94.8858 35.7846C95.2051 36.5501 95.6656 37.2487 96.2433 37.8438L94.0519 39.964ZM94.5604 31.7272L91.5859 31.0509C91.8535 29.8702 92.3417 28.7507 93.0248 27.7511L95.5671 29.4697C95.0793 30.146 94.7239 30.9085 94.5197 31.717L94.5604 31.7272ZM98.755 26.963L97.6619 24.0903C98.788 23.6769 99.9809 23.4753 101.18 23.4954V26.5461C100.339 26.5284 99.5027 26.6698 98.7144 26.963H98.755ZM130.711 26.5563V23.5056C131.623 23.5654 132.538 23.5262 133.441 23.3886L134.062 26.3783C132.942 26.5656 131.804 26.6253 130.67 26.5563H130.711ZM125.627 26.5563H122.576V23.5056H125.627V26.5563ZM117.491 26.5563H114.441V23.5056H117.491V26.5563ZM109.356 26.5563H106.306V23.5056H109.356V26.5563ZM139.156 23.1395L136.721 21.2989C137.212 20.6646 137.559 19.9306 137.738 19.1482L140.717 19.799C140.445 21.0125 139.913 22.1524 139.156 23.1395ZM137.845 14.3993C137.845 14.3484 137.606 14.3688 140.895 14.3688L137.845 14.3993Z" fill="#A9AFC4"/>
<path d="M139.345 12.6297C139.345 11.6869 139.53 10.7534 139.891 9.88233C140.252 9.0113 140.781 8.21986 141.447 7.55321C142.114 6.88655 142.906 6.35772 143.777 5.99693C144.648 5.63614 145.581 5.45044 146.524 5.45044H152.051C152.051 6.39366 151.865 7.32765 151.504 8.19901C151.143 9.07037 150.613 9.86204 149.946 10.5288C149.279 11.1955 148.487 11.7242 147.615 12.0847C146.744 12.4452 145.81 12.6304 144.866 12.6297H139.345Z" fill="url(#paint4_linear_925_4872)" style="mix-blend-mode:multiply"/>
<path d="M139.345 12.6297C139.345 11.6869 139.159 10.7534 138.798 9.88233C138.437 9.0113 137.909 8.21986 137.242 7.55321C136.575 6.88655 135.784 6.35772 134.913 5.99693C134.042 5.63614 133.108 5.45044 132.165 5.45044H126.639C126.639 6.39366 126.825 7.32765 127.186 8.19901C127.547 9.07037 128.076 9.86204 128.743 10.5288C129.41 11.1955 130.202 11.7242 131.074 12.0847C131.946 12.4452 132.88 12.6304 133.823 12.6297H139.345Z" fill="url(#paint5_linear_925_4872)" style="mix-blend-mode:multiply"/>
<path d="M144.866 14.1553H137.819V12.6299C137.822 10.3221 138.74 8.10964 140.372 6.47779C142.004 4.84594 144.216 3.92798 146.524 3.92529H153.576V5.45064C153.573 7.7593 152.655 9.97257 151.022 11.6046C149.389 13.2366 147.175 14.1539 144.866 14.1553ZM141.078 11.1046H144.866C146.105 11.109 147.311 10.7077 148.299 9.96219C149.288 9.21664 150.006 8.1678 150.342 6.97598H146.549C145.312 6.97185 144.107 7.37329 143.119 8.11888C142.131 8.86447 141.414 9.91317 141.078 11.1046Z" fill="#101129"/>
<path d="M140.87 14.1553H133.823C131.514 14.1539 129.301 13.2366 127.668 11.6046C126.035 9.97257 125.116 7.7593 125.113 5.45064V3.92529H132.165C134.473 3.92798 136.686 4.84594 138.318 6.47779C139.949 8.10964 140.867 10.3221 140.87 12.6299V14.1553ZM128.372 6.97598C128.708 8.16361 129.422 9.20938 130.405 9.9545C131.389 10.6996 132.589 11.1034 133.823 11.1046H137.631C137.297 9.91736 136.584 8.87174 135.601 8.12656C134.618 7.38139 133.419 6.9774 132.186 6.97598H128.372Z" fill="#101129"/>
<path d="M177.29 16.2195C176.622 15.5523 176.092 14.7597 175.73 13.8873C175.368 13.0148 175.182 12.0796 175.182 11.1351C175.182 10.1906 175.368 9.25533 175.73 8.38288C176.092 7.51043 176.622 6.71788 177.29 6.05059L181.2 2.14062C181.868 2.80826 182.398 3.60091 182.759 4.47332C183.121 5.34572 183.307 6.28079 183.307 7.22511C183.307 8.16942 183.121 9.10449 182.759 9.97689C182.398 10.8493 181.868 11.642 181.2 12.3096L177.29 16.2195Z" fill="url(#paint6_linear_925_4872)" style="mix-blend-mode:multiply"/>
<path d="M177.291 16.2194C176.624 15.5503 175.831 15.0195 174.959 14.6573C174.086 14.2951 173.151 14.1086 172.206 14.1086C171.261 14.1086 170.326 14.2951 169.454 14.6573C168.581 15.0195 167.789 15.5503 167.122 16.2194L163.217 20.1243C163.883 20.7939 164.676 21.3253 165.548 21.6879C166.421 22.0505 167.356 22.2371 168.301 22.2371C169.246 22.2371 170.182 22.0505 171.054 21.6879C171.927 21.3253 172.719 20.7939 173.386 20.1243L177.291 16.2194Z" fill="url(#paint7_linear_925_4872)" style="mix-blend-mode:multiply"/>
<path d="M177.29 18.3753L176.212 17.2974C175.403 16.489 174.761 15.5292 174.323 14.4727C173.886 13.4162 173.66 12.2837 173.66 11.1401C173.66 9.99646 173.886 8.86404 174.323 7.80754C174.761 6.75104 175.403 5.79117 176.212 4.98279L181.2 0L182.278 1.07791C183.087 1.88629 183.728 2.84616 184.166 3.90266C184.604 4.95916 184.829 6.09158 184.829 7.23521C184.829 8.37885 184.604 9.51127 184.166 10.5678C183.728 11.6243 183.087 12.5841 182.278 13.3925L177.29 18.3753ZM181.052 4.45909L178.373 7.14369C177.5 8.01781 176.938 9.15364 176.772 10.3776C176.605 11.6015 176.845 12.8461 177.453 13.9213L180.132 11.2418C181.006 10.3676 181.57 9.23156 181.738 8.00693C181.906 6.78229 181.669 5.53631 181.062 4.45909H181.052Z" fill="#101129"/>
<path d="M162.164 21.2023L161.086 20.1244L166.069 15.1416C166.877 14.3326 167.837 13.6909 168.893 13.253C169.95 12.8152 171.082 12.5898 172.226 12.5898C173.37 12.5898 174.502 12.8152 175.559 13.253C176.615 13.6909 177.575 14.3326 178.383 15.1416L179.461 16.2195L174.473 21.2023C173.666 22.0123 172.707 22.655 171.651 23.0935C170.595 23.5321 169.462 23.7578 168.319 23.7578C167.175 23.7578 166.043 23.5321 164.987 23.0935C163.93 22.655 162.971 22.0123 162.164 21.2023ZM165.545 19.982C166.621 20.5877 167.866 20.8241 169.089 20.6551C170.312 20.4862 171.446 19.9211 172.318 19.0465L174.997 16.3669C173.921 15.7623 172.677 15.526 171.454 15.694C170.232 15.862 169.098 16.425 168.225 17.2974L165.545 19.982Z" fill="#101129"/>
<path d="M195.182 63.7798L195.116 60.7291C195.94 60.7147 196.753 60.5421 197.511 60.2207L198.716 63.0222C197.598 63.4995 196.398 63.7567 195.182 63.7798ZM147.515 62.2545H144.465V59.2038H147.515V62.2545ZM189.493 62.0359C188.502 61.3335 187.655 60.4482 186.996 59.4275L189.539 57.7751C189.988 58.4682 190.564 59.0703 191.237 59.5495L189.493 62.0359ZM203.175 59.0665L200.541 57.5412C200.955 56.8307 201.228 56.0468 201.345 55.2328L204.365 55.665C204.192 56.8652 203.788 58.0205 203.175 59.0665ZM147.515 54.1193H144.465C144.399 52.9752 144.5 51.8277 144.765 50.7127L147.719 51.4703C147.526 52.3393 147.458 53.2311 147.515 54.1193ZM188.537 53.7583H185.486C185.538 52.9015 185.446 52.042 185.212 51.2161L188.13 50.3263C188.455 51.4399 188.592 52.5997 188.537 53.7583ZM204.461 50.3568H201.411V47.3061H204.461V50.3568ZM149.9 48.0688L147.978 45.6994C148.922 44.9339 150.004 44.3573 151.166 44.0012L152.061 46.9146C151.273 47.1574 150.54 47.5493 149.9 48.0688ZM182.873 47.8908C182.213 47.3996 181.463 47.0421 180.666 46.8383L181.429 43.8843C182.607 44.1833 183.715 44.712 184.688 45.4401L182.873 47.8908ZM175.983 46.635H172.933V43.5843H175.983V46.635ZM167.848 46.635H164.797V43.5843H167.848V46.635ZM159.713 46.635H156.662V43.5843H159.713V46.635ZM204.456 42.2216H201.406V39.1709H204.456V42.2216ZM204.456 34.0865H201.406V31.0358H204.456V34.0865ZM201.101 26.4597C200.851 25.6754 200.453 24.9467 199.926 24.3141L202.27 22.3616C203.049 23.2973 203.639 24.3746 204.009 25.5344L201.101 26.4597ZM196.525 22.1684C195.645 21.9875 194.746 21.9259 193.85 21.9854V18.9347C194.989 18.8687 196.132 18.9594 197.247 19.2042L196.525 22.1684ZM188.766 21.9854H185.715V18.9347H188.766V21.9854Z" fill="#A9AFC4"/>
<path d="M37.3607 147.714C36.5986 147.715 35.8482 147.527 35.1757 147.168C34.5032 146.81 33.9294 146.291 33.5049 145.658C33.0803 145.026 32.8181 144.298 32.7414 143.54C32.6646 142.781 32.7758 142.016 33.0649 141.311C33.3541 140.606 33.8124 139.983 34.3994 139.497C34.9864 139.011 35.684 138.677 36.4307 138.524C37.1774 138.372 37.9501 138.405 38.6807 138.622C39.4113 138.839 40.0772 139.232 40.6198 139.767C41.2779 140.413 41.7285 141.24 41.9143 142.143C42.1 143.046 42.0124 143.984 41.6626 144.837C41.3128 145.69 40.7167 146.419 39.9505 146.932C39.1842 147.444 38.2825 147.717 37.3607 147.714ZM37.3607 141.481C37.0455 141.481 36.7374 141.574 36.4754 141.75C36.2135 141.925 36.0096 142.174 35.8894 142.466C35.7693 142.757 35.7383 143.078 35.8006 143.387C35.8628 143.696 36.0154 143.979 36.239 144.201C36.4626 144.423 36.7471 144.574 37.0565 144.634C37.3658 144.695 37.6861 144.662 37.9768 144.54C38.2674 144.418 38.5152 144.212 38.6888 143.949C38.8625 143.686 38.9541 143.377 38.9521 143.062C38.9494 142.642 38.7806 142.24 38.4824 141.943C38.1842 141.647 37.781 141.481 37.3607 141.481Z" fill="#101129"/>
<path d="M21.2218 171.825C19.971 171.825 18.7481 171.454 17.7074 170.761C16.6667 170.067 15.8547 169.08 15.3738 167.926C14.8928 166.771 14.7644 165.5 15.0048 164.272C15.2451 163.045 15.8435 161.916 16.7244 161.028C17.6053 160.14 18.7294 159.532 19.955 159.282C21.1805 159.032 22.4527 159.15 23.6112 159.622C24.7696 160.094 25.7625 160.898 26.4647 161.933C27.1669 162.968 27.547 164.188 27.557 165.439C27.5631 166.275 27.4037 167.104 27.0881 167.878C26.7725 168.652 26.3069 169.356 25.718 169.95C25.1292 170.543 24.4288 171.015 23.6572 171.336C22.8855 171.658 22.0578 171.824 21.2218 171.825ZM21.2218 162.21C20.5711 162.21 19.935 162.403 19.3944 162.765C18.8537 163.127 18.4327 163.642 18.1849 164.244C17.937 164.845 17.8735 165.507 18.0023 166.145C18.1311 166.783 18.4465 167.368 18.9084 167.826C19.3703 168.285 19.9579 168.595 20.5967 168.719C21.2355 168.843 21.8967 168.774 22.4964 168.522C23.0962 168.269 23.6074 167.844 23.9652 167.301C24.323 166.757 24.5114 166.12 24.5064 165.469C24.4983 164.603 24.1489 163.775 23.5339 163.165C22.919 162.554 22.0881 162.211 21.2218 162.21Z" fill="#101129"/>
<path d="M195.249 167.051C211.727 167.051 225.085 153.693 225.085 137.215C225.085 120.737 211.727 107.379 195.249 107.379C178.771 107.379 165.413 120.737 165.413 137.215C165.413 153.693 178.771 167.051 195.249 167.051Z" fill="white"/>
<path d="M195.248 168.581C189.044 168.582 182.98 166.743 177.821 163.297C172.662 159.851 168.641 154.953 166.266 149.222C163.891 143.49 163.269 137.183 164.479 131.099C165.689 125.014 168.676 119.425 173.062 115.037C177.449 110.65 183.037 107.662 189.122 106.452C195.207 105.241 201.514 105.862 207.245 108.236C212.977 110.61 217.876 114.63 221.323 119.788C224.77 124.946 226.609 131.011 226.609 137.215C226.601 145.53 223.295 153.503 217.415 159.383C211.536 165.264 203.564 168.572 195.248 168.581ZM195.248 108.904C189.648 108.903 184.172 110.563 179.515 113.674C174.858 116.785 171.228 121.208 169.084 126.382C166.94 131.556 166.379 137.25 167.471 142.743C168.564 148.236 171.261 153.282 175.221 157.242C179.181 161.202 184.227 163.899 189.72 164.992C195.213 166.084 200.907 165.523 206.081 163.379C211.256 161.235 215.678 157.605 218.789 152.948C221.9 148.291 223.56 142.816 223.559 137.215C223.549 129.709 220.563 122.514 215.256 117.207C209.949 111.9 202.754 108.914 195.248 108.904Z" fill="#101129"/>
<path d="M179.216 144.917L202.941 121.192L210.975 129.226L187.25 152.952L179.216 144.917Z" fill="#8B5CF6"/>
<path d="M179.219 129.227L187.253 121.192L210.978 144.918L202.944 152.952L179.219 129.227Z" fill="#8B5CF6"/>
<defs>
<linearGradient id="paint0_linear_925_4872" x1="170.794" y1="135.588" x2="170.794" y2="98.2939" gradientUnits="userSpaceOnUse">
<stop stop-color="#E7E1FF"/>
<stop offset="1" stop-color="white"/>
</linearGradient>
<linearGradient id="paint1_linear_925_4872" x1="157.242" y1="125.068" x2="191.329" y2="125.068" gradientUnits="userSpaceOnUse">
<stop stop-color="#CACFDD"/>
<stop offset="1" stop-color="#EEF0F1"/>
</linearGradient>
<linearGradient id="paint2_linear_925_4872" x1="102.14" y1="135.459" x2="102.14" y2="92.8235" gradientUnits="userSpaceOnUse">
<stop stop-color="#E7E1FF"/>
<stop offset="1" stop-color="white"/>
</linearGradient>
<linearGradient id="paint3_linear_925_4872" x1="138.205" y1="135.843" x2="138.205" y2="95.9289" gradientUnits="userSpaceOnUse">
<stop stop-color="#E7E1FF"/>
<stop offset="1" stop-color="white"/>
</linearGradient>
<linearGradient id="paint4_linear_925_4872" x1="139.345" y1="9.04008" x2="152.051" y2="9.04008" gradientUnits="userSpaceOnUse">
<stop stop-color="#CACFDD"/>
<stop offset="1" stop-color="#EEF0F1"/>
</linearGradient>
<linearGradient id="paint5_linear_925_4872" x1="126.639" y1="9.04008" x2="139.345" y2="9.04008" gradientUnits="userSpaceOnUse">
<stop stop-color="#CACFDD"/>
<stop offset="1" stop-color="#EEF0F1"/>
</linearGradient>
<linearGradient id="paint6_linear_925_4872" x1="175.404" y1="13.2118" x2="184.425" y2="4.19045" gradientUnits="userSpaceOnUse">
<stop stop-color="#CACFDD"/>
<stop offset="1" stop-color="#EEF0F1"/>
</linearGradient>
<linearGradient id="paint7_linear_925_4872" x1="166.383" y1="22.2329" x2="175.404" y2="13.2116" gradientUnits="userSpaceOnUse">
<stop stop-color="#CACFDD"/>
<stop offset="1" stop-color="#EEF0F1"/>
</linearGradient>
</defs>
</svg>
