<svg width="75" height="75" viewBox="0 0 75 75" fill="none" xmlns="http://www.w3.org/2000/svg">
<rect width="75" height="75" rx="37.5" fill="white"/>
<path d="M33.8 45.7078C33.5273 45.513 33.3273 45.2651 33.2 44.9641L30.6909 38.5625H26V36.4375H32.2182L34.7273 42.9188L39.7455 30.0359C39.8727 29.7349 40.0727 29.487 40.3455 29.2922C40.6182 29.0974 40.9273 29 41.2727 29C41.6182 29 41.9273 29.0974 42.2 29.2922C42.4727 29.487 42.6727 29.7349 42.8 30.0359L45.3091 36.4375H50V38.5625H43.7818L41.2727 32.0813L36.2545 44.9641C36.1273 45.2651 35.9273 45.513 35.6545 45.7078C35.3818 45.9026 35.0727 46 34.7273 46C34.3818 46 34.0727 45.9026 33.8 45.7078Z" fill="#8B5CF6"/>
</svg>
