<svg width="27" height="22" viewBox="0 0 27 22" fill="none" xmlns="http://www.w3.org/2000/svg">
<path d="M5.4 22C3.915 22 2.64375 21.4615 1.58625 20.3844C0.52875 19.3073 0 18.0125 0 16.5V5.5C0 3.9875 0.52875 2.69271 1.58625 1.61563C2.64375 0.538542 3.915 0 5.4 0H21.6C23.085 0 24.3563 0.538542 25.4138 1.61563C26.4713 2.69271 27 3.9875 27 5.5V16.5C27 18.0125 26.4713 19.3073 25.4138 20.3844C24.3563 21.4615 23.085 22 21.6 22H5.4ZM5.4 5.5H21.6C22.095 5.5 22.5675 5.55729 23.0175 5.67188C23.4675 5.78646 23.895 5.96979 24.3 6.22188V5.5C24.3 4.74375 24.0356 4.09635 23.5069 3.55781C22.9781 3.01927 22.3425 2.75 21.6 2.75H5.4C4.6575 2.75 4.02188 3.01927 3.49313 3.55781C2.96438 4.09635 2.7 4.74375 2.7 5.5V6.22188C3.105 5.96979 3.5325 5.78646 3.9825 5.67188C4.4325 5.55729 4.905 5.5 5.4 5.5ZM2.9025 9.96875L17.9213 13.6813C18.1238 13.7271 18.3263 13.7271 18.5288 13.6813C18.7313 13.6354 18.9225 13.5438 19.1025 13.4062L23.7938 9.41875C23.5463 9.075 23.2313 8.79427 22.8488 8.57656C22.4663 8.35885 22.05 8.25 21.6 8.25H5.4C4.815 8.25 4.30313 8.40469 3.86438 8.71406C3.42563 9.02344 3.105 9.44167 2.9025 9.96875Z" fill="#EA8C5A"/>
</svg>
