<svg width="390" height="390" viewBox="0 0 390 390" fill="none" xmlns="http://www.w3.org/2000/svg">
<g filter="url(#filter0_f_321_2822)">
<rect x="165.455" y="184.484" width="60.0924" height="58.0893" fill="#A495E1"/>
</g>
<g filter="url(#filter1_d_321_2822)">
<rect x="156.441" y="152.435" width="77.1186" height="77.1186" rx="38.5" fill="url(#paint0_linear_321_2822)"/>
<path d="M190.47 197.313V194.801H193.264C193.157 195.22 193.087 195.638 193.055 196.057C193.023 196.476 193.028 196.894 193.071 197.313H190.47ZM190.47 203.592C188.693 203.592 187.179 202.98 185.927 201.756C184.674 200.531 184.048 199.05 184.048 197.313V186.01C183.342 186.01 182.737 185.764 182.234 185.272C181.731 184.78 181.479 184.189 181.479 183.498V180.986C181.479 180.296 181.731 179.704 182.234 179.212C182.737 178.721 183.342 178.475 184.048 178.475H196.892C197.599 178.475 198.204 178.721 198.707 179.212C199.21 179.704 199.461 180.296 199.461 180.986V183.498C199.461 184.189 199.21 184.78 198.707 185.272C198.204 185.764 197.599 186.01 196.892 186.01V189.809C196.379 190.123 195.908 190.489 195.479 190.908C195.051 191.326 194.677 191.787 194.356 192.289H190.47V189.778H194.323V186.01H186.617V197.313C186.617 198.359 186.992 199.249 187.741 199.982C188.49 200.714 189.4 201.08 190.47 201.08C191.112 201.08 191.696 200.944 192.22 200.672C192.745 200.4 193.189 200.023 193.553 199.542C193.724 199.961 193.917 200.358 194.131 200.735C194.345 201.112 194.602 201.478 194.901 201.834C194.323 202.378 193.66 202.807 192.911 203.121C192.161 203.435 191.348 203.592 190.47 203.592ZM203.668 198.914C204.288 198.307 204.599 197.564 204.599 196.685C204.599 195.806 204.288 195.063 203.668 194.456C203.047 193.849 202.287 193.545 201.388 193.545C200.489 193.545 199.729 193.849 199.108 194.456C198.487 195.063 198.177 195.806 198.177 196.685C198.177 197.564 198.487 198.307 199.108 198.914C199.729 199.521 200.489 199.825 201.388 199.825C202.287 199.825 203.047 199.521 203.668 198.914ZM207.938 204.848L204.47 201.457C203.999 201.75 203.507 201.97 202.993 202.117C202.48 202.263 201.944 202.336 201.388 202.336C199.782 202.336 198.418 201.787 197.294 200.688C196.17 199.589 195.608 198.255 195.608 196.685C195.608 195.115 196.17 193.781 197.294 192.682C198.418 191.583 199.782 191.033 201.388 191.033C202.993 191.033 204.358 191.583 205.482 192.682C206.606 193.781 207.168 195.115 207.168 196.685C207.168 197.229 207.093 197.752 206.943 198.255C206.793 198.757 206.568 199.239 206.269 199.699L209.737 203.09L207.938 204.848Z" fill="white"/>
</g>
<defs>
<filter id="filter0_f_321_2822" x="118.783" y="137.812" width="153.436" height="151.433" filterUnits="userSpaceOnUse" color-interpolation-filters="sRGB">
<feFlood flood-opacity="0" result="BackgroundImageFix"/>
<feBlend mode="normal" in="SourceGraphic" in2="BackgroundImageFix" result="shape"/>
<feGaussianBlur stdDeviation="23.3" result="effect1_foregroundBlur_321_2822"/>
</filter>
<filter id="filter1_d_321_2822" x="0.00019867" y="0.00019867" width="390" height="390" filterUnits="userSpaceOnUse" color-interpolation-filters="sRGB">
<feFlood flood-opacity="0" result="BackgroundImageFix"/>
<feColorMatrix in="SourceAlpha" type="matrix" values="0 0 0 0 0 0 0 0 0 0 0 0 0 0 0 0 0 0 127 0" result="hardAlpha"/>
<feOffset dy="4"/>
<feGaussianBlur stdDeviation="78.1"/>
<feComposite in2="hardAlpha" operator="out"/>
<feColorMatrix type="matrix" values="0 0 0 0 0.533333 0 0 0 0 0.419608 0 0 0 0 0.976471 0 0 0 0.23 0"/>
<feBlend mode="normal" in2="BackgroundImageFix" result="effect1_dropShadow_321_2822"/>
<feBlend mode="normal" in="SourceGraphic" in2="effect1_dropShadow_321_2822" result="shape"/>
</filter>
<linearGradient id="paint0_linear_321_2822" x1="156.441" y1="190.994" x2="218.915" y2="190.994" gradientUnits="userSpaceOnUse">
<stop stop-color="#101129"/>
<stop offset="1" stop-color="#2A2C5B"/>
</linearGradient>
</defs>
</svg>
