<svg width="75" height="75" viewBox="0 0 75 75" fill="none" xmlns="http://www.w3.org/2000/svg">
<rect width="75" height="75" rx="37.5" fill="white"/>
<path d="M43.5429 48.7143L39.4857 44.6571L41.1143 43.0571L43.5429 45.4857L48.4 40.6286L50 42.2571L43.5429 48.7143ZM39.1429 49.8571C37.0857 49.8571 35.3333 49.1333 33.8857 47.6857C32.4381 46.2381 31.7143 44.4857 31.7143 42.4286V41.7714C30.0762 41.5048 28.7143 40.7381 27.6286 39.4714C26.5429 38.2048 26 36.7143 26 35V28.1429H29.4286V27H31.7143V31.5714H29.4286V30.4286H28.2857V35C28.2857 36.2571 28.7333 37.3333 29.6286 38.2286C30.5238 39.1238 31.6 39.5714 32.8571 39.5714C34.1143 39.5714 35.1905 39.1238 36.0857 38.2286C36.981 37.3333 37.4286 36.2571 37.4286 35V30.4286H36.2857V31.5714H34V27H36.2857V28.1429H39.7143V35C39.7143 36.7143 39.1714 38.2048 38.0857 39.4714C37 40.7381 35.6381 41.5048 34 41.7714V42.4286C34 43.8571 34.5 45.0714 35.5 46.0714C36.5 47.0714 37.7143 47.5714 39.1429 47.5714V49.8571Z" fill="#8B5CF6"/>
</svg>
