<svg width="75" height="75" viewBox="0 0 75 75" fill="none" xmlns="http://www.w3.org/2000/svg">
<rect width="75" height="75" rx="37.5" fill="white"/>
<g clip-path="url(#clip0_1508_7368)">
<g clip-path="url(#clip1_1508_7368)">
<path d="M47.3039 50C48.4336 50 49.2366 49.4944 49.7129 48.4833C50.1892 47.4722 50.0729 46.5333 49.364 45.6667L41.9874 36.6667L41.9874 28.6667L43.3165 28.6667C43.6931 28.6667 44.0087 28.5389 44.2635 28.2833C44.5182 28.0278 44.6456 27.7111 44.6456 27.3333C44.6456 26.9556 44.5182 26.6389 44.2635 26.3833C44.0087 26.1278 43.6931 26 43.3165 26L32.6835 26C32.3069 26 31.9913 26.1278 31.7365 26.3833C31.4818 26.6389 31.3544 26.9556 31.3544 27.3333C31.3544 27.7111 31.4818 28.0278 31.7365 28.2833C31.9913 28.5389 32.3069 28.6667 32.6835 28.6667L34.0126 28.6667L34.0126 36.6667L26.636 45.6667C25.9271 46.5333 25.8108 47.4722 26.2871 48.4833C26.7634 49.4944 27.5664 50 28.6961 50L47.3039 50ZM44.6456 46L31.3544 46L35.8734 40.6667L40.1266 40.6667L44.6456 46Z" fill="#8B5CF6"/>
</g>
</g>
<defs>
<clipPath id="clip0_1508_7368">
<rect width="24" height="24" fill="white" transform="matrix(-1 -8.74228e-08 -8.74228e-08 1 50 26)"/>
</clipPath>
<clipPath id="clip1_1508_7368">
<rect width="24" height="24" fill="white" transform="matrix(-1 -8.74228e-08 -8.74228e-08 1 50 26)"/>
</clipPath>
</defs>
</svg>
