<svg width="390" height="390" viewBox="0 0 390 390" fill="none" xmlns="http://www.w3.org/2000/svg">
<g filter="url(#filter0_f_321_2849)">
<rect x="165.455" y="184.484" width="60.0924" height="58.0893" fill="#A495E1"/>
</g>
<g filter="url(#filter1_d_321_2849)">
<rect x="156.441" y="152.435" width="77.1186" height="77.1186" rx="38.5" fill="url(#paint0_linear_321_2849)"/>
<path d="M192.997 205.266V202.762H186.737C186.049 202.762 185.459 202.517 184.969 202.026C184.479 201.536 184.233 200.947 184.233 200.258V182.731C184.233 182.043 184.479 181.453 184.969 180.963C185.459 180.472 186.049 180.227 186.737 180.227H192.997V177.723H195.501V205.266H192.997ZM198.005 182.731V180.227H204.264C204.953 180.227 205.542 180.472 206.033 180.963C206.523 181.453 206.768 182.043 206.768 182.731V200.258C206.768 200.947 206.523 201.536 206.033 202.026C205.542 202.517 204.953 202.762 204.264 202.762H198.005V200.258H204.264V182.731H198.005ZM198.005 192.747V190.243H201.76V192.747H198.005ZM198.005 187.739V185.235H201.76V187.739H198.005ZM189.241 197.754H192.997V195.25H189.241V197.754ZM189.241 192.747H192.997V190.243H189.241V192.747ZM189.241 187.739H192.997V185.235H189.241V187.739Z" fill="white"/>
</g>
<defs>
<filter id="filter0_f_321_2849" x="118.783" y="137.812" width="153.436" height="151.433" filterUnits="userSpaceOnUse" color-interpolation-filters="sRGB">
<feFlood flood-opacity="0" result="BackgroundImageFix"/>
<feBlend mode="normal" in="SourceGraphic" in2="BackgroundImageFix" result="shape"/>
<feGaussianBlur stdDeviation="23.3" result="effect1_foregroundBlur_321_2849"/>
</filter>
<filter id="filter1_d_321_2849" x="0.00019867" y="0.00019867" width="390" height="390" filterUnits="userSpaceOnUse" color-interpolation-filters="sRGB">
<feFlood flood-opacity="0" result="BackgroundImageFix"/>
<feColorMatrix in="SourceAlpha" type="matrix" values="0 0 0 0 0 0 0 0 0 0 0 0 0 0 0 0 0 0 127 0" result="hardAlpha"/>
<feOffset dy="4"/>
<feGaussianBlur stdDeviation="78.1"/>
<feComposite in2="hardAlpha" operator="out"/>
<feColorMatrix type="matrix" values="0 0 0 0 0.533333 0 0 0 0 0.419608 0 0 0 0 0.976471 0 0 0 0.23 0"/>
<feBlend mode="normal" in2="BackgroundImageFix" result="effect1_dropShadow_321_2849"/>
<feBlend mode="normal" in="SourceGraphic" in2="effect1_dropShadow_321_2849" result="shape"/>
</filter>
<linearGradient id="paint0_linear_321_2849" x1="156.441" y1="190.994" x2="218.915" y2="190.994" gradientUnits="userSpaceOnUse">
<stop stop-color="#101129"/>
<stop offset="1" stop-color="#2A2C5B"/>
</linearGradient>
</defs>
</svg>
