<svg width="73" height="73" viewBox="0 0 73 73" fill="none" xmlns="http://www.w3.org/2000/svg">
<rect width="73" height="73" rx="36.5" fill="#E7E1FF"/>
<g clip-path="url(#clip0_1508_7699)">
<g clip-path="url(#clip1_1508_7699)">
<path d="M27.1961 48.5C26.0664 48.5 25.2634 47.9944 24.7871 46.9833C24.3108 45.9722 24.4271 45.0333 25.136 44.1667L32.5126 35.1667V27.1667H31.1835C30.8069 27.1667 30.4913 27.0389 30.2365 26.7833C29.9818 26.5278 29.8544 26.2111 29.8544 25.8333C29.8544 25.4556 29.9818 25.1389 30.2365 24.8833C30.4913 24.6278 30.8069 24.5 31.1835 24.5H41.8165C42.1931 24.5 42.5087 24.6278 42.7635 24.8833C43.0182 25.1389 43.1456 25.4556 43.1456 25.8333C43.1456 26.2111 43.0182 26.5278 42.7635 26.7833C42.5087 27.0389 42.1931 27.1667 41.8165 27.1667H40.4874V35.1667L47.864 44.1667C48.5729 45.0333 48.6892 45.9722 48.2129 46.9833C47.7366 47.9944 46.9336 48.5 45.8039 48.5H27.1961ZM29.8544 44.5H43.1456L38.6266 39.1667H34.3734L29.8544 44.5Z" fill="#8B5CF6"/>
</g>
</g>
<defs>
<clipPath id="clip0_1508_7699">
<rect width="24" height="24" fill="white" transform="translate(24.5 24.5)"/>
</clipPath>
<clipPath id="clip1_1508_7699">
<rect width="24" height="24" fill="white" transform="translate(24.5 24.5)"/>
</clipPath>
</defs>
</svg>
