<svg width="31" height="31" viewBox="0 0 31 31" fill="none" xmlns="http://www.w3.org/2000/svg">
<g clip-path="url(#clip0_2435_11795)">
<path d="M17.4936 26.351C4.72638 13.584 17.4201 26.2773 4.65239 13.5099C4.29759 13.155 3.72318 13.155 3.36831 13.5099L2.08423 14.794C1.02205 15.8562 1.02205 17.5842 2.08423 18.6464L2.72633 19.2884L2.08423 19.9305C1.02211 20.9927 1.02211 22.7207 2.08429 23.7829L7.22073 28.9194C8.28291 29.9814 10.0109 29.9814 11.0731 28.9194L11.7151 28.2773L12.3572 28.9194C13.4194 29.9814 15.1474 29.9814 16.2095 28.9194L17.4936 27.6353C17.8485 27.2804 17.8485 26.7059 17.4936 26.351Z" fill="#8B5CF6"/>
<path d="M28.9158 12.3537L28.2737 11.7116L28.9158 11.0695C29.978 10.0074 29.978 8.27928 28.9158 7.21722L23.7794 2.08078C22.7172 1.01861 20.9892 1.01861 19.927 2.08078L19.2849 2.72282L18.6429 2.08078C17.5807 1.01861 15.8527 1.01861 14.7905 2.08078L13.5064 3.36486C13.1515 3.71979 13.1515 4.2942 13.5064 4.64894L26.3477 17.4902C26.7025 17.845 27.2769 17.845 27.6317 17.4902L28.9158 16.206C29.978 15.1439 29.978 13.4158 28.9158 12.3537Z" fill="#8B5CF6"/>
<path d="M30.1999 0.796685C29.1379 -0.265552 27.4097 -0.265552 26.3477 0.796624L25.7056 1.43866L29.5579 5.29103L30.1999 4.64893C31.2621 3.58687 31.2621 1.85874 30.1999 0.796685Z" fill="#8B5CF6"/>
<path d="M1.44154 25.709L0.799562 26.351C-0.262614 27.4132 -0.262614 29.1412 0.799562 30.2034C1.86162 31.2656 3.58975 31.2656 4.6518 30.2034L5.2939 29.5613L1.44154 25.709Z" fill="#8B5CF6"/>
<path d="M16.7166 10.4275L10.4307 16.7203L14.283 20.5726L20.569 14.2799L16.7166 10.4275Z" fill="#8B5CF6"/>
</g>
<defs>
<clipPath id="clip0_2435_11795">
<rect width="31" height="31" fill="white"/>
</clipPath>
</defs>
</svg>
