<svg width="35" height="35" viewBox="0 0 35 35" fill="none" xmlns="http://www.w3.org/2000/svg">
<g clip-path="url(#clip0_2430_11775)">
<path d="M32.6652 8.13697C32.4476 8.35456 32.2287 8.55157 32.0083 8.73032L26.2695 2.99153C26.4483 2.77113 26.6453 2.55224 26.863 2.33458C27.397 1.80045 27.397 0.934536 26.863 0.400475C26.3288 -0.133654 25.4628 -0.133654 24.9288 0.400475C21.8959 3.43327 21.7715 6.72557 22.0821 9.78367C18.3157 9.40114 15.3759 9.95353 12.6989 12.6304C9.99935 15.33 9.4644 18.3084 9.82819 22.058C6.75115 21.7595 3.43868 21.8905 0.400546 24.9287C-0.133515 25.4628 -0.133515 26.3288 0.400546 26.8628C0.934607 27.3969 1.80066 27.3969 2.33472 26.8628C2.57713 26.6203 2.82139 26.4032 3.06743 26.2085L8.79139 31.9325C8.5967 32.1786 8.37959 32.4228 8.13711 32.6652C7.60298 33.1993 7.60298 34.0653 8.13711 34.5993C8.67117 35.1334 9.53723 35.1334 10.0713 34.5993C13.1094 31.5612 13.2404 28.2486 12.9419 25.1717C16.6763 25.534 19.6613 25.0091 22.3695 22.3011C25.0603 19.6103 25.5986 16.6822 25.2163 12.9179C28.2744 13.2285 31.5665 13.1039 34.5995 10.0711C35.1335 9.53709 35.1335 8.6711 34.5995 8.13704C34.0653 7.60291 33.1993 7.60291 32.6652 8.13697ZM22.4264 12.5735C22.5966 13.9883 22.694 15.3213 22.465 16.5941L18.4057 12.5348C19.6786 12.3059 21.0115 12.4032 22.4264 12.5735ZM19.39 21.2557L13.7443 15.6099C14.2562 14.8888 14.9572 14.1875 15.6786 13.676L21.3238 19.3213C21.0742 19.6734 20.7804 20.0218 20.4353 20.3669C20.0906 20.7117 19.7423 21.0055 19.39 21.2557ZM5.65164 24.9245C7.06913 24.5685 8.56108 24.6599 10.1569 24.843C10.34 26.4389 10.4313 27.9308 10.0754 29.3482L5.65164 24.9245ZM12.6131 22.3868C12.4493 20.9585 12.3587 19.6134 12.5966 18.3306L16.6693 22.4032C15.3865 22.6411 14.0414 22.5506 12.6131 22.3868ZM24.8719 10.1279C24.6765 8.50411 24.5772 6.98823 24.957 5.54722L29.4526 10.0428C28.0116 10.4226 26.4957 10.3233 24.8719 10.1279Z" fill="#8B5CF6"/>
</g>
<defs>
<clipPath id="clip0_2430_11775">
<rect width="35" height="35" fill="white"/>
</clipPath>
</defs>
</svg>
