<svg width="64" height="64" viewBox="0 0 64 64" fill="none" xmlns="http://www.w3.org/2000/svg">
<rect x="0.5" y="0.5" width="63" height="63" rx="31.5" fill="#E7E1FF"/>
<rect x="0.5" y="0.5" width="63" height="63" rx="31.5" stroke="#E7E1FF"/>
<path d="M35.7936 27.8847H27.2064C23.2364 27.8847 20 30.7847 20 34.3517C20 37.909 23.2364 40.809 27.2064 40.809H36.5272V43.1C36.5272 44.695 37.9836 46 39.7636 46C41.5544 46 43 44.695 43 43.1V39.8423C43 37.184 40.5835 35.009 37.606 35.009H27.2064C26.8072 35.009 26.4728 34.719 26.4728 34.3517C26.4728 33.9843 26.8072 33.6847 27.2064 33.6847H35.7936C39.7636 33.6847 43 30.7847 43 27.2273C43 23.6604 39.7636 20.7604 35.7936 20.7604H26.4728V19.9C26.4728 18.305 25.0164 17 23.2364 17C21.4456 17 20 18.305 20 19.9V21.727C20 24.395 22.4165 26.5603 25.394 26.5603H35.7936C36.1928 26.5603 36.5272 26.86 36.5272 27.2273C36.5272 27.5946 36.1928 27.8847 35.7936 27.8847Z" fill="#8B5CF6"/>
</svg>
