<svg width="24" height="24" viewBox="0 0 24 24" fill="none" xmlns="http://www.w3.org/2000/svg">
<path d="M13.2359 11.9713C13.5786 11.6188 13.75 11.195 13.75 10.7C13.75 10.205 13.5786 9.78125 13.2359 9.42875C12.8932 9.07625 12.4812 8.9 12 8.9C11.5187 8.9 11.1068 9.07625 10.7641 9.42875C10.4214 9.78125 10.25 10.205 10.25 10.7C10.25 11.195 10.4214 11.6188 10.7641 11.9713C11.1068 12.3238 11.5187 12.5 12 12.5C12.4812 12.5 12.8932 12.3238 13.2359 11.9713ZM12 21.5C9.65208 19.445 7.89844 17.5363 6.73906 15.7738C5.57969 14.0113 5 12.38 5 10.88C5 8.63 5.70365 6.8375 7.11094 5.5025C8.51823 4.1675 10.1479 3.5 12 3.5C13.8521 3.5 15.4818 4.1675 16.8891 5.5025C18.2964 6.8375 19 8.63 19 10.88C19 12.38 18.4203 14.0113 17.2609 15.7738C16.1016 17.5363 14.3479 19.445 12 21.5Z" fill="url(#paint0_linear_3080_3267)"/>
<defs>
<linearGradient id="paint0_linear_3080_3267" x1="5" y1="12.5" x2="16.3415" y2="12.5" gradientUnits="userSpaceOnUse">
<stop stop-color="#101129"/>
<stop offset="1" stop-color="#2A2C5B"/>
</linearGradient>
</defs>
</svg>
