<svg width="134" height="134" viewBox="0 0 134 134" fill="none" xmlns="http://www.w3.org/2000/svg">
<path d="M113.062 69.8262V31.4059C113.062 31.2593 113.042 31.1128 113.021 30.9871C113 30.8615 112.958 30.7359 112.895 30.6103C112.686 30.0868 112.267 29.6681 111.743 29.4587L93.8628 22.319C93.7372 22.2562 93.6325 22.2143 93.5069 22.1725L78.6413 16.2262C78.6413 16.2262 78.4528 16.1634 78.3481 16.1215L59.3997 8.52121C58.8972 8.33277 58.3528 8.33277 57.8503 8.52121L5.50656 29.4587C4.98313 29.6681 4.56437 30.0868 4.355 30.6103C4.29219 30.7359 4.25031 30.8615 4.22937 30.9871C4.20844 31.1128 4.1875 31.2593 4.1875 31.4059V90.0309C4.1875 90.8893 4.71094 91.664 5.50656 91.9781L57.8084 112.895C58.0597 112.999 58.3319 113.062 58.625 113.062C58.9181 113.062 59.1903 112.999 59.4416 112.895L73.3441 107.325C77.6991 118.045 88.2306 125.625 100.5 125.625C116.664 125.625 129.812 112.476 129.812 96.3121C129.812 84.629 122.945 74.5371 113.062 69.8262ZM11.9134 31.4059L58.625 12.7296L72.2972 18.1943L27.1978 37.5196L11.9134 31.4059ZM41.5819 43.9265L41.4981 43.9684L41.0794 44.1359C40.2838 44.45 39.7812 45.2246 39.7812 46.0621V61.7234L29.3125 57.2428V41.1628L77.8037 20.3928L87.4559 24.2453L41.7912 43.8428L41.5819 43.9265ZM58.625 50.0821L47.8422 45.79L92.9416 26.4437L105.337 31.4059L58.625 50.0821ZM100.5 121.437C89.3822 121.437 79.9394 114.193 76.6312 104.185C76.6312 104.059 76.5684 103.933 76.5266 103.808C76.5266 103.808 76.5056 103.766 76.4847 103.745C75.7728 101.379 75.375 98.8875 75.375 96.3121C75.375 82.4515 86.6394 71.1871 100.5 71.1871C103.892 71.1871 107.158 71.8571 110.11 73.0925C110.173 73.1134 110.215 73.1343 110.278 73.1553C119.281 76.9868 125.625 85.9272 125.625 96.3121C125.625 110.173 114.361 121.437 100.5 121.437Z" fill="#101129"/>
<path d="M112.456 84.3575C111.639 83.541 110.32 83.541 109.504 84.3575L100.521 93.3397L91.5392 84.3575C90.7227 83.541 89.4036 83.541 88.587 84.3575C87.7705 85.1741 87.7705 86.4932 88.587 87.3097L97.5692 96.2919L88.587 105.274C87.7705 106.091 87.7705 107.41 88.587 108.226C89.0058 108.645 89.5292 108.833 90.0736 108.833C90.618 108.833 91.1414 108.624 91.5602 108.226L100.542 99.2441L109.525 108.226C109.943 108.645 110.467 108.833 111.011 108.833C111.555 108.833 112.079 108.624 112.498 108.226C113.314 107.41 113.314 106.091 112.498 105.274L103.515 96.2919L112.498 87.3097C113.314 86.4932 113.314 85.1741 112.498 84.3575H112.456Z" fill="#8B5CF6"/>
</svg>
