<svg width="172" height="172" viewBox="0 0 172 172" fill="none" xmlns="http://www.w3.org/2000/svg">
<g opacity="0.5">
<rect width="171.428" height="171.428" rx="85.7139" fill="#D9F6F3"/>
</g>
<rect x="25.7891" y="25.79" width="121.365" height="121.365" rx="60.6824" fill="#41C9B3" fill-opacity="0.21"/>
<path d="M85.7131 60.6824C71.9458 60.6824 60.6816 71.9465 60.6816 85.7139C60.6816 99.4812 71.9458 110.745 85.7131 110.745C99.4804 110.745 110.745 99.4812 110.745 85.7139C110.745 71.9465 99.4804 60.6824 85.7131 60.6824ZM96.4767 79.7063L84.9622 94.7252C84.4615 95.2258 83.7106 95.7264 82.9597 95.7264C82.2087 95.7264 81.4578 95.4761 80.9571 94.7252L74.9496 86.9654C74.1986 85.9642 74.1986 84.212 75.4502 83.461C76.7018 82.7101 78.2037 82.7101 78.9546 83.9617L82.9597 89.2183L92.4716 76.7025C93.2226 75.7013 94.9748 75.4509 95.976 76.2019C97.2276 76.9528 97.2276 78.4547 96.4767 79.7063Z" fill="#41C9B3"/>
</svg>
