<svg width="60" height="60" viewBox="0 0 60 60" fill="none" xmlns="http://www.w3.org/2000/svg">
<rect width="60" height="60" rx="30" fill="#E7E1FF"/>
<g clip-path="url(#clip0_365_2686)">
<path d="M21 38C20.45 38 19.9792 37.8042 19.5875 37.4125C19.1958 37.0208 19 36.55 19 36V25H21V36H38V38H21ZM25 34C24.45 34 23.9792 33.8042 23.5875 33.4125C23.1958 33.0208 23 32.55 23 32V24C23 23.45 23.1958 22.9792 23.5875 22.5875C23.9792 22.1958 24.45 22 25 22H39C39.55 22 40.0208 22.1958 40.4125 22.5875C40.8042 22.9792 41 23.45 41 24V32C41 32.55 40.8042 33.0208 40.4125 33.4125C40.0208 33.8042 39.55 34 39 34H25ZM27 32C27 31.45 26.8042 30.9792 26.4125 30.5875C26.0208 30.1958 25.55 30 25 30V32H27ZM37 32H39V30C38.45 30 37.9792 30.1958 37.5875 30.5875C37.1958 30.9792 37 31.45 37 32ZM32 31C32.8333 31 33.5417 30.7083 34.125 30.125C34.7083 29.5417 35 28.8333 35 28C35 27.1667 34.7083 26.4583 34.125 25.875C33.5417 25.2917 32.8333 25 32 25C31.1667 25 30.4583 25.2917 29.875 25.875C29.2917 26.4583 29 27.1667 29 28C29 28.8333 29.2917 29.5417 29.875 30.125C30.4583 30.7083 31.1667 31 32 31ZM25 26C25.55 26 26.0208 25.8042 26.4125 25.4125C26.8042 25.0208 27 24.55 27 24H25V26ZM39 26V24H37C37 24.55 37.1958 25.0208 37.5875 25.4125C37.9792 25.8042 38.45 26 39 26Z" fill="#8B5CF6"/>
</g>
<defs>
<clipPath id="clip0_365_2686">
<rect width="24" height="24" fill="white" transform="translate(18 18)"/>
</clipPath>
</defs>
</svg>
