<svg width="60" height="60" viewBox="0 0 60 60" fill="none" xmlns="http://www.w3.org/2000/svg">
<rect width="60" height="60" rx="30" fill="#E7E1FF"/>
<g clip-path="url(#clip0_359_1812)">
<path d="M33.2727 39.4545C30.8364 39.4545 28.7727 38.6091 27.0818 36.9182C25.3909 35.2273 24.5455 33.1636 24.5455 30.7273C24.5455 28.3091 25.3909 26.25 27.0818 24.55C28.7727 22.85 30.8364 22 33.2727 22C35.6909 22 37.75 22.85 39.45 24.55C41.15 26.25 42 28.3091 42 30.7273C42 33.1636 41.15 35.2273 39.45 36.9182C37.75 38.6091 35.6909 39.4545 33.2727 39.4545ZM35.7545 34.7909L37.3091 33.2364L34.3636 30.2909V26.3636H32.1818V31.1909L35.7545 34.7909ZM19.0909 27.4545V25.2727H23.4545V27.4545H19.0909ZM18 31.8182V29.6364H23.4545V31.8182H18ZM19.0909 36.1818V34H23.4545V36.1818H19.0909Z" fill="#8B5CF6"/>
</g>
<defs>
<clipPath id="clip0_359_1812">
<rect width="24" height="24" fill="white" transform="translate(18 18)"/>
</clipPath>
</defs>
</svg>
