<svg width="22" height="21" viewBox="0 0 22 21" fill="none" xmlns="http://www.w3.org/2000/svg">
<path d="M12.475 20.775C12.0083 20.775 11.5708 20.675 11.1625 20.475C10.7542 20.275 10.4083 19.9917 10.125 19.625L4.675 12.7L5.15 12.2C5.48333 11.85 5.88333 11.6417 6.35 11.575C6.81667 11.5083 7.25 11.6 7.65 11.85L9.5 12.975V2.775C9.5 2.49167 9.59583 2.25417 9.7875 2.0625C9.97917 1.87083 10.2167 1.775 10.5 1.775C10.7833 1.775 11.025 1.87083 11.225 2.0625C11.425 2.25417 11.525 2.49167 11.525 2.775V16.575L9.1 15.075L11.7 18.4C11.8 18.5333 11.9167 18.6292 12.05 18.6875C12.1833 18.7458 12.325 18.775 12.475 18.775H18C18.55 18.775 19.0208 18.5792 19.4125 18.1875C19.8042 17.7958 20 17.325 20 16.775V9.775C20 9.49167 20.0958 9.25417 20.2875 9.0625C20.4792 8.87083 20.7167 8.775 21 8.775C21.2833 8.775 21.5208 8.87083 21.7125 9.0625C21.9042 9.25417 22 9.49167 22 9.775V16.775C22 17.875 21.6083 18.8167 20.825 19.6C20.0417 20.3833 19.1 20.775 18 20.775H12.475ZM13 11.775V6.775C13 6.49167 13.0958 6.25417 13.2875 6.0625C13.4792 5.87083 13.7167 5.775 14 5.775C14.2833 5.775 14.5208 5.87083 14.7125 6.0625C14.9042 6.25417 15 6.49167 15 6.775V11.775H13ZM16.5 11.775V7.775C16.5 7.49167 16.5958 7.25417 16.7875 7.0625C16.9792 6.87083 17.2167 6.775 17.5 6.775C17.7833 6.775 18.0208 6.87083 18.2125 7.0625C18.4042 7.25417 18.5 7.49167 18.5 7.775V11.775H16.5ZM3.5 8.775C2.53333 8.775 1.70833 8.44167 1.025 7.775C0.341667 7.10833 0 6.29167 0 5.325C0 4.625 0.208333 3.99583 0.625 3.4375C1.04167 2.87917 1.475 2.33333 1.925 1.8L3.5 0L5.075 1.825C5.525 2.35833 5.95833 2.9 6.375 3.45C6.79167 4 7 4.625 7 5.325C7 6.29167 6.65833 7.10833 5.975 7.775C5.29167 8.44167 4.46667 8.775 3.5 8.775ZM3.5 6.775C3.91667 6.775 4.27083 6.63333 4.5625 6.35C4.85417 6.06667 5 5.725 5 5.325C5 4.875 4.84583 4.4875 4.5375 4.1625C4.22917 3.8375 3.925 3.50833 3.625 3.175L3.5 3.05L3.375 3.175C3.075 3.50833 2.77083 3.8375 2.4625 4.1625C2.15417 4.4875 2 4.875 2 5.325C2 5.725 2.14583 6.06667 2.4375 6.35C2.72917 6.63333 3.08333 6.775 3.5 6.775Z" fill="#41C9B3"/>
</svg>
