<svg width="15" height="20" viewBox="0 0 15 20" fill="none" xmlns="http://www.w3.org/2000/svg">
<path d="M7.5 20C5.35938 20 3.57422 19.2167 2.14453 17.65C0.714844 16.0833 0 14.1333 0 11.8C0 10.1333 0.621094 8.32083 1.86328 6.3625C3.10547 4.40417 4.98438 2.28333 7.5 0C10.0156 2.28333 11.8945 4.40417 13.1367 6.3625C14.3789 8.32083 15 10.1333 15 11.8C15 14.1333 14.2852 16.0833 12.8555 17.65C11.4258 19.2167 9.64062 20 7.5 20ZM7.5 18C9.125 18 10.4688 17.4125 11.5313 16.2375C12.5938 15.0625 13.125 13.5833 13.125 11.8C13.125 10.5833 12.6523 9.20833 11.707 7.675C10.7617 6.14167 9.35938 4.46667 7.5 2.65C5.64062 4.46667 4.23828 6.14167 3.29297 7.675C2.34766 9.20833 1.875 10.5833 1.875 11.8C1.875 13.5833 2.40625 15.0625 3.46875 16.2375C4.53125 17.4125 5.875 18 7.5 18ZM4.6875 16H10.3125V14H4.6875V16ZM6.5625 13H8.4375V11H10.3125V9H8.4375V7H6.5625V9H4.6875V11H6.5625V13Z" fill="#41C9B3"/>
</svg>
