<svg width="51" height="51" viewBox="0 0 51 51" fill="none" xmlns="http://www.w3.org/2000/svg">
<path d="M38.9904 30.4465C38.9904 30.3477 39.0974 21.5077 33.1712 18.2729C30.976 19.8784 30.3629 22.1299 30.5582 25.213C30.5641 25.32 30.5481 25.427 30.5112 25.5276C30.4743 25.6282 30.4172 25.7201 30.3435 25.7978C30.2698 25.8755 30.1809 25.9373 30.0825 25.9795C29.984 26.0216 29.8779 26.0432 29.7708 26.0429H29.6957C29.4981 26.0474 29.306 25.9776 29.1574 25.8472C29.0089 25.7168 28.9147 25.5355 28.8935 25.339C28.4628 20.3662 30.9684 16.317 35.5418 15.5814C35.7966 14.3698 35.7159 13.1117 35.3083 11.9426C34.9007 10.7735 34.1817 9.73781 33.2289 8.94727C30.5694 9.29413 28.0797 10.4459 26.0936 12.2482C24.1074 14.0504 22.7199 16.4169 22.1171 19.0303C21.8525 21.2416 21.0608 23.2297 19.0634 23.7319C18.946 23.762 18.8232 23.7649 18.7045 23.7405C18.5857 23.716 18.4741 23.6648 18.3781 23.5908C18.2821 23.5168 18.2042 23.4218 18.1503 23.3132C18.0965 23.2046 18.0681 23.0851 18.0673 22.9639V22.9068C18.0685 22.7275 18.129 22.5536 18.2394 22.4123C18.3498 22.2711 18.5039 22.1704 18.6776 22.1259C18.9805 22.052 19.2566 21.8949 19.4748 21.6723C19.894 21.2023 20.171 20.6228 20.2733 20.0014C18.7433 19.1213 16.7778 17.2219 17.3501 13.3915L17.298 13.279C16.7618 12.9972 15.8463 12.5051 15.3113 12.2194L15.1892 12.2446C14.8075 12.7127 12.4121 15.6499 11.9843 16.1746L12.0148 16.2975C14.8036 17.5686 15.7251 20.416 13.5732 24.1169C10.2657 31.8557 17.6941 46.5853 30.3234 47.7889C37.174 48.4247 39.3319 39.5381 38.9904 30.4465Z" fill="white"/>
<path d="M17.2278 8.52763C17.4885 8.95393 17.6202 9.44657 17.607 9.94607C17.5939 10.4456 17.4364 10.9306 17.1537 11.3426L17.3348 11.4331C17.8613 11.6351 18.3304 11.9629 18.7011 12.3879C18.9345 12.7547 19.0334 13.191 18.981 13.6226C18.6023 16.1495 19.5901 17.5405 20.6025 18.2813C21.1611 16.0291 22.2538 13.9446 23.7882 12.2039C25.3226 10.4632 27.2536 9.11755 29.4179 8.28073C29.0148 7.78965 28.7406 7.20586 28.6198 6.58214C28.4991 5.95843 28.5357 5.31445 28.7264 4.70845C28.9758 3.99226 28.1444 3.64204 27.6893 3.3092C26.2565 2.55539 25.0839 5.79073 24.8332 6.6591C24.819 6.71387 24.7876 6.76258 24.7434 6.79795C24.6993 6.83332 24.6449 6.85345 24.5884 6.85532C24.5318 6.85718 24.4762 6.84069 24.4299 6.80831C24.3835 6.77593 24.3489 6.7294 24.3311 6.67568L23.3269 4.07468C23.041 3.28192 22.0121 3.6904 21.4009 3.84428C21.289 3.8733 21.1847 3.92637 21.0954 3.9998C21.006 4.07323 20.9338 4.16525 20.8836 4.26945C20.8335 4.37366 20.8066 4.48754 20.805 4.60317C20.8034 4.71879 20.8269 4.83339 20.8741 4.93897C21.1939 5.74783 21.3936 6.59916 21.4667 7.46587C21.4781 7.59932 21.4496 7.73314 21.385 7.85044C21.3203 7.96774 21.2224 8.06324 21.1035 8.12489C20.9846 8.18654 20.8501 8.21157 20.717 8.19682C20.5838 8.18207 20.4581 8.12819 20.3556 8.04201L19.1127 6.98844C18.5873 6.3872 17.9144 6.95364 17.4006 7.24364C17.2947 7.30829 17.2045 7.39578 17.1366 7.49972C17.0687 7.60367 17.0249 7.72144 17.0084 7.84447C16.9918 7.96749 17.0029 8.09266 17.0409 8.21085C17.0788 8.32904 17.1427 8.43726 17.2278 8.52763Z" fill="white"/>
</svg>
