<svg width="83" height="83" viewBox="0 0 83 83" fill="none" xmlns="http://www.w3.org/2000/svg">
<rect width="83" height="83" rx="41.5" fill="url(#paint0_linear_3163_1246)"/>
<mask id="mask0_3163_1246" style="mask-type:luminance" maskUnits="userSpaceOnUse" x="21" y="29" width="48" height="21">
<path d="M21.6719 29H68.4289V49.5377H21.6719V29Z" fill="white"/>
</mask>
<g mask="url(#mask0_3163_1246)">
<path d="M68.4289 32.286C68.4289 30.4768 66.9609 29.0088 65.1522 29.0088C64.1717 29.0088 63.2961 29.4389 62.6932 30.1207C62.0953 29.4389 61.2147 29.0088 60.2397 29.0088C59.2642 29.0088 58.3836 29.4389 57.7807 30.1207C57.1778 29.4389 56.3022 29.0088 55.3217 29.0088C54.3412 29.0088 53.4656 29.4389 52.8627 30.1207C52.2648 29.4389 51.3842 29.0088 50.4037 29.0088C49.4232 29.0088 48.5476 29.4389 47.9447 30.1207C47.3473 29.4389 46.4717 29.0088 45.4912 29.0088C44.5107 29.0088 43.635 29.4389 43.0322 30.1207C42.4343 29.4389 41.5537 29.0088 40.5786 29.0088C39.6031 29.0088 38.7225 29.4389 38.1196 30.1207C37.5168 29.4389 36.6411 29.0088 35.6606 29.0088C34.6801 29.0088 33.8045 29.4389 33.2016 30.1207C32.6037 29.4389 31.7231 29.0088 30.7426 29.0088C29.1697 29.0088 27.8591 30.1152 27.5394 31.5887C27.2562 31.5098 26.9575 31.4628 26.6428 31.4628C24.8341 31.4628 23.3661 32.9308 23.3661 34.7395C23.3661 35.1431 23.4395 35.5312 23.5704 35.8878C22.48 36.4173 21.7248 37.5391 21.7248 38.8343C21.7248 39.8618 22.1968 40.7739 22.936 41.3767C22.6843 41.8383 22.5429 42.3677 22.5429 42.9287C22.5429 44.7378 24.011 46.2058 25.8196 46.2058C26.1028 46.2058 26.3806 46.1689 26.6428 46.1009C26.6428 46.1374 26.6373 46.1689 26.6373 46.2058C26.6373 48.0145 28.1053 49.4825 29.9145 49.4825C30.895 49.4825 31.7706 49.0525 32.3735 48.3711C32.9709 49.0525 33.852 49.4825 34.832 49.4825C36.4049 49.4825 37.7161 48.3761 38.0357 46.9031C38.3189 46.9816 38.6176 47.029 38.9323 47.029C40.6151 47.029 42.0047 45.7548 42.188 44.119C42.6755 44.4072 43.2419 44.57 43.8503 44.57C45.5331 44.57 46.9222 43.2958 47.106 41.66C47.5935 41.9487 48.16 42.111 48.7678 42.111C50.1994 42.111 51.4107 41.1934 51.8612 39.9192C52.3802 40.2709 53.0095 40.4752 53.6859 40.4752C54.6664 40.4752 55.542 40.0451 56.1449 39.3638C56.7422 40.0451 57.6234 40.4752 58.6039 40.4752C59.5844 40.4752 60.46 40.0451 61.0629 39.3638C65.9804 40.4752 66.7985 36.3803 66.2426 35.3738C67.5113 34.9283 68.4289 33.712 68.4289 32.286ZM62.2946 34.6241C62.1218 34.729 57.8591 37.1985 45.4912 37.1985C38.9898 37.1985 34.853 39.0911 32.5253 40.6794C30.0139 42.3942 29.0124 44.1349 29.0019 44.1504C28.85 44.4177 28.5723 44.5645 28.2836 44.5645C28.1473 44.5645 28.0114 44.533 27.8855 44.4596C27.4919 44.2393 27.3506 43.7413 27.5708 43.3482C27.6178 43.2643 28.7192 41.3138 31.5084 39.3848C34.0353 37.6385 38.5077 35.5522 45.4912 35.5522C57.3037 35.5522 61.419 33.2295 61.461 33.2085C61.8491 32.9778 62.3526 33.1036 62.5833 33.4917C62.8136 33.8903 62.6827 34.3933 62.2946 34.6241Z" fill="white"/>
</g>
<mask id="mask1_3163_1246" style="mask-type:luminance" maskUnits="userSpaceOnUse" x="16" y="29" width="35" height="32">
<path d="M16 29.2061H50.4431V60.1507H16V29.2061Z" fill="white"/>
</mask>
<g mask="url(#mask1_3163_1246)">
<path d="M47.4736 44.6221C46.5715 45.6026 45.2768 46.2105 43.8507 46.2105C43.641 46.2105 43.4257 46.195 43.2159 46.1685C42.3927 47.6261 40.8518 48.6066 39.0901 48.664C38.2299 50.148 36.6151 51.123 34.8324 51.123C33.9623 51.123 33.1131 50.8923 32.3739 50.4627C31.6346 50.8873 30.785 51.123 29.9149 51.123C27.7651 51.123 25.9354 49.7389 25.2696 47.8149C22.8156 47.5422 20.902 45.4558 20.902 42.9283C20.902 42.5302 20.9495 42.1366 21.0439 41.754C20.425 40.9154 20.0844 39.8979 20.0844 38.834C20.0844 37.4184 20.7082 36.0813 21.7412 35.1587C21.7307 35.0169 21.7252 34.8805 21.7252 34.7391C21.7252 33.2971 22.3491 32.0024 23.3401 31.1003L21.7202 29.4755C21.4 29.1553 20.881 29.1553 20.5614 29.4755C17.6199 32.422 16 36.3275 16 40.4803C16 49.0626 22.9834 56.046 31.5662 56.046C35.1945 56.046 38.7909 54.6045 42.2514 51.7629C42.6709 51.4167 43.132 51.2699 43.3997 51.4012C43.6879 51.5371 43.8612 52.0511 43.8612 52.7693V59.3232C43.8612 59.7737 44.2279 60.1409 44.6789 60.1409H49.5969C50.0475 60.1409 50.4146 59.7737 50.4146 59.3232V50.3053C50.4096 47.9248 49.2872 45.8069 47.4736 44.6221Z" fill="white"/>
</g>
<defs>
<linearGradient id="paint0_linear_3163_1246" x1="41.5" y1="-40.5" x2="41.5" y2="83" gradientUnits="userSpaceOnUse">
<stop stop-color="#B7EDE4"/>
<stop offset="1" stop-color="#3DC8B1"/>
</linearGradient>
</defs>
</svg>
