<svg width="83" height="83" viewBox="0 0 83 83" fill="none" xmlns="http://www.w3.org/2000/svg">
<rect width="83" height="83" rx="41.5" fill="url(#paint0_linear_3163_1239)"/>
<path d="M41.1754 36.4978C41.7335 34.671 42.2405 31.7775 42.2455 31.7497C42.3059 31.3956 42.6456 31.1579 42.9947 31.2184C43.3483 31.2788 43.5855 31.619 43.5251 31.9686C43.5018 32.0899 42.9992 34.9696 42.4173 36.8751C42.3713 37.0242 42.4317 37.1361 42.4733 37.1921C42.5154 37.2431 42.6035 37.3367 42.757 37.3367H47.2897C47.6482 37.3367 47.9414 37.6298 47.9414 37.9888C47.9414 38.3479 47.6482 38.641 47.2897 38.641H42.757C42.2267 38.641 41.7429 38.3944 41.4264 37.97C41.11 37.5417 41.0213 37.0059 41.1754 36.4978ZM47.927 44.2329C47.8666 44.587 47.5269 44.8247 47.1733 44.7593L44.3675 44.2656C44.1624 44.228 44.051 44.3587 44.0139 44.4147C43.9762 44.4706 43.8975 44.6197 44.0045 44.7965L45.9125 47.9747C46.0982 48.2822 45.9962 48.6829 45.6887 48.8691C45.5867 48.9344 45.4703 48.9622 45.3539 48.9622C45.135 48.9622 44.9166 48.8502 44.7953 48.6452L42.8878 45.4675C42.5481 44.9039 42.5713 44.2186 42.9432 43.6783C43.3156 43.1375 43.9485 42.8721 44.5953 42.984L47.4011 43.4777C47.7552 43.5386 47.9924 43.8789 47.927 44.2329ZM35.4423 37.8071C34.7535 38.6084 33.9765 39.3913 33.1059 40.1415C33.097 40.1509 33.0876 40.1603 33.0782 40.1648C32.4547 40.7056 31.7847 41.232 31.0726 41.74C30.463 42.1778 29.9188 42.7136 29.4394 43.3475C29.4345 43.3846 29.4256 43.4173 29.4112 43.45C29.3557 43.6035 29.2483 43.7293 29.118 43.8041C28.5411 44.6846 28.0806 45.7285 27.7359 46.9308C27.1872 48.8597 26.9451 51.1896 27.0104 53.8504C27.1035 57.4991 27.7686 60.7932 28.0385 62H32.2408C32.0452 60.7511 31.6778 58.1324 31.5242 55.4628C31.3985 53.2725 31.4356 51.4645 31.6357 50.0898C31.9194 48.1515 32.534 47.0195 33.5155 46.6278C37.1919 45.1555 40.4959 50.2111 40.6351 50.43C40.8307 50.733 40.7425 51.1337 40.44 51.3293C40.1374 51.5254 39.7373 51.4367 39.5417 51.1337C39.5278 51.1104 38.7785 49.964 37.6807 48.9948C37.1453 48.5244 36.6333 48.1797 36.1401 47.9559C36.0797 48.3753 36.0054 48.7898 35.9123 49.1999C35.2839 52.0285 35.1814 53.1234 35.2002 53.5428C35.2561 54.6566 35.9727 56.576 37.4197 58.1463C38.2947 59.1016 39.3604 59.8612 40.5841 60.402C42.0454 61.0497 43.739 61.3944 45.6194 61.4176C48.1736 61.4503 50.4352 60.4995 52.3433 58.5984C54.13 56.8137 55.5869 54.1767 56.5545 50.9658C57.5038 47.8068 57.9926 44.0928 57.9555 40.2257C57.9322 37.3926 57.3176 34.6571 56.1405 32.0899C55.0793 29.7832 53.5486 27.6256 51.706 25.8503C50.1005 24.3033 48.2578 23.036 46.3775 22.1927C44.5348 21.3677 42.6828 20.9532 41.0169 21.0042C38.1224 21.0884 35.6701 22.1972 33.925 24.2102C32.166 26.2371 31.2588 29.0984 31.552 31.6749C31.6916 32.91 32.3195 34.3961 33.2738 35.752C33.6086 36.2323 33.9206 36.7305 34.2043 37.2431C35.3631 35.9431 36.0935 34.769 36.5541 33.8464C37.4618 32.029 37.5177 30.8039 37.5177 30.7945C37.5267 30.4354 37.8248 30.1561 38.1828 30.1651C38.5413 30.1745 38.8251 30.4775 38.8157 30.8361C38.8157 30.897 38.7647 32.29 37.7644 34.3402C37.1869 35.5192 36.41 36.684 35.4512 37.8027L35.4423 37.8071Z" fill="white"/>
<defs>
<linearGradient id="paint0_linear_3163_1239" x1="41.5" y1="-40.5" x2="41.5" y2="83" gradientUnits="userSpaceOnUse">
<stop stop-color="#FFC5B2"/>
<stop offset="1" stop-color="#F37B59"/>
</linearGradient>
</defs>
</svg>
