<svg width="56" height="56" viewBox="0 0 56 56" fill="none" xmlns="http://www.w3.org/2000/svg">
  <path d="M36.9188 31.1809C36.9188 31.1146 36.9907 25.1801 33.0122 23.0085C31.5386 24.0863 31.127 25.5978 31.2581 27.6676C31.2621 27.7394 31.2514 27.8112 31.2266 27.8787C31.2018 27.9462 31.1635 28.008 31.114 28.0601C31.0645 28.1123 31.0048 28.1538 30.9387 28.1821C30.8726 28.2104 30.8014 28.2249 30.7295 28.2247H30.6791C30.5464 28.2277 30.4175 28.1808 30.3177 28.0933C30.218 28.0058 30.1548 27.884 30.1405 27.7521C29.8514 24.4138 31.5335 21.6955 34.6037 21.2017C34.7748 20.3883 34.7206 19.5437 34.4469 18.7588C34.1733 17.974 33.6906 17.2788 33.051 16.748C31.2657 16.9809 29.5942 17.7541 28.2609 18.964C26.9276 20.1739 25.9961 21.7626 25.5915 23.517C25.4138 25.0015 24.8823 26.3361 23.5414 26.6732C23.4626 26.6934 23.3802 26.6954 23.3005 26.679C23.2207 26.6626 23.1458 26.6282 23.0814 26.5785C23.0169 26.5288 22.9646 26.4651 22.9285 26.3922C22.8923 26.3193 22.8733 26.2391 22.8728 26.1577V26.1193C22.8735 25.999 22.9141 25.8822 22.9882 25.7874C23.0624 25.6926 23.1658 25.625 23.2824 25.5951C23.4858 25.5455 23.6711 25.44 23.8176 25.2906C24.0991 24.9751 24.2849 24.586 24.3536 24.1689C23.3265 23.5781 22.007 22.303 22.3913 19.7315L22.3563 19.656C21.9963 19.4668 21.3817 19.1365 21.0225 18.9447L20.9406 18.9616C20.6844 19.2758 19.0763 21.2477 18.7891 21.5999L18.8096 21.6824C20.6817 22.5357 21.3004 24.4472 19.8557 26.9317C17.6354 32.1269 22.6222 42.0151 31.1005 42.8232C35.6994 43.25 37.148 37.2843 36.9188 31.1809Z" fill="white"/>
  <path d="M22.3086 16.4667C22.4836 16.7529 22.572 17.0836 22.5632 17.419C22.5543 17.7543 22.4486 18.0799 22.2588 18.3565L22.3804 18.4172C22.7339 18.5529 23.0488 18.7729 23.2976 19.0582C23.4543 19.3044 23.5207 19.5974 23.4855 19.8871C23.2313 21.5834 23.8944 22.5173 24.574 23.0145C24.9491 21.5026 25.6826 20.1032 26.7127 18.9347C27.7428 17.7661 29.0391 16.8627 30.492 16.301C30.2214 15.9713 30.0373 15.5794 29.9562 15.1607C29.8752 14.742 29.8998 14.3097 30.0278 13.9028C30.1952 13.422 29.6371 13.1869 29.3316 12.9635C28.3697 12.4575 27.5825 14.6294 27.4142 15.2123C27.4047 15.2491 27.3836 15.2818 27.3539 15.3056C27.3243 15.3293 27.2878 15.3428 27.2498 15.3441C27.2119 15.3453 27.1746 15.3343 27.1434 15.3125C27.1123 15.2908 27.0891 15.2595 27.0772 15.2235L26.403 13.4774C26.2111 12.9452 25.5204 13.2194 25.11 13.3227C25.0349 13.3422 24.9649 13.3778 24.9049 13.4271C24.8449 13.4764 24.7964 13.5382 24.7628 13.6081C24.7291 13.6781 24.7111 13.7545 24.71 13.8322C24.7089 13.9098 24.7247 13.9867 24.7564 14.0576C24.9711 14.6006 25.1051 15.1721 25.1542 15.7539C25.1619 15.8435 25.1428 15.9334 25.0994 16.0121C25.056 16.0909 24.9902 16.155 24.9104 16.1964C24.8306 16.2377 24.7403 16.2546 24.6509 16.2446C24.5615 16.2347 24.4771 16.1986 24.4083 16.1407L23.5739 15.4334C23.2212 15.0298 22.7695 15.4101 22.4246 15.6048C22.3534 15.6482 22.2929 15.7069 22.2473 15.7767C22.2018 15.8465 22.1724 15.9255 22.1613 16.0081C22.1501 16.0907 22.1576 16.1747 22.1831 16.2541C22.2086 16.3334 22.2514 16.4061 22.3086 16.4667Z" fill="white"/>
</svg>
