<svg width="40" height="40" viewBox="0 0 40 40" fill="none" xmlns="http://www.w3.org/2000/svg">
<g clip-path="url(#clip0_3163_1228)">
<path d="M30.2581 30.5388C28.0825 25.4789 20.0985 24.9858 18.753 30.1963C18.7457 30.2243 18.7395 30.2527 18.7341 30.2813C18.3404 32.4075 18.6523 33.6968 18.9028 34.7328C19.1686 35.8319 19.3442 36.5579 18.63 38.2668C18.2864 39.0888 18.8905 39.9999 19.7841 39.9999H27.2975C27.9883 39.9999 28.5484 39.4399 28.5484 38.749V36.879C28.5484 35.8204 30.9622 33.533 30.3285 30.7546C30.3117 30.6807 30.2881 30.6084 30.2581 30.5388Z" fill="white"/>
<path d="M34.0937 21.3567C33.1439 19.9415 31.0396 19.9379 30.0874 21.3567C28.5777 23.6064 28.5776 26.5419 30.0874 28.7917C31.0371 30.2069 33.1414 30.2107 34.0937 28.7917C35.6034 26.5422 35.6034 23.6063 34.0937 21.3567Z" fill="white"/>
<path d="M25.8869 24.6C27.9676 23.2611 29.7672 20.7959 30.2634 18.6052C30.7275 16.5563 29.4832 14.4919 27.4305 13.9053C19.934 11.7637 13.5402 7.94209 9.23783 1.4783C8.79792 0.817471 7.8648 0.731241 7.30974 1.28927L0.777939 7.85539C0.153927 8.48268 0.3618 9.54472 1.17758 9.88964C8.83513 13.1274 14.7107 17.5464 19.14 23.3993C20.7238 25.492 23.6879 26.0151 25.8869 24.6Z" fill="white"/>
<path d="M35.4624 39.9179C34.6647 39.9179 34.0708 39.1823 34.2384 38.4037L36.8288 26.3674C37.7465 22.1862 36.1484 17.8968 32.7763 15.2886L15.9056 2.2403C15.3591 1.81768 15.2587 1.03207 15.6814 0.485613C16.1041 -0.0608468 16.8897 -0.161148 17.4361 0.261478L34.3067 13.3098C38.4609 16.5228 40.3925 21.8003 39.2733 26.8988L36.684 38.93C36.5578 39.5167 36.0391 39.9179 35.4624 39.9179Z" fill="white"/>
<path d="M15.5252 40.0003C14.8179 40.0003 14.2508 39.4156 14.2742 38.7082L14.6153 28.4045C14.6561 27.1739 14.1004 25.9747 13.1287 25.1969L0.883239 15.3944C0.343972 14.9627 0.256726 14.1755 0.688421 13.6362C1.12012 13.0969 1.90728 13.0096 2.44663 13.4414L14.6922 23.244C16.2764 24.5122 17.1824 26.4724 17.1157 28.4873L16.7746 38.7909C16.7521 39.4673 16.1968 40.0003 15.5252 40.0003Z" fill="white"/>
</g>
<defs>
<clipPath id="clip0_3163_1228">
<rect width="40" height="40" fill="white"/>
</clipPath>
</defs>
</svg>
