<svg width="43" height="43" viewBox="0 0 43 43" fill="none" xmlns="http://www.w3.org/2000/svg">
<path d="M36.3446 22.626C33.9351 24.8466 30.6589 26.3109 27.2573 26.8308V36.5389H34.5494C38.4469 36.5389 41.6356 33.3503 41.6356 29.4527C41.6356 26.1694 39.3917 23.4058 36.3446 22.626ZM21.3996 27.0906C20.8563 27.0906 20.3367 26.9725 19.864 26.7363C19.1554 26.382 18.5649 25.8151 18.2108 25.0828C17.8592 24.31 17.7064 23.2143 17.6437 22.3662C13.7394 22.4747 10.7226 25.6618 10.7226 29.4527C10.7226 33.4249 13.9788 36.5389 17.8088 36.5389H24.8952V27.067C24.6829 27.0906 24.4701 27.0906 24.2575 27.0906H21.3996Z" fill="white"/>
<path d="M24.1624 7.13019C23.1469 7.90992 22.2021 8.83088 21.3754 9.87019C19.6275 12.0197 18.4464 14.5237 17.9029 17.169C16.155 14.8305 15.1865 11.996 15.1865 8.99647V7.01209C15.1865 6.35046 15.7064 5.83105 16.3676 5.83105H18.3519C20.3833 5.83105 22.3674 6.27985 24.1624 7.13019Z" fill="white"/>
<path d="M37.9343 5.83105H34.7691C30.2576 5.83105 26.0529 7.83881 23.2184 11.3349C20.4196 14.829 19.4263 19.1324 20.1477 23.1452C20.5926 22.7006 27.9019 15.3913 27.6593 15.6339C28.0842 15.1615 28.8876 15.1612 29.3128 15.6339C29.7852 16.0586 29.7854 16.8619 29.3128 17.2871C29.0734 17.5262 21.5758 25.0243 21.8722 24.7278C27.0065 24.7278 31.772 24.3492 35.7376 19.6258C37.9345 16.9566 39.1156 13.6731 39.1156 10.1775V7.01209C39.1153 6.35046 38.5959 5.83105 37.9343 5.83105Z" fill="white"/>
<path d="M11.478 22.4373C9.56446 24.1616 8.36005 26.6652 8.36005 29.4527C8.36005 31.9092 9.30488 34.2479 10.9822 35.972C10.1555 36.3027 9.28126 36.4682 8.40729 36.4682C6.58826 36.4682 4.76504 35.7832 3.39479 34.413C0.631423 31.6494 0.631423 27.1376 3.39479 24.374L8.43091 19.3428L11.478 22.4373Z" fill="white"/>
<path d="M17.2659 20.0282C15.8956 20.0993 14.5965 20.4773 13.463 21.0678L10.085 17.6898L13.6517 14.123C14.4078 16.32 15.6124 18.3514 17.2659 20.0282Z" fill="white"/>
</svg>
