<svg width="24" height="24" viewBox="0 0 24 24" fill="none" xmlns="http://www.w3.org/2000/svg">
<g clip-path="url(#clip0_365_3260)">
<path d="M15.2727 21.4545C12.8364 21.4545 10.7727 20.6091 9.08182 18.9182C7.39091 17.2273 6.54545 15.1636 6.54545 12.7273C6.54545 10.3091 7.39091 8.25 9.08182 6.55C10.7727 4.85 12.8364 4 15.2727 4C17.6909 4 19.75 4.85 21.45 6.55C23.15 8.25 24 10.3091 24 12.7273C24 15.1636 23.15 17.2273 21.45 18.9182C19.75 20.6091 17.6909 21.4545 15.2727 21.4545ZM17.7545 16.7909L19.3091 15.2364L16.3636 12.2909V8.36364H14.1818V13.1909L17.7545 16.7909ZM1.09091 9.45455V7.27273H5.45455V9.45455H1.09091ZM0 13.8182V11.6364H5.45455V13.8182H0ZM1.09091 18.1818V16H5.45455V18.1818H1.09091Z" fill="#41C9B3"/>
</g>
<defs>
<clipPath id="clip0_365_3260">
<rect width="24" height="24" fill="white"/>
</clipPath>
</defs>
</svg>
