<svg width="18" height="23" viewBox="0 0 18 23" fill="none" xmlns="http://www.w3.org/2000/svg">
<path d="M10.5891 10.8244C11.0297 10.374 11.25 9.8325 11.25 9.2C11.25 8.5675 11.0297 8.02604 10.5891 7.57562C10.1484 7.12521 9.61875 6.9 9 6.9C8.38125 6.9 7.85156 7.12521 7.41094 7.57562C6.97031 8.02604 6.75 8.5675 6.75 9.2C6.75 9.8325 6.97031 10.374 7.41094 10.8244C7.85156 11.2748 8.38125 11.5 9 11.5C9.61875 11.5 10.1484 11.2748 10.5891 10.8244ZM9 23C5.98125 20.3742 3.72656 17.9352 2.23594 15.6831C0.745313 13.431 0 11.3467 0 9.43C0 6.555 0.904688 4.26458 2.71406 2.55875C4.52344 0.852917 6.61875 0 9 0C11.3812 0 13.4766 0.852917 15.2859 2.55875C17.0953 4.26458 18 6.555 18 9.43C18 11.3467 17.2547 13.431 15.7641 15.6831C14.2734 17.9352 12.0188 20.3742 9 23Z" fill="#8B5CF6"/>
</svg>
