<svg width="24" height="18" viewBox="0 0 24 18" fill="none" xmlns="http://www.w3.org/2000/svg">
<path d="M15.2727 17.4545C12.8364 17.4545 10.7727 16.6091 9.08182 14.9182C7.39091 13.2273 6.54545 11.1636 6.54545 8.72727C6.54545 6.30909 7.39091 4.25 9.08182 2.55C10.7727 0.85 12.8364 0 15.2727 0C17.6909 0 19.75 0.85 21.45 2.55C23.15 4.25 24 6.30909 24 8.72727C24 11.1636 23.15 13.2273 21.45 14.9182C19.75 16.6091 17.6909 17.4545 15.2727 17.4545ZM17.7545 12.7909L19.3091 11.2364L16.3636 8.29091V4.36364H14.1818V9.19091L17.7545 12.7909ZM1.09091 5.45455V3.27273H5.45455V5.45455H1.09091ZM0 9.81818V7.63636H5.45455V9.81818H0ZM1.09091 14.1818V12H5.45455V14.1818H1.09091Z" fill="#41C9B3"/>
</svg>
