<svg width="39" height="37" viewBox="0 0 39 37" fill="none" xmlns="http://www.w3.org/2000/svg">
<path d="M10.8669 27.0999C9.78145 29.1538 9.20361 31.4355 9.20361 33.7759C9.20361 35.5538 10.7282 36.9999 12.6022 36.9999C14.4758 36.9999 16.0005 35.5535 16.0005 33.7757C16.0005 33.2421 16.0528 32.7165 16.1543 32.203C13.7126 31.3017 11.7756 29.4352 10.8669 27.0999Z" fill="#8B5CF6"/>
<path d="M22.7808 32.203C22.8819 32.7165 22.9343 33.2421 22.9343 33.7759C22.9343 35.5535 24.4589 36.9999 26.3329 36.9999C28.2068 36.9999 29.7311 35.5535 29.7311 33.7759C29.7311 31.4355 29.1536 29.1538 28.0679 27.0999C27.1591 29.4352 25.2221 31.3017 22.7808 32.203Z" fill="#8B5CF6"/>
<path d="M31.672 15.1645C33.0252 13.8809 33.0252 11.7923 31.672 10.5084C31.0168 9.88654 30.145 9.54413 29.2181 9.54413C28.2913 9.54413 27.4198 9.88654 26.7646 10.5084C24.3934 12.7577 22.0749 13.8053 19.4672 13.8053C16.8598 13.8053 14.5411 12.7577 12.1702 10.5084C10.8173 9.22486 8.61575 9.22486 7.26251 10.5084C6.60702 11.1303 6.24609 11.9571 6.24609 12.8364C6.24609 13.7158 6.60702 14.5426 7.26251 15.1645C8.61218 16.4449 10.7736 18.05 12.6079 18.9338V21.4778H26.3269V18.9338C28.1609 18.05 30.3223 16.4452 31.672 15.1645Z" fill="#8B5CF6"/>
<path d="M12.6074 23.6644V24.0972C12.6074 27.6856 15.6846 30.605 19.467 30.605C23.2494 30.605 26.3267 27.6856 26.3267 24.0972V23.6644H12.6074Z" fill="#8B5CF6"/>
<path d="M19.4675 12.1169C21.8196 12.1169 23.8774 10.9033 24.9855 9.10235C25.5362 8.20721 25.8534 7.16755 25.8534 6.05844C25.8534 2.71786 22.9886 0 19.4675 0C15.9463 0 13.0815 2.71786 13.0815 6.05844C13.0815 7.16755 13.3987 8.20693 13.9495 9.10206C15.0575 10.9031 17.1154 12.1169 19.4675 12.1169Z" fill="#8B5CF6"/>
</svg>
