<svg width="33" height="33" viewBox="0 0 33 33" fill="none" xmlns="http://www.w3.org/2000/svg">
<g clip-path="url(#clip0_2435_11848)">
<path d="M6.54045 25.0924L0 31.6328L1.36724 33L7.90769 26.4597C7.66773 26.2461 7.43241 26.0258 7.20335 25.7967C6.97434 25.5677 6.75398 25.3324 6.54045 25.0924Z" fill="#8B5CF6"/>
<path d="M21.0448 14.2467C22.3103 14.2467 23.3362 13.2208 23.3362 11.9553C23.3362 10.6898 22.3103 9.66394 21.0448 9.66394C19.7793 9.66394 18.7534 10.6898 18.7534 11.9553C18.7534 13.2208 19.7793 14.2467 21.0448 14.2467Z" fill="#8B5CF6"/>
<path d="M18.6899 28.6209C26.5806 28.6209 33.0003 22.2012 33.0003 14.3104C33.0003 6.4196 26.5806 0 18.6899 0C10.7991 0 4.37939 6.41966 4.37939 14.3104C4.37939 17.9086 5.71473 21.2005 7.91529 23.7177L11.0687 20.5643C10.322 20.039 9.46146 19.7096 8.53611 19.6015L7.98155 19.5366L7.76054 19.0239C6.82829 16.8606 6.55997 14.488 6.98465 12.1626C7.41958 9.78083 8.55744 7.61391 10.2754 5.89598C12.523 3.64837 15.5113 2.41061 18.6899 2.41061C21.8684 2.41061 24.8567 3.64837 27.1043 5.89598C31.7439 10.5357 31.7439 18.0851 27.1043 22.7248C25.3863 24.4428 23.2194 25.5807 20.8376 26.0156C20.1207 26.1466 19.3988 26.2116 18.6803 26.2116C17.0687 26.2116 15.4725 25.8845 13.9764 25.2397L13.4636 25.0187L13.3988 24.4641C13.2906 23.5387 12.9612 22.6782 12.4359 21.9315L9.28254 25.0849C11.7997 27.2855 15.0916 28.6209 18.6899 28.6209Z" fill="#8B5CF6"/>
<path d="M15.2282 23.6593C18.8813 25.0157 22.9549 24.139 25.7364 21.3576C29.6221 17.4718 29.6221 11.1491 25.7364 7.26329C23.854 5.38093 21.3513 4.34427 18.6892 4.34427C16.0271 4.34427 13.5244 5.38087 11.642 7.26329C8.86054 10.0448 7.98397 14.1183 9.34032 17.7715C10.481 17.9945 11.5355 18.4743 12.4503 19.1822L15.7017 15.9307L17.0689 17.298L13.8175 20.5494C14.5255 21.4641 15.0053 22.5186 15.2282 23.6593ZM16.8193 11.9553C16.8193 9.62569 18.7146 7.73038 21.0443 7.73038C23.374 7.73038 25.2693 9.62569 25.2693 11.9553C25.2693 14.285 23.374 16.1803 21.0443 16.1803C18.7146 16.1803 16.8193 14.285 16.8193 11.9553Z" fill="#8B5CF6"/>
</g>
<defs>
<clipPath id="clip0_2435_11848">
<rect width="33" height="33" fill="white"/>
</clipPath>
</defs>
</svg>
