<svg width="35" height="35" viewBox="0 0 35 35" fill="none" xmlns="http://www.w3.org/2000/svg">
<g clip-path="url(#clip0_2430_11779)">
<path d="M23.8383 9.62974C24.0541 9.25608 23.9261 8.77826 23.5524 8.56252C23.1788 8.34679 22.701 8.47476 22.4852 8.84842L16.4217 19.3508C16.2059 19.7245 16.334 20.2023 16.7076 20.418C17.0813 20.6337 17.5591 20.5057 17.7749 20.132L23.8383 9.62974ZM8.94122 14.4878C8.72548 14.8615 8.85353 15.3393 9.2272 15.5551C9.60086 15.7708 10.0787 15.6427 10.2944 15.2691L16.1223 5.17485C16.338 4.80118 16.21 4.32337 15.8363 4.10763C15.4626 3.89189 14.9848 4.01995 14.7691 4.39361L8.94122 14.4878Z" fill="#8B5CF6"/>
<path d="M27.4101 6.62689L15.5936 -0.212119C15.4208 -0.312121 15.1997 -0.253119 15.0997 -0.0803352L13.2568 3.10384C13.1568 3.27662 13.2158 3.49776 13.3886 3.59776L25.2051 10.4368C25.3779 10.5368 25.599 10.4778 25.699 10.305L27.5419 7.12082C27.6419 6.94803 27.5829 6.7269 27.4101 6.62689Z" fill="#8B5CF6"/>
<path d="M10.9724 12.8077L13.5027 14.2685L12.8853 15.3428L10.355 13.8819L10.9724 12.8077Z" fill="#8B5CF6"/>
<path d="M12.1877 10.7067L13.7819 11.6272L13.1597 12.7014L11.5654 11.781L12.1877 10.7067Z" fill="#8B5CF6"/>
<path d="M13.3981 8.6058L15.9284 10.0666L15.3111 11.1409L12.7808 9.68013L13.3981 8.6058Z" fill="#8B5CF6"/>
<path fill-rule="evenodd" clip-rule="evenodd" d="M10.6998 32.3861L17.7747 20.1321C16.767 19.5503 15.9949 18.5604 14.9872 17.9786C13.9795 17.3968 12.7362 17.2231 11.7285 16.6413C10.7208 16.0595 9.9487 15.0696 8.94106 14.4878L1.63057 27.15C0.19066 29.644 1.05304 32.8626 3.54717 34.3026C6.04122 35.7425 9.25991 34.88 10.6998 32.3861Z" fill="#8B5CF6"/>
<path fill-rule="evenodd" clip-rule="evenodd" d="M31.2369 8.56802C29.4756 10.6873 28.6635 12.4258 28.4597 13.7835C28.0895 16.2492 29.7252 17.4593 31.3239 17.4139C32.8554 17.3703 34.3531 16.1741 34.0202 13.8256C33.827 12.4618 33.0166 10.7092 31.2369 8.56802Z" fill="#8B5CF6"/>
</g>
<defs>
<clipPath id="clip0_2430_11779">
<rect width="35" height="35" fill="white"/>
</clipPath>
</defs>
</svg>
