<svg width="24" height="24" viewBox="0 0 24 24" fill="none" xmlns="http://www.w3.org/2000/svg">
<path d="M9.2 23.9L7.45 22.9L10.45 17.7L8.75 16.7L7.25 19.3L5.5 18.3L10.65 9.4C10.0167 8.75 9.54167 8.00833 9.225 7.175C8.90833 6.34167 8.75 5.48333 8.75 4.6C8.75 4 8.825 3.40433 8.975 2.813C9.125 2.22167 9.36667 1.65067 9.7 1.1L11.4 2.1C11.1667 2.48333 11 2.87933 10.9 3.288C10.8 3.69667 10.75 4.11733 10.75 4.55C10.75 5.43333 10.9667 6.26267 11.4 7.038C11.8333 7.81333 12.45 8.434 13.25 8.9L15.5 10.2C16.5333 10.8 17.2917 11.6627 17.775 12.788C18.2583 13.9133 18.5 14.9673 18.5 15.95C18.5 16.5833 18.4167 17.2 18.25 17.8C18.0833 18.4 17.85 18.9667 17.55 19.5L15.8 18.5C16.0333 18.1 16.2 17.6917 16.3 17.275C16.4 16.8583 16.45 16.4333 16.45 16C16.45 15.4667 16.375 14.95 16.225 14.45C16.075 13.95 15.8333 13.4833 15.5 13.05L9.2 23.9ZM16 9C15.45 9 14.9793 8.80433 14.588 8.413C14.1967 8.02167 14.0007 7.55067 14 7C13.9993 6.44933 14.1953 5.97867 14.588 5.588C14.9807 5.19733 15.4513 5.00133 16 5C16.5487 4.99867 17.0197 5.19467 17.413 5.588C17.8063 5.98133 18.002 6.452 18 7C17.998 7.548 17.8023 8.019 17.413 8.413C17.0237 8.807 16.5527 9.00267 16 9ZM13.5 4C13.0667 4 12.7083 3.85 12.425 3.55C12.1417 3.25 12 2.9 12 2.5C12 2.06667 12.15 1.70833 12.45 1.425C12.75 1.14167 13.1 1 13.5 1C13.9333 1 14.2917 1.15 14.575 1.45C14.8583 1.75 15 2.1 15 2.5C15 2.93333 14.85 3.29167 14.55 3.575C14.25 3.85833 13.9 4 13.5 4Z" fill="#8B5CF6"/>
</svg>
