<svg width="137" height="137" viewBox="0 0 137 137" fill="none" xmlns="http://www.w3.org/2000/svg">
<path d="M81.2598 36.3906H85.541V40.6719H81.2598V36.3906Z" fill="#101129"/>
<path d="M38.4473 36.3906H47.0098V40.6719H38.4473V36.3906Z" fill="#101129"/>
<path d="M51.291 36.3906H76.9785V40.6719H51.291V36.3906Z" fill="#101129"/>
<path d="M102.666 17.125V38.6426C103.391 38.5687 104.119 38.5315 104.847 38.5312C105.556 38.5312 106.256 38.5698 106.947 38.6383V10.7031H85.541V14.9844H100.525C101.093 14.9844 101.638 15.2099 102.039 15.6114C102.44 16.0128 102.666 16.5573 102.666 17.125Z" fill="#101129"/>
<path d="M81.2598 6.42188H42.7285V19.2656H81.2598V6.42188ZM53.4316 14.9844H49.1504V10.7031H53.4316V14.9844ZM74.8379 14.9844H70.5566V10.7031H74.8379V14.9844Z" fill="#101129"/>
<path d="M102.666 81.2945V119.875C102.666 120.443 102.44 120.987 102.039 121.389C101.638 121.79 101.093 122.016 100.525 122.016H23.4629C22.8952 122.016 22.3507 121.79 21.9492 121.389C21.5478 120.987 21.3223 120.443 21.3223 119.875V17.125C21.3223 16.5573 21.5478 16.0128 21.9492 15.6114C22.3507 15.2099 22.8952 14.9844 23.4629 14.9844H38.4473V10.7031H17.041V130.578H106.947V81.3202C106.256 81.3887 105.556 81.4272 104.847 81.4272C104.118 81.4216 103.39 81.3773 102.666 81.2945Z" fill="#101129"/>
<path d="M38.4473 19.2656H25.6035V117.734H98.3848V82.4141L90.6079 85.4752C90.3581 85.5752 90.0913 85.6261 89.8223 85.625C89.4649 85.625 89.1132 85.5355 88.7992 85.3646C88.4853 85.1938 88.2191 84.9471 88.025 84.6469C87.8309 84.3469 87.715 84.0029 87.688 83.6466C87.6609 83.2902 87.7235 82.9327 87.87 82.6067L90.7791 76.1378C90.3382 75.7546 89.9229 75.3393 89.5269 74.9219H47.0098V70.6406H86.2795C84.4031 67.4005 83.4103 63.7245 83.4004 59.9803C83.4006 59.2511 83.4378 58.5223 83.5117 57.7969H47.0098V53.5156H84.4001C85.4444 50.2369 87.2591 47.2562 89.6922 44.8231C92.1254 42.39 95.1061 40.5752 98.3848 39.5309V19.2656H85.541V21.4062C85.541 21.974 85.3155 22.5185 84.914 22.9199C84.5126 23.3213 83.9681 23.5469 83.4004 23.5469H40.5879C40.0202 23.5469 39.4757 23.3213 39.0742 22.9199C38.6728 22.5185 38.4473 21.974 38.4473 21.4062V19.2656ZM36.3066 111.312C35.4599 111.312 34.6322 111.061 33.9281 110.591C33.2241 110.121 32.6753 109.452 32.3513 108.67C32.0272 107.887 31.9425 107.026 32.1077 106.196C32.2728 105.366 32.6806 104.603 33.2793 104.004C33.8781 103.405 34.6409 102.997 35.4714 102.832C36.3019 102.667 37.1627 102.752 37.945 103.076C38.7273 103.4 39.3959 103.949 39.8664 104.653C40.3368 105.357 40.5879 106.185 40.5879 107.031C40.5879 108.167 40.1368 109.256 39.3339 110.059C38.5311 110.861 37.4421 111.312 36.3066 111.312ZM36.3066 94.1875C35.4599 94.1875 34.6322 93.9364 33.9281 93.466C33.2241 92.9956 32.6753 92.3269 32.3513 91.5446C32.0272 90.7623 31.9425 89.9015 32.1077 89.071C32.2728 88.2405 32.6806 87.4777 33.2793 86.8789C33.8781 86.2802 34.6409 85.8725 35.4714 85.7073C36.3019 85.5421 37.1627 85.6269 37.945 85.9509C38.7273 86.2749 39.3959 86.8237 39.8664 87.5277C40.3368 88.2318 40.5879 89.0595 40.5879 89.9062C40.5879 91.0417 40.1368 92.1307 39.3339 92.9336C38.5311 93.7364 37.4421 94.1875 36.3066 94.1875ZM36.3066 77.0625C35.4599 77.0625 34.6322 76.8114 33.9281 76.341C33.2241 75.8706 32.6753 75.2019 32.3513 74.4196C32.0272 73.6373 31.9425 72.7765 32.1077 71.946C32.2728 71.1155 32.6806 70.3527 33.2793 69.7539C33.8781 69.1552 34.6409 68.7475 35.4714 68.5823C36.3019 68.4171 37.1627 68.5019 37.945 68.8259C38.7273 69.1499 39.3959 69.6987 39.8664 70.4027C40.3368 71.1068 40.5879 71.9345 40.5879 72.7812C40.5879 73.9167 40.1368 75.0057 39.3339 75.8086C38.5311 76.6114 37.4421 77.0625 36.3066 77.0625ZM36.3066 59.9375C35.4599 59.9375 34.6322 59.6864 33.9281 59.216C33.2241 58.7455 32.6753 58.0769 32.3513 57.2946C32.0272 56.5123 31.9425 55.6515 32.1077 54.821C32.2728 53.9905 32.6806 53.2277 33.2793 52.6289C33.8781 52.0302 34.6409 51.6225 35.4714 51.4573C36.3019 51.2921 37.1627 51.3769 37.945 51.7009C38.7273 52.0249 39.3959 52.5737 39.8664 53.2777C40.3368 53.9818 40.5879 54.8095 40.5879 55.6562C40.5879 56.7917 40.1368 57.8807 39.3339 58.6836C38.5311 59.4864 37.4421 59.9375 36.3066 59.9375ZM94.1035 109.172H47.0098V104.891H94.1035V109.172ZM94.1035 87.7656V92.0469H47.0098V87.7656H94.1035ZM87.6816 32.1094C88.2494 32.1094 88.7938 32.3349 89.1953 32.7364C89.5967 33.1378 89.8223 33.6823 89.8223 34.25V42.8125C89.8223 43.3802 89.5967 43.9247 89.1953 44.3262C88.7938 44.7276 88.2494 44.9531 87.6816 44.9531H36.3066C35.7389 44.9531 35.1944 44.7276 34.793 44.3262C34.3915 43.9247 34.166 43.3802 34.166 42.8125V34.25C34.166 33.6823 34.3915 33.1378 34.793 32.7364C35.1944 32.3349 35.7389 32.1094 36.3066 32.1094H87.6816Z" fill="#101129"/>
<path d="M104.847 42.8123C100.296 42.818 95.933 44.6287 92.7149 47.8471C89.4969 51.0655 87.6868 55.4289 87.6817 59.9802C87.6732 62.6707 88.303 65.3248 89.5195 67.7246C90.7359 70.1244 92.5043 72.2014 94.6794 73.7851C95.0733 74.0753 95.356 74.4916 95.4802 74.9649C95.6045 75.4381 95.5628 75.9396 95.3623 76.3859L93.9345 79.5583L100.525 76.9575C100.899 76.8091 101.307 76.769 101.703 76.8419C102.739 77.0412 103.792 77.143 104.847 77.1458C107.118 77.1712 109.371 76.7459 111.476 75.8945C113.581 75.0432 115.496 73.7827 117.111 72.1862C118.725 70.5896 120.007 68.6885 120.882 66.5932C121.756 64.4978 122.207 62.2497 122.207 59.9791C122.207 57.7085 121.756 55.4604 120.882 53.365C120.007 51.2696 118.725 49.3686 117.111 47.772C115.496 46.1754 113.581 44.915 111.476 44.0636C109.371 43.2123 107.118 42.787 104.847 42.8123ZM114.883 66.9864L111.856 70.0133L104.807 62.9642L97.7576 70.0133L94.7308 66.9864L101.78 59.9373L94.7308 52.8883L97.7576 49.8614L104.807 56.9105L111.856 49.8614L114.883 52.8883L107.834 59.9373L114.883 66.9864Z" fill="#8B5CF6"/>
</svg>
