<svg width="24" height="24" viewBox="0 0 24 24" fill="none" xmlns="http://www.w3.org/2000/svg">
<g clip-path="url(#clip0_2451_12363)">
<path d="M22.6 -1.90735e-06C23 -1.90735e-06 23.3333 0.133331 23.6 0.4C23.8667 0.666666 24 0.999998 24 1.4V6.8C24 7.08889 23.9 7.35 23.7 7.58333C23.5 7.81667 23.2444 7.97778 22.9333 8.06667L18.3333 9C18.0222 9.04444 17.7056 9.01667 17.3833 8.91667C17.0611 8.81667 16.8 8.66667 16.6 8.46667L13.4667 5.33333C12.6222 5.82222 11.8222 6.36111 11.0667 6.95C10.3111 7.53889 9.58889 8.17778 8.9 8.86667C8.16667 9.57778 7.49444 10.3167 6.88333 11.0833C6.27222 11.85 5.74444 12.6444 5.3 13.4667L8.53333 16.7333C8.71111 16.9111 8.83333 17.1222 8.9 17.3667C8.96667 17.6111 8.97778 17.9111 8.93333 18.2667L8.06667 22.9333C8.02222 23.2222 7.87778 23.4722 7.63333 23.6833C7.38889 23.8944 7.11111 24 6.8 24H1.4C0.999998 24 0.666666 23.8667 0.4 23.6C0.133331 23.3333 -1.90735e-06 23 -1.90735e-06 22.6C-1.90735e-06 19.8222 0.605555 17.0778 1.81667 14.3667C3.02778 11.6556 4.74444 9.18889 6.96667 6.96667C9.18889 4.74444 11.6556 3.02778 14.3667 1.81667C17.0778 0.605555 19.8222 -1.90735e-06 22.6 -1.90735e-06Z" fill="#8B5CF6"/>
</g>
<defs>
<clipPath id="clip0_2451_12363">
<rect width="24" height="24" fill="white" transform="matrix(-1 0 0 1 24 0)"/>
</clipPath>
</defs>
</svg>
