<svg width="56" height="56" viewBox="0 0 56 56" fill="none" xmlns="http://www.w3.org/2000/svg">
  <g clip-path="url(#clip0_bone_glyph)">
    <path d="M31.7361 33.8976C30.4609 30.9319 25.7813 30.6429 24.9927 33.6969C24.9884 33.7133 24.9847 33.73 24.9816 33.7467C24.7509 34.9929 24.9336 35.7486 25.0805 36.3558C25.2363 37 25.3392 37.4255 24.9206 38.4272C24.7192 38.909 25.0733 39.443 25.5971 39.443H30.0008C30.4057 39.443 30.7339 39.1147 30.7339 38.7098V37.6138C30.7339 36.9933 32.1488 35.6526 31.7773 34.0241C31.7674 33.9808 31.7537 33.9384 31.7361 33.8976Z" fill="white"/>
    <path d="M33.9845 28.5165C33.4278 27.687 32.1945 27.6849 31.6363 28.5165C30.7515 29.835 30.7514 31.5556 31.6363 32.8743C32.193 33.7037 33.4263 33.706 33.9845 32.8743C34.8694 31.5558 34.8694 29.835 33.9845 28.5165Z" fill="white"/>
    <path d="M29.1763 30.4179C30.3958 29.6331 31.4506 28.1882 31.7414 26.9042C32.0134 25.7033 31.2841 24.4933 30.081 24.1495C25.6871 22.8943 21.9396 20.6543 19.4179 16.8658C19.16 16.4784 18.6131 16.4279 18.2878 16.755L14.4594 20.6035C14.0936 20.9712 14.2155 21.5937 14.6936 21.7958C19.1819 23.6935 22.6256 26.2836 25.2218 29.7141C26.15 30.9407 27.8874 31.2473 29.1763 30.4179Z" fill="white"/>
    <path d="M34.7864 39.3967C34.3188 39.3967 33.9707 38.9656 34.069 38.5092L35.5873 31.4545C36.1252 29.0038 35.1885 26.4897 33.212 24.9609L23.3237 17.3131C23.0034 17.0654 22.9446 16.6049 23.1923 16.2846C23.4401 15.9643 23.9005 15.9055 24.2208 16.1533L34.109 23.8011C36.5439 25.6843 37.676 28.7776 37.02 31.7659L35.5024 38.8176C35.4284 39.1615 35.1244 39.3967 34.7864 39.3967Z" fill="white"/>
    <path d="M23.103 39.4444C22.6885 39.4444 22.3561 39.1016 22.3698 38.687L22.5697 32.6478C22.5936 31.9265 22.2679 31.2237 21.6984 30.7678L14.5211 25.0223C14.205 24.7693 14.1539 24.3079 14.4069 23.9918C14.6599 23.6757 15.1213 23.6246 15.4374 23.8776L22.6148 29.6231C23.5434 30.3665 24.0744 31.5154 24.0353 32.6964L23.8353 38.7355C23.8222 39.1319 23.4967 39.4444 23.103 39.4444Z" fill="white"/>
  </g>
  <defs>
    <clipPath id="clip0_bone_glyph">
      <rect width="23.4448" height="23.4448" fill="white" transform="translate(14 16)"/>
    </clipPath>
  </defs>
</svg>
