<svg width="56" height="56" viewBox="0 0 56 56" fill="none" xmlns="http://www.w3.org/2000/svg">
  <mask id="mask0_gut_glyph" style="mask-type:luminance" maskUnits="userSpaceOnUse" x="16" y="18" width="28" height="13">
    <path d="M16.2812 18.999H43.3215V30.8762H16.2812V18.999Z" fill="white"/>
  </mask>
  <g mask="url(#mask0_gut_glyph)">
    <path d="M43.3221 20.9011C43.3221 19.8548 42.4731 19.0059 41.4272 19.0059C40.8601 19.0059 40.3537 19.2546 40.0051 19.6489C39.6593 19.2546 39.1501 19.0059 38.5862 19.0059C38.022 19.0059 37.5128 19.2546 37.1641 19.6489C36.8155 19.2546 36.3091 19.0059 35.742 19.0059C35.175 19.0059 34.6686 19.2546 34.32 19.6489C33.9742 19.2546 33.4649 19.0059 32.8979 19.0059C32.3309 19.0059 31.8245 19.2546 31.4758 19.6489C31.1303 19.2546 30.624 19.0059 30.0569 19.0059C29.4899 19.0059 28.9835 19.2546 28.6348 19.6489C28.2891 19.2546 27.7798 19.0059 27.2159 19.0059C26.6518 19.0059 26.1425 19.2546 25.7939 19.6489C25.4452 19.2546 24.9388 19.0059 24.3718 19.0059C23.8048 19.0059 23.2984 19.2546 22.9497 19.6489C22.6039 19.2546 22.0947 19.0059 21.5276 19.0059C20.618 19.0059 19.86 19.6457 19.6752 20.4978C19.5114 20.4522 19.3386 20.425 19.1567 20.425C18.1107 20.425 17.2617 21.274 17.2617 22.32C17.2617 22.5534 17.3042 22.7778 17.3799 22.9841C16.7493 23.2903 16.3125 23.9391 16.3125 24.6881C16.3125 25.2823 16.5855 25.8098 17.013 26.1584C16.8674 26.4253 16.7857 26.7315 16.7857 27.0559C16.7857 28.1022 17.6346 28.9511 18.6806 28.9511C18.8444 28.9511 19.005 28.9298 19.1567 28.8905C19.1567 28.9116 19.1535 28.9298 19.1535 28.9511C19.1535 29.9971 20.0024 30.8461 21.0487 30.8461C21.6157 30.8461 22.1221 30.5974 22.4708 30.2034C22.8163 30.5974 23.3258 30.8461 23.8926 30.8461C24.8022 30.8461 25.5605 30.2063 25.7453 29.3544C25.9091 29.3997 26.0819 29.4272 26.2638 29.4272C27.237 29.4272 28.0406 28.6903 28.1467 27.7443C28.4286 27.9109 28.7562 28.0051 29.108 28.0051C30.0812 28.0051 30.8845 27.2682 30.9908 26.3222C31.2727 26.4892 31.6003 26.583 31.9519 26.583C32.7797 26.583 33.4802 26.0524 33.7408 25.3155C34.0409 25.5189 34.4049 25.637 34.796 25.637C35.3631 25.637 35.8694 25.3883 36.2181 24.9943C36.5636 25.3883 37.0731 25.637 37.6402 25.637C38.2072 25.637 38.7136 25.3883 39.0622 24.9943C41.9061 25.637 42.3793 23.2689 42.0578 22.6868C42.7915 22.4292 43.3221 21.7258 43.3221 20.9011ZM39.7746 22.2533C39.6746 22.3139 37.2095 23.7421 30.0569 23.7421C26.2971 23.7421 23.9047 24.8366 22.5586 25.7552C21.1062 26.7468 20.527 27.7535 20.521 27.7625C20.4331 27.917 20.2725 28.0019 20.1056 28.0019C20.0267 28.0019 19.9481 27.9837 19.8753 27.9413C19.6477 27.8139 19.566 27.5259 19.6934 27.2986C19.7205 27.25 20.3575 26.122 21.9705 25.0064C23.4318 23.9966 26.0183 22.79 30.0569 22.79C36.8883 22.79 39.2682 21.4468 39.2925 21.4346C39.5169 21.3012 39.8081 21.374 39.9415 21.5984C40.0747 21.8289 39.999 22.1198 39.7746 22.2533Z" fill="white"/>
  </g>
  <mask id="mask1_gut_glyph" style="mask-type:luminance" maskUnits="userSpaceOnUse" x="13" y="19" width="20" height="19">
    <path d="M13 19.1201H32.9189V37.0158H13V19.1201Z" fill="white"/>
  </mask>
  <g mask="url(#mask1_gut_glyph)">
    <path d="M31.2016 28.0351C30.6799 28.6021 29.9312 28.9537 29.1065 28.9537C28.9851 28.9537 28.8606 28.9447 28.7393 28.9294C28.2633 29.7723 27.3721 30.3394 26.3533 30.3726C25.8559 31.2308 24.922 31.7946 23.891 31.7946C23.3878 31.7946 22.8968 31.6612 22.4692 31.4128C22.0417 31.6583 21.5504 31.7946 21.0472 31.7946C19.8039 31.7946 18.7458 30.9942 18.3607 29.8815C16.9415 29.7238 15.8349 28.5172 15.8349 27.0556C15.8349 26.8253 15.8623 26.5977 15.9169 26.3764C15.559 25.8914 15.362 25.303 15.362 24.6877C15.362 23.8691 15.7228 23.0958 16.3202 22.5623C16.3141 22.4802 16.311 22.4014 16.311 22.3196C16.311 21.4857 16.6717 20.737 17.2448 20.2153L16.3081 19.2756C16.1229 19.0904 15.8228 19.0904 15.6379 19.2756C13.9368 20.9796 13 23.2382 13 25.6398C13 30.6031 17.0386 34.6417 22.0021 34.6417C24.1004 34.6417 26.1803 33.808 28.1815 32.1647C28.4242 31.9645 28.6908 31.8796 28.8456 31.9555C29.0123 32.0341 29.1125 32.3314 29.1125 32.7467V36.5369C29.1125 36.7975 29.3245 37.0098 29.5854 37.0098H32.4295C32.6901 37.0098 32.9024 36.7975 32.9024 36.5369V31.3218C32.8995 29.9451 32.2504 28.7203 31.2016 28.0351Z" fill="white"/>
  </g>
</svg>
