<svg width="53" height="53" viewBox="0 0 53 53" fill="none" xmlns="http://www.w3.org/2000/svg">
  <path d="M35.9404 7.72688C35.7914 7.80141 35.634 7.87594 35.4767 7.93391C35.4187 7.95047 35.3525 7.96703 35.2945 7.98359C35.1206 8.03328 34.9467 8.08297 34.7645 8.11609C34.69 8.12438 34.6154 8.12437 34.5492 8.13266C34.4084 8.14922 34.2676 8.17406 34.1186 8.17406C34.0937 8.17406 34.0689 8.17406 34.044 8.17406C33.9032 8.17406 33.7542 8.14922 33.6134 8.13266C33.5057 8.11609 33.3981 8.11609 33.2904 8.09125C33.2739 8.09125 33.2656 8.09125 33.249 8.09125L33.9364 14.3436L35.1454 13.3002C35.2696 13.1925 35.4518 13.1677 35.6009 13.2256L36.8017 13.7308L36.1226 7.65234C36.0646 7.68547 35.9984 7.70203 35.9404 7.73516V7.72688Z" fill="white"/>
  <path d="M23.395 45.2409C23.544 45.1664 23.7014 45.0919 23.8587 45.0422C23.9332 45.0173 24.0078 45.0091 24.074 44.9842C24.2314 44.9428 24.3887 44.9014 24.5543 44.8766C24.6454 44.86 24.7448 44.86 24.8359 44.8517C24.9518 44.8434 25.0595 44.8269 25.1671 44.8269C25.2003 44.8269 25.2251 44.8352 25.2582 44.8352C25.4321 44.8352 25.5978 44.86 25.7717 44.8848C25.8628 44.9014 25.9621 44.9014 26.0532 44.9262H26.1112L25.4073 38.707L24.397 39.618C24.3473 39.6677 24.2811 39.6925 24.2148 39.7091C24.2065 39.7091 24.1982 39.7091 24.19 39.7091C24.1568 39.7091 24.132 39.7256 24.0989 39.7256C24.0657 39.7256 24.0326 39.7256 23.9995 39.7173L22.542 39.3861L23.2128 45.3072C23.2707 45.2741 23.3287 45.2575 23.3867 45.2327L23.395 45.2409Z" fill="white"/>
  <path d="M16.1234 30.723L17.084 29.8369L10.666 30.5491C10.666 30.5491 10.6826 30.6154 10.6991 30.6402C10.782 30.8307 10.8399 31.0294 10.8896 31.2364C10.9062 31.3027 10.9227 31.3689 10.931 31.4352C10.9807 31.6836 11.0055 31.9321 11.0055 32.1888C11.0055 32.3958 10.989 32.5946 10.9559 32.785C10.9476 32.843 10.931 32.9093 10.9227 32.9672C10.8979 33.0997 10.8648 33.2322 10.8234 33.3647C10.8151 33.3979 10.8068 33.431 10.7985 33.4558L16.4049 32.8347L16.1896 31.9652L15.9826 31.1371C15.966 31.0625 15.966 30.9797 15.9826 30.9052C16.0074 30.8307 16.0488 30.7644 16.1068 30.7064L16.1234 30.723Z" fill="white"/>
  <path d="M32.6113 23.4438L37.2487 24.3465L41.083 20.8435L39.8491 15.9493L35.518 14.1191L31.3359 17.7298L31.485 18.4088L32.6113 23.4438Z" fill="white"/>
  <path d="M24.8856 27.5763L26.9973 28.0483L31.7756 23.6675L30.4754 17.8955L23.9664 15.4111L18.6084 20.5455L21.0265 26.7233L24.8856 27.5763Z" fill="white"/>
  <path d="M18.4506 37.5716L23.9824 38.8221L28.562 34.6898L26.7815 28.8846L20.8356 27.5762L16.8937 31.1868L18.4506 37.5716Z" fill="white"/>
  <path d="M36.1974 6.53391C36.9344 5.92109 37.3567 5.01844 37.3567 4.06609C37.3567 2.27734 35.9075 0.828125 34.1188 0.828125C32.33 0.828125 30.8808 2.27734 30.8808 4.06609C30.8808 5.39109 31.6758 6.56703 32.9097 7.05563C34.0028 7.51109 35.3278 7.2875 36.1974 6.53391Z" fill="white"/>
  <path d="M6.90691 28.9512C5.11816 28.9512 3.66895 30.4004 3.66895 32.1891C3.66895 33.9779 5.11816 35.4271 6.90691 35.4271C8.08285 35.4271 9.15941 34.7895 9.71426 33.7709C9.99582 33.2823 10.1366 32.7523 10.1366 32.1891C10.1366 31.5515 9.95441 30.9387 9.6066 30.4335C9.01035 29.506 8.00004 28.9512 6.90691 28.9512Z" fill="white"/>
  <path d="M24.6123 45.7377C24.0658 45.8288 23.5689 46.0607 23.1466 46.4085C22.3764 47.0296 21.9375 47.9488 21.9375 48.9343C21.9375 50.723 23.3867 52.1722 25.1755 52.1722C26.9642 52.1722 28.4134 50.723 28.4134 48.9343C28.4134 47.6341 27.6433 46.4664 26.4508 45.9613C26.0533 45.7874 25.6144 45.6963 25.1755 45.6963C24.985 45.6963 24.8028 45.7129 24.6206 45.746L24.6123 45.7377Z" fill="white"/>
  <path d="M35.0049 37.6799C34.2016 38.4832 33.7627 39.5432 33.7627 40.6777C33.7627 41.8122 34.2016 42.8722 35.0049 43.6755C35.7999 44.4705 36.8681 44.9177 38.0109 44.926C39.1455 44.926 40.2055 44.4871 41.0088 43.6838L44.2384 40.4541L38.2345 34.4502L35.0049 37.6799Z" fill="white"/>
  <path d="M44.8516 39.8327L48.0895 36.5947C48.8928 35.7914 49.3317 34.7232 49.3317 33.5969C49.3317 32.4624 48.8845 31.3941 48.0813 30.5908C47.278 29.7875 46.218 29.3486 45.0834 29.3486C43.9489 29.3486 42.8889 29.7875 42.0856 30.5908L38.8477 33.8288L44.8516 39.8327Z" fill="white"/>
</svg>
