<svg width="14" height="22" viewBox="0 0 14 22" fill="none" xmlns="http://www.w3.org/2000/svg">
<path d="M0 22V21C0 18.6833 0.483333 16.8042 1.45 15.3625C2.41667 13.9208 3.75 12.4667 5.45 11C3.75 9.53333 2.41667 8.07917 1.45 6.6375C0.483333 5.19583 0 3.31667 0 1V0H2V1C2 1.18333 2.00417 1.35417 2.0125 1.5125C2.02083 1.67083 2.03333 1.83333 2.05 2H11.95C11.9667 1.83333 11.9792 1.67083 11.9875 1.5125C11.9958 1.35417 12 1.18333 12 1V0H14V1C14 3.31667 13.5167 5.19583 12.55 6.6375C11.5833 8.07917 10.25 9.53333 8.55 11C10.25 12.4667 11.5833 13.9208 12.55 15.3625C13.5167 16.8042 14 18.6833 14 21V22H12V21C12 20.8167 11.9958 20.6458 11.9875 20.4875C11.9792 20.3292 11.9667 20.1667 11.95 20H2.05C2.03333 20.1667 2.02083 20.3292 2.0125 20.4875C2.00417 20.6458 2 20.8167 2 21V22H0ZM3.45 6H10.55C10.7667 5.68333 10.9542 5.36667 11.1125 5.05C11.2708 4.73333 11.4167 4.38333 11.55 4H2.45C2.58333 4.36667 2.72917 4.7125 2.8875 5.0375C3.04583 5.3625 3.23333 5.68333 3.45 6ZM7 9.7C7.33333 9.41667 7.65833 9.13333 7.975 8.85C8.29167 8.56667 8.59167 8.28333 8.875 8H5.125C5.40833 8.28333 5.70833 8.56667 6.025 8.85C6.34167 9.13333 6.66667 9.41667 7 9.7ZM5.125 14H8.875C8.59167 13.7167 8.29167 13.4333 7.975 13.15C7.65833 12.8667 7.33333 12.5833 7 12.3C6.66667 12.5833 6.34167 12.8667 6.025 13.15C5.70833 13.4333 5.40833 13.7167 5.125 14ZM2.45 18H11.55C11.4167 17.6333 11.2708 17.2875 11.1125 16.9625C10.9542 16.6375 10.7667 16.3167 10.55 16H3.45C3.23333 16.3167 3.04583 16.6333 2.8875 16.95C2.72917 17.2667 2.58333 17.6167 2.45 18Z" fill="#8B5CF6"/>
</svg>
