<svg width="24" height="24" viewBox="0 0 24 24" fill="none" xmlns="http://www.w3.org/2000/svg">
<g clip-path="url(#clip0_1590_282)">
<path d="M6.83333 13.2917H16.5V10.875H6.83333V13.2917ZM6.83333 16.9167H16.5V14.5H6.83333V16.9167ZM6.83333 20.5417H12.875V18.125H6.83333V20.5417ZM4.41667 24.1667C3.75208 24.1667 3.18316 23.93 2.7099 23.4568C2.23663 22.9835 2 22.4146 2 21.75V2.41667C2 1.75208 2.23663 1.18316 2.7099 0.709896C3.18316 0.236632 3.75208 0 4.41667 0H14.0833L21.3333 7.25V21.75C21.3333 22.4146 21.0967 22.9835 20.6234 23.4568C20.1502 23.93 19.5812 24.1667 18.9167 24.1667H4.41667ZM12.875 8.45833H18.9167L12.875 2.41667V8.45833Z" fill="#8B5CF6"/>
</g>
<defs>
<clipPath id="clip0_1590_282">
<rect width="24" height="24" fill="white"/>
</clipPath>
</defs>
</svg>
